{"glyphs":{"0":{"ha":923,"x_min":88,"x_max":835,"o":"m 462 -24 q 187 111 286 -24 q 88 490 88 247 q 188 868 88 732 q 462 1003 287 1003 q 736 867 637 1003 q 835 489 835 732 q 736 111 835 247 q 462 -24 637 -24 m 317 216 q 342 168 317 216 q 462 121 368 121 q 607 216 555 121 q 658 490 658 311 q 606 763 658 668 q 462 857 555 857 q 317 762 369 857 q 265 490 265 667 q 317 216 265 311 z "},"1":{"ha":689,"x_min":83,"x_max":513,"o":"m 338 0 l 338 802 l 327 802 l 83 631 l 83 800 l 339 979 l 513 979 l 513 0 l 338 0 z "},"2":{"ha":874,"x_min":93,"x_max":782,"o":"m 93 692 q 188 916 93 829 q 434 1003 283 1003 q 673 924 579 1003 q 767 722 767 844 q 720 566 767 643 q 547 366 672 489 l 342 160 l 342 149 l 782 149 l 782 0 l 102 0 l 102 121 l 429 455 q 562 608 529 557 q 595 711 595 659 q 548 817 595 775 q 429 859 501 859 q 304 813 352 859 q 257 692 257 767 l 257 690 l 93 690 l 93 692 z "},"3":{"ha":908,"x_min":89,"x_max":823,"o":"m 327 434 l 327 570 l 446 570 q 568 611 521 570 q 614 718 614 652 q 569 822 614 783 q 446 861 523 861 q 323 821 370 861 q 271 711 276 781 l 108 711 q 207 925 115 846 q 452 1003 299 1003 q 689 929 594 1003 q 783 742 783 854 q 735 595 783 656 q 606 517 688 534 l 606 505 q 765 430 707 494 q 823 269 823 366 q 717 59 823 142 q 452 -24 612 -24 q 195 56 294 -24 q 89 271 96 137 l 256 271 q 315 163 262 203 q 454 123 369 123 q 591 166 538 123 q 644 279 644 210 q 592 393 644 351 q 450 434 540 434 l 327 434 z "},"4":{"ha":934,"x_min":78,"x_max":856,"o":"m 556 0 l 556 182 l 78 182 l 78 338 q 477 979 197 558 l 724 979 l 724 330 l 856 330 l 856 182 l 724 182 l 724 0 l 556 0 m 240 336 l 240 326 l 559 326 l 559 836 l 549 836 q 240 336 391 602 z "},"5":{"ha":899,"x_min":104,"x_max":818,"o":"m 455 -24 q 207 58 304 -24 q 104 271 110 141 l 268 271 q 328 163 276 204 q 456 121 380 121 q 596 175 543 121 q 649 315 649 228 q 596 457 649 403 q 458 512 543 512 q 352 487 398 512 q 278 416 305 462 l 119 416 l 170 979 l 760 979 l 760 831 l 306 831 l 282 556 l 294 556 q 500 648 361 648 q 729 555 640 648 q 818 319 818 463 q 718 71 818 166 q 455 -24 618 -24 z "},"6":{"ha":926,"x_min":85,"x_max":840,"o":"m 477 -24 q 286 26 369 -24 q 155 170 203 75 q 85 479 85 292 q 190 864 85 726 q 482 1003 295 1003 q 710 930 616 1003 q 827 736 805 857 l 652 736 q 590 824 635 792 q 481 857 544 857 q 313 762 374 857 q 253 499 253 667 l 264 499 q 366 607 299 569 q 518 646 432 646 q 749 553 658 646 q 840 320 840 461 q 738 73 840 169 q 477 -24 636 -24 m 475 122 q 613 177 557 122 q 669 315 669 233 q 614 453 669 399 q 476 507 560 507 q 337 453 392 507 q 282 317 282 399 q 337 178 282 234 q 475 122 393 122 z "},"7":{"ha":823,"x_min":66,"x_max":747,"o":"m 145 0 l 570 821 l 570 831 l 66 831 l 66 979 l 747 979 l 747 829 l 328 0 l 145 0 z "},"8":{"ha":936,"x_min":88,"x_max":848,"o":"m 467 -24 q 194 55 299 -24 q 88 262 88 135 q 146 423 88 355 q 300 511 203 491 l 300 523 q 175 601 222 542 q 127 738 127 659 q 223 928 127 854 q 468 1003 319 1003 q 712 928 617 1003 q 808 738 808 854 q 761 601 808 659 q 636 523 715 543 l 636 511 q 790 426 732 494 q 848 262 848 357 q 742 55 848 135 q 467 -24 637 -24 m 468 112 q 611 158 556 112 q 667 277 667 203 q 611 396 667 350 q 468 441 556 441 q 324 396 379 441 q 269 277 269 350 q 324 158 269 203 q 468 112 379 112 m 347 616 q 370 596 347 616 q 468 576 393 576 q 589 616 543 576 q 635 721 635 656 q 589 828 635 787 q 468 869 543 869 q 346 828 393 869 q 300 721 300 787 q 347 616 300 656 z "},"9":{"ha":926,"x_min":86,"x_max":841,"o":"m 444 -24 q 216 49 310 -24 q 100 243 121 122 l 274 243 q 337 155 291 187 q 446 123 382 123 q 613 217 553 123 q 673 480 673 312 l 667 480 l 664 480 l 662 480 q 561 372 627 410 q 408 334 494 334 q 177 426 269 334 q 86 659 86 518 q 188 906 86 810 q 450 1003 290 1003 q 640 954 557 1003 q 772 810 722 904 q 841 500 841 687 q 736 115 841 254 q 444 -24 631 -24 m 312 527 q 339 500 312 527 q 450 473 366 473 q 589 526 534 473 q 644 662 644 580 q 589 801 644 745 q 451 857 533 857 q 313 802 369 857 q 258 665 258 747 q 312 527 258 581 z "}," ":{"ha":370,"x_min":0,"x_max":0,"o":""},"!":{"ha":472,"x_min":123,"x_max":349,"o":"m 142 979 l 330 979 l 314 323 l 157 323 l 142 979 m 318 12 q 303 -3 318 12 q 236 -18 288 -18 q 154 12 184 -18 q 123 90 123 41 q 154 169 123 140 q 236 199 184 199 q 318 169 288 199 q 349 90 349 140 q 318 12 349 41 z "},"\"":{"ha":659,"x_min":110,"x_max":549,"o":"m 257 581 l 110 581 l 110 979 l 257 979 l 257 581 m 549 581 l 402 581 l 402 979 l 549 979 l 549 581 z "},"#":{"ha":907,"x_min":24,"x_max":890,"o":"m 449 0 l 502 262 l 309 262 l 256 0 l 125 0 l 178 262 l 24 262 l 48 394 l 205 394 l 245 597 l 85 597 l 111 727 l 271 727 l 323 979 l 453 979 l 403 727 l 595 727 l 647 979 l 778 979 l 726 727 l 890 727 l 865 597 l 701 597 l 659 394 l 827 394 l 802 262 l 633 262 l 580 0 l 449 0 m 327 385 l 532 385 l 578 605 l 372 605 l 327 385 z "},"$":{"ha":938,"x_min":98,"x_max":840,"o":"m 519 -92 l 425 -92 l 425 -5 q 186 79 274 4 q 98 275 98 155 l 263 275 q 311 180 268 218 q 425 134 355 142 l 425 423 l 360 439 q 180 536 242 468 q 119 705 119 604 q 200 900 119 825 q 425 987 281 975 l 425 1080 l 519 1080 l 519 987 q 736 899 654 975 q 821 709 819 824 l 659 709 q 619 800 658 762 q 519 846 580 838 l 519 571 l 586 557 q 778 460 715 527 q 840 286 840 393 q 756 84 840 160 q 519 -4 672 9 l 519 -92 m 675 269 q 637 356 675 323 q 519 406 599 390 l 519 133 q 634 173 593 138 q 675 269 675 209 m 286 720 q 322 638 286 671 q 425 591 357 605 l 425 846 q 326 807 365 843 q 286 720 286 771 z "},"%":{"ha":1131,"x_min":47,"x_max":1083,"o":"m 430 931 q 460 898 430 931 q 491 755 491 864 q 430 579 491 647 q 270 511 368 511 q 109 579 171 511 q 47 755 47 647 q 109 931 47 864 q 270 999 171 999 q 430 931 369 999 m 270 626 q 332 661 309 626 q 355 756 355 696 q 333 851 355 817 q 270 885 310 885 q 207 850 230 885 q 184 756 184 816 q 207 661 184 696 q 270 626 231 626 m 310 0 l 143 0 l 514 511 l 826 979 l 992 979 l 615 460 l 310 0 m 1083 224 q 1022 47 1083 115 q 862 -20 960 -20 q 702 47 763 -20 q 640 224 640 115 q 702 400 640 332 q 862 467 763 467 q 1022 400 960 467 q 1083 224 1083 332 m 862 94 q 924 130 901 94 q 947 224 947 165 q 925 319 947 284 q 862 353 902 353 q 799 318 823 353 q 776 224 776 283 q 799 129 776 164 q 862 94 823 94 z "},"&":{"ha":1017,"x_min":75,"x_max":999,"o":"m 802 0 l 722 86 q 583 9 664 37 q 413 -18 503 -18 q 168 57 260 -18 q 75 258 75 133 q 120 407 75 342 q 261 523 165 471 q 281 534 264 524 q 302 545 298 543 q 208 666 236 614 q 180 771 180 718 q 257 933 180 869 q 448 997 333 997 q 639 934 564 997 q 713 773 713 871 q 665 636 713 698 q 510 519 616 575 l 718 298 q 757 508 757 370 l 757 545 l 904 545 l 904 500 q 822 188 904 306 l 999 0 l 802 0 m 355 435 q 237 271 237 372 q 290 157 237 201 q 430 113 343 113 q 542 134 488 113 q 629 189 596 154 l 386 450 q 355 435 373 445 m 427 604 q 535 679 503 642 q 567 762 567 715 q 534 844 567 812 q 449 875 501 875 q 365 843 397 875 q 332 762 332 812 q 353 691 332 726 q 427 604 374 656 z "},"'":{"ha":366,"x_min":110,"x_max":257,"o":"m 257 581 l 110 581 l 110 979 l 257 979 l 257 581 z "},"(":{"ha":572,"x_min":156,"x_max":506,"o":"m 156 410 q 354 1029 156 782 l 506 1029 q 380 759 431 934 q 330 410 330 583 q 380 61 330 237 q 506 -210 431 -114 l 354 -210 q 156 410 156 38 z "},")":{"ha":572,"x_min":66,"x_max":416,"o":"m 416 410 q 218 -210 416 38 l 66 -210 q 192 61 141 -114 q 242 410 242 237 q 191 759 242 583 q 66 1029 140 934 l 218 1029 q 416 410 416 782 z "},"*":{"ha":700,"x_min":92,"x_max":608,"o":"m 549 538 l 389 655 l 410 460 l 290 460 l 311 656 l 151 538 l 92 644 l 273 724 l 92 803 l 151 909 l 311 789 l 290 989 l 410 989 l 389 789 l 549 909 l 608 803 l 428 724 l 608 644 l 549 538 z "},"+":{"ha":938,"x_min":111,"x_max":827,"o":"m 543 321 l 543 37 l 396 37 l 396 321 l 111 321 l 111 469 l 396 469 l 396 753 l 543 753 l 543 469 l 827 469 l 827 321 l 543 321 z "},",":{"ha":457,"x_min":96,"x_max":329,"o":"m 212 -259 l 96 -259 l 159 151 l 329 151 l 212 -259 z "},"-":{"ha":667,"x_min":111,"x_max":556,"o":"m 556 315 l 111 315 l 111 473 l 556 473 l 556 315 z "},".":{"ha":457,"x_min":120,"x_max":337,"o":"m 229 -14 q 151 16 181 -14 q 120 93 120 47 q 151 170 120 140 q 229 200 181 200 q 307 170 277 200 q 337 93 337 140 q 307 16 337 47 q 229 -14 277 -14 z "},"/":{"ha":511,"x_min":0,"x_max":511,"o":"m 155 -210 l 0 -210 l 356 1029 l 511 1029 l 155 -210 z "},":":{"ha":457,"x_min":120,"x_max":337,"o":"m 229 -14 q 151 16 181 -14 q 120 93 120 47 q 151 170 120 140 q 229 200 181 200 q 307 170 277 200 q 337 93 337 140 q 307 16 337 47 q 229 -14 277 -14 m 229 494 q 151 525 181 494 q 120 601 120 555 q 151 678 120 648 q 229 708 181 708 q 307 678 277 708 q 337 601 337 648 q 307 525 337 555 q 229 494 277 494 z "},";":{"ha":457,"x_min":81,"x_max":337,"o":"m 229 494 q 151 525 181 494 q 120 601 120 555 q 151 678 120 648 q 229 708 181 708 q 307 678 277 708 q 337 601 337 648 q 307 525 337 555 q 229 494 277 494 m 201 -259 l 81 -259 l 146 151 l 317 151 l 201 -259 z "},"<":{"ha":938,"x_min":155,"x_max":783,"o":"m 783 634 l 325 408 l 325 397 l 783 171 l 783 -5 l 155 334 l 155 471 l 783 810 l 783 634 z "},"=":{"ha":938,"x_min":113,"x_max":825,"o":"m 825 170 l 113 170 l 113 319 l 825 319 l 825 170 m 825 473 l 113 473 l 113 621 l 825 621 l 825 473 z "},">":{"ha":938,"x_min":155,"x_max":783,"o":"m 155 634 l 155 810 l 783 471 l 783 334 l 155 -5 l 155 171 l 613 397 l 613 408 l 155 634 z "},"?":{"ha":751,"x_min":53,"x_max":680,"o":"m 53 709 q 140 910 57 833 q 370 987 223 987 q 594 915 509 987 q 680 730 680 843 q 536 498 680 584 q 446 427 470 459 q 422 345 422 395 l 422 306 l 265 306 l 264 352 q 290 477 260 427 q 391 570 320 528 q 479 641 455 608 q 504 724 504 674 q 465 811 504 777 q 361 845 425 845 q 256 808 296 845 q 212 709 216 772 l 53 709 m 351 -18 q 270 12 300 -18 q 239 90 239 41 q 270 169 239 140 q 351 199 300 199 q 433 169 403 199 q 464 90 464 140 q 433 12 464 41 q 351 -18 403 -18 z "},"@":{"ha":1283,"x_min":90,"x_max":1204,"o":"m 635 577 q 543 533 576 577 q 510 410 510 488 q 543 287 510 332 q 635 242 576 242 q 730 287 695 242 q 766 410 766 332 q 731 532 766 487 q 635 577 696 577 m 659 980 q 880 943 779 980 q 1053 841 982 906 q 1164 682 1124 775 q 1204 477 1204 588 q 1134 218 1204 314 q 942 123 1063 123 q 838 153 880 123 q 785 232 795 182 l 773 232 q 608 126 730 126 q 438 205 503 126 q 373 413 373 284 q 437 614 373 536 q 604 692 502 692 q 701 666 659 692 q 762 595 743 641 l 774 595 l 774 677 l 899 677 l 899 304 q 917 248 899 268 q 968 228 935 228 q 1057 294 1024 228 q 1090 471 1090 359 q 970 767 1090 654 q 652 879 850 879 q 330 748 455 879 q 204 410 204 616 q 332 76 204 200 q 677 -49 460 -49 q 877 -22 810 -49 l 877 -124 q 670 -151 787 -151 q 364 -82 496 -151 q 161 116 233 -12 q 90 414 90 244 q 162 709 90 580 q 362 909 233 838 q 659 980 492 980 z "},"A":{"ha":987,"x_min":48,"x_max":940,"o":"m 752 0 l 669 250 l 309 250 l 225 0 l 48 0 l 395 979 l 592 979 l 940 0 l 752 0 m 484 792 l 350 389 l 629 389 l 496 792 l 484 792 z "},"B":{"ha":945,"x_min":121,"x_max":876,"o":"m 539 0 l 121 0 l 121 979 l 530 979 q 748 913 669 979 q 827 734 827 848 q 777 597 827 657 q 653 525 727 536 l 653 513 q 814 438 752 503 q 876 278 876 374 q 786 75 876 149 q 539 0 696 0 m 296 840 l 296 567 l 465 567 q 606 602 557 567 q 654 703 654 637 q 610 804 654 768 q 487 840 566 840 l 296 840 m 296 139 l 499 139 q 646 178 596 139 q 696 292 696 217 q 645 403 696 365 q 492 441 593 441 l 296 441 l 296 139 z "},"C":{"ha":1017,"x_min":79,"x_max":943,"o":"m 529 -24 q 200 114 321 -24 q 79 489 79 252 q 200 865 79 728 q 528 1003 320 1003 q 811 905 695 1003 q 943 654 927 807 l 770 654 q 686 794 752 742 q 528 847 621 847 q 331 751 404 847 q 258 490 258 655 q 331 228 258 324 q 529 132 404 132 q 688 180 622 132 q 771 311 753 229 l 943 311 q 812 68 926 160 q 529 -24 698 -24 z "},"D":{"ha":1027,"x_min":121,"x_max":948,"o":"m 121 979 l 488 979 q 827 851 706 979 q 948 494 948 724 q 828 129 948 258 q 488 0 707 0 l 121 0 l 121 979 m 296 827 l 296 151 l 465 151 q 690 239 611 151 q 770 491 770 328 q 689 739 770 651 q 465 827 609 827 l 296 827 z "},"E":{"ha":850,"x_min":121,"x_max":754,"o":"m 754 151 l 754 0 l 121 0 l 121 979 l 754 979 l 754 827 l 296 827 l 296 568 l 729 568 l 729 425 l 296 425 l 296 151 l 754 151 z "},"F":{"ha":817,"x_min":121,"x_max":745,"o":"m 296 0 l 121 0 l 121 979 l 745 979 l 745 827 l 296 827 l 296 543 l 706 543 l 706 397 l 296 397 l 296 0 z "},"G":{"ha":1049,"x_min":79,"x_max":967,"o":"m 967 392 q 851 89 967 201 q 539 -24 735 -24 q 203 114 326 -24 q 79 490 79 252 q 203 864 79 724 q 536 1003 328 1003 q 821 913 706 1003 q 959 674 935 824 l 785 674 q 694 802 758 758 q 536 847 630 847 q 333 751 408 847 q 258 491 258 656 q 335 228 258 324 q 542 132 411 132 q 724 194 654 132 q 795 357 793 256 l 796 378 l 561 378 l 561 515 l 967 515 l 967 392 z "},"H":{"ha":1067,"x_min":121,"x_max":946,"o":"m 946 0 l 772 0 l 772 422 l 296 422 l 296 0 l 121 0 l 121 979 l 296 979 l 296 574 l 772 574 l 772 979 l 946 979 l 946 0 z "},"I":{"ha":416,"x_min":121,"x_max":296,"o":"m 296 0 l 121 0 l 121 979 l 296 979 l 296 0 z "},"J":{"ha":803,"x_min":54,"x_max":682,"o":"m 54 267 l 224 267 q 264 170 225 206 q 365 133 302 133 q 471 174 434 133 q 507 294 507 215 l 507 979 l 682 979 l 682 292 q 599 59 682 142 q 367 -24 515 -24 q 140 55 226 -24 q 54 267 54 134 z "},"K":{"ha":960,"x_min":121,"x_max":923,"o":"m 296 0 l 121 0 l 121 979 l 296 979 l 296 528 l 307 528 l 693 979 l 894 979 l 524 552 l 923 0 l 709 0 l 400 432 l 296 312 l 296 0 z "},"L":{"ha":812,"x_min":121,"x_max":745,"o":"m 745 153 l 745 0 l 121 0 l 121 979 l 296 979 l 296 153 l 745 153 z "},"M":{"ha":1252,"x_min":121,"x_max":1131,"o":"m 1131 0 l 968 0 l 968 688 l 959 688 l 688 38 l 564 38 l 293 688 l 283 688 l 283 0 l 121 0 l 121 979 l 326 979 l 620 266 l 632 266 l 926 979 l 1131 979 l 1131 0 z "},"N":{"ha":1054,"x_min":121,"x_max":932,"o":"m 290 0 l 121 0 l 121 979 l 273 979 l 753 313 l 764 313 l 764 979 l 932 979 l 932 0 l 781 0 l 301 666 l 290 666 l 290 0 z "},"O":{"ha":1084,"x_min":79,"x_max":1005,"o":"m 543 1003 q 881 865 756 1003 q 1005 490 1005 726 q 881 114 1005 253 q 543 -24 757 -24 q 204 114 328 -24 q 79 490 79 252 q 204 865 79 726 q 543 1003 330 1003 m 543 848 q 335 751 412 848 q 258 490 258 654 q 335 228 258 325 q 543 131 411 131 q 750 228 673 131 q 826 490 826 326 q 750 751 826 654 q 543 848 673 848 z "},"P":{"ha":916,"x_min":121,"x_max":844,"o":"m 121 979 l 515 979 q 753 887 662 979 q 844 648 844 795 q 750 412 844 503 q 508 321 656 321 l 296 321 l 296 0 l 121 0 l 121 979 m 296 832 l 296 466 l 469 466 q 615 513 563 466 q 667 648 667 561 q 615 785 667 737 q 469 832 564 832 l 296 832 z "},"Q":{"ha":1084,"x_min":79,"x_max":1005,"o":"m 543 -24 q 204 113 328 -24 q 79 489 79 251 q 204 865 79 726 q 543 1003 330 1003 q 880 865 755 1003 q 1005 489 1005 726 q 963 247 1005 353 q 844 79 922 142 l 966 -101 l 790 -101 l 715 3 q 543 -24 636 -24 m 543 131 q 626 142 585 131 l 509 309 l 677 309 l 739 232 q 826 489 826 313 q 749 751 826 654 q 543 848 673 848 q 335 751 412 848 q 258 489 258 654 q 335 228 258 324 q 543 131 412 131 z "},"R":{"ha":943,"x_min":121,"x_max":882,"o":"m 296 833 l 296 506 l 498 506 q 627 549 581 506 q 673 669 673 591 q 625 790 673 746 q 494 833 577 833 l 296 833 m 296 367 l 296 0 l 121 0 l 121 979 l 518 979 q 762 896 672 979 q 852 673 852 814 q 804 500 852 575 q 668 394 755 425 l 882 0 l 682 0 l 490 367 l 296 367 z "},"S":{"ha":918,"x_min":76,"x_max":842,"o":"m 76 266 l 247 266 q 315 161 255 200 q 469 122 376 122 q 611 162 555 122 q 667 263 667 201 q 625 349 667 316 q 488 404 583 382 l 361 433 q 164 531 229 463 q 100 707 100 598 q 200 922 100 841 q 465 1003 300 1003 q 720 923 618 1003 q 827 717 821 843 l 659 717 q 597 819 650 781 q 464 857 545 857 q 328 820 379 857 q 277 720 277 782 q 317 639 277 670 q 448 587 357 608 l 560 562 q 775 463 709 528 q 842 285 842 397 q 739 59 842 142 q 458 -24 635 -24 q 186 54 290 -24 q 76 266 83 133 z "},"T":{"ha":903,"x_min":63,"x_max":841,"o":"m 539 0 l 364 0 l 364 827 l 63 827 l 63 979 l 841 979 l 841 827 l 539 827 l 539 0 z "},"U":{"ha":1050,"x_min":123,"x_max":928,"o":"m 298 979 l 298 353 q 358 192 298 252 q 526 132 418 132 q 693 192 633 132 q 753 353 753 252 l 753 979 l 928 979 l 928 337 q 819 75 928 175 q 526 -24 709 -24 q 233 75 342 -24 q 123 337 123 175 l 123 979 l 298 979 z "},"V":{"ha":978,"x_min":48,"x_max":930,"o":"m 591 0 l 390 0 l 48 979 l 241 979 l 488 204 l 499 204 l 743 979 l 930 979 l 591 0 z "},"W":{"ha":1381,"x_min":60,"x_max":1321,"o":"m 685 693 l 487 0 l 322 0 l 60 979 l 242 979 l 410 250 l 420 250 l 612 979 l 768 979 l 963 250 l 972 250 l 1140 979 l 1321 979 l 1059 0 l 895 0 l 695 693 l 685 693 z "},"X":{"ha":987,"x_min":60,"x_max":928,"o":"m 60 0 l 380 493 l 63 979 l 270 979 l 493 619 l 505 619 l 731 979 l 928 979 l 600 489 l 922 0 l 720 0 l 493 351 l 481 351 l 251 0 l 60 0 z "},"Y":{"ha":958,"x_min":48,"x_max":909,"o":"m 566 0 l 391 0 l 391 382 l 48 979 l 240 979 l 473 560 l 485 560 l 718 979 l 909 979 l 566 382 l 566 0 z "},"Z":{"ha":931,"x_min":94,"x_max":838,"o":"m 94 0 l 94 119 l 608 816 l 608 827 l 108 827 l 108 979 l 825 979 l 825 859 l 312 163 l 312 151 l 838 151 l 838 0 l 94 0 z "},"[":{"ha":572,"x_min":175,"x_max":521,"o":"m 175 1029 l 521 1029 l 521 899 l 337 899 l 337 -80 l 521 -80 l 521 -210 l 175 -210 l 175 1029 z "},"\\":{"ha":511,"x_min":0,"x_max":511,"o":"m 354 -210 l 0 1029 l 157 1029 l 511 -210 l 354 -210 z "},"]":{"ha":572,"x_min":51,"x_max":397,"o":"m 397 1029 l 397 -210 l 51 -210 l 51 -80 l 235 -80 l 235 899 l 51 899 l 51 1029 l 397 1029 z "},"^":{"ha":703,"x_min":62,"x_max":642,"o":"m 345 826 l 212 526 l 62 526 l 272 958 l 431 958 l 642 526 l 490 526 l 357 826 l 345 826 z "},"_":{"ha":633,"x_min":-3,"x_max":637,"o":"m 637 -202 l -3 -202 l -3 -73 l 637 -73 l 637 -202 z "},"`":{"ha":743,"x_min":193,"x_max":549,"o":"m 549 865 l 385 865 l 193 1100 l 380 1100 l 549 865 z "},"a":{"ha":800,"x_min":62,"x_max":701,"o":"m 357 120 q 484 164 433 120 q 534 272 534 208 l 534 331 l 367 320 q 229 220 229 311 q 264 147 229 174 q 357 120 300 120 m 307 -12 q 130 49 199 -12 q 62 210 62 110 q 135 368 62 311 q 343 433 208 425 l 534 444 l 534 507 q 498 591 534 562 q 395 620 463 620 q 298 600 336 620 q 249 543 260 580 l 90 543 q 185 699 100 641 q 403 757 271 757 q 623 691 545 757 q 701 507 701 625 l 701 0 l 538 0 l 538 102 l 527 102 q 438 18 496 48 q 307 -12 380 -12 z "},"b":{"ha":886,"x_min":110,"x_max":820,"o":"m 515 -12 q 376 22 437 -12 q 283 117 315 56 l 272 117 l 272 0 l 110 0 l 110 1029 l 278 1029 l 278 624 l 290 624 q 379 719 319 684 q 515 754 439 754 q 738 651 656 754 q 820 371 820 549 q 738 91 820 194 q 515 -12 656 -12 m 598 547 q 573 579 598 547 q 463 611 549 611 q 326 546 376 611 q 275 371 275 481 q 326 195 275 260 q 463 131 376 131 q 598 195 549 131 q 647 371 647 259 q 598 547 647 483 z "},"c":{"ha":802,"x_min":66,"x_max":744,"o":"m 744 492 l 584 492 q 530 582 572 549 q 420 616 488 616 q 285 552 334 616 q 237 373 237 488 q 286 191 237 256 q 420 126 334 126 q 529 157 486 126 q 584 245 571 187 l 744 245 q 645 56 730 126 q 421 -15 559 -15 q 160 87 254 -15 q 66 373 66 190 q 160 655 66 554 q 420 757 254 757 q 645 685 560 757 q 744 492 730 612 z "},"d":{"ha":886,"x_min":66,"x_max":777,"o":"m 372 -12 q 149 91 231 -12 q 66 372 66 195 q 149 651 66 547 q 372 754 231 754 q 507 720 448 754 q 597 624 567 685 l 608 624 l 608 1029 l 777 1029 l 777 0 l 614 0 l 614 117 l 602 117 q 510 22 570 56 q 372 -12 449 -12 m 560 547 q 535 579 560 547 q 424 611 510 611 q 288 547 338 611 q 239 371 239 483 q 288 195 239 258 q 424 131 337 131 q 561 195 511 131 q 610 371 610 259 q 560 547 610 482 z "},"e":{"ha":819,"x_min":66,"x_max":753,"o":"m 414 623 q 290 574 339 623 q 236 443 241 524 l 585 443 q 536 574 583 526 q 414 623 490 623 m 587 204 l 746 204 q 634 44 722 102 q 416 -15 547 -15 q 160 87 253 -15 q 66 368 66 189 q 160 652 66 547 q 415 757 254 757 q 664 657 574 757 q 753 382 753 558 l 753 328 l 235 328 l 235 319 q 289 173 239 227 q 421 119 338 119 q 587 204 549 119 z "},"f":{"ha":543,"x_min":36,"x_max":491,"o":"m 157 0 l 157 603 l 36 603 l 36 737 l 157 737 l 157 815 q 216 981 157 926 q 397 1036 275 1036 q 491 1029 448 1036 l 491 905 q 433 909 469 909 q 349 883 375 909 q 323 804 323 858 l 323 737 l 484 737 l 484 603 l 325 603 l 325 0 l 157 0 z "},"g":{"ha":878,"x_min":65,"x_max":775,"o":"m 286 210 q 310 179 286 210 q 422 148 334 148 q 559 210 509 148 q 610 379 610 273 q 559 548 610 486 q 422 611 509 611 q 287 549 335 611 q 238 379 238 486 q 286 210 238 272 m 422 -282 q 192 -224 280 -282 q 93 -71 103 -167 l 262 -71 q 313 -132 270 -109 q 425 -154 356 -154 q 559 -115 511 -154 q 607 -7 607 -77 l 607 134 l 595 134 q 505 42 564 74 q 369 11 446 11 q 147 111 229 11 q 65 379 65 211 q 148 652 65 550 q 372 754 231 754 q 509 719 448 754 q 602 623 571 684 l 613 623 l 613 742 l 775 742 l 775 -3 q 680 -207 775 -132 q 422 -282 584 -282 z "},"h":{"ha":864,"x_min":110,"x_max":768,"o":"m 110 0 l 110 1029 l 275 1029 l 275 622 l 288 622 q 372 720 314 685 q 513 755 431 755 q 700 683 633 755 q 768 479 768 610 l 768 0 l 600 0 l 600 439 q 562 566 600 523 q 450 609 524 609 q 323 561 369 609 q 278 431 278 512 l 278 0 l 110 0 z "},"i":{"ha":378,"x_min":85,"x_max":292,"o":"m 105 0 l 105 742 l 273 742 l 273 0 l 105 0 m 189 863 q 114 889 143 863 q 85 956 85 915 q 114 1022 85 996 q 189 1048 143 1048 q 263 1022 235 1048 q 292 956 292 996 q 263 889 292 915 q 189 863 235 863 z "},"j":{"ha":378,"x_min":-18,"x_max":292,"o":"m 273 742 l 273 -28 q 23 -254 273 -254 q -18 -252 -3 -254 l -18 -119 q -7 -120 -17 -119 q 4 -120 2 -120 q 82 -98 60 -120 q 105 -25 105 -76 l 105 742 l 273 742 m 189 863 q 114 889 143 863 q 85 956 85 915 q 114 1022 85 996 q 189 1048 143 1048 q 263 1022 235 1048 q 292 956 292 996 q 263 889 292 915 q 189 863 235 863 z "},"k":{"ha":806,"x_min":110,"x_max":779,"o":"m 290 439 l 564 742 l 759 742 l 463 424 l 779 0 l 576 0 l 338 318 l 278 258 l 278 0 l 110 0 l 110 1029 l 278 1029 l 278 439 l 290 439 z "},"l":{"ha":387,"x_min":110,"x_max":278,"o":"m 110 0 l 110 1029 l 278 1029 l 278 0 l 110 0 z "},"m":{"ha":1259,"x_min":103,"x_max":1162,"o":"m 103 0 l 103 742 l 265 742 l 265 622 l 277 622 q 355 721 300 686 q 483 757 409 757 q 611 721 558 757 q 688 622 664 686 l 699 622 q 787 720 727 684 q 924 757 848 757 q 1099 691 1036 757 q 1162 510 1162 625 l 1162 0 l 995 0 l 995 467 q 859 610 995 610 q 754 568 794 610 q 714 462 714 526 l 714 0 l 551 0 l 551 479 q 515 575 551 541 q 416 610 479 610 q 313 565 354 610 q 271 451 271 519 l 271 0 l 103 0 z "},"n":{"ha":849,"x_min":103,"x_max":753,"o":"m 103 0 l 103 742 l 265 742 l 265 623 l 277 623 q 360 722 304 687 q 497 757 416 757 q 687 685 621 757 q 753 480 753 613 l 753 0 l 585 0 l 585 440 q 435 610 585 610 q 315 562 359 610 q 271 432 271 514 l 271 0 l 103 0 z "},"o":{"ha":846,"x_min":66,"x_max":780,"o":"m 423 -15 q 161 88 256 -15 q 66 371 66 191 q 162 653 66 550 q 423 757 258 757 q 685 654 589 757 q 780 371 780 551 q 685 88 780 191 q 423 -15 589 -15 m 287 190 q 311 158 287 190 q 423 126 335 126 q 559 190 511 126 q 607 371 607 254 q 559 551 607 487 q 423 616 511 616 q 287 551 335 616 q 239 371 239 487 q 287 190 239 254 z "},"p":{"ha":879,"x_min":103,"x_max":813,"o":"m 507 754 q 731 652 648 754 q 813 371 813 549 q 731 91 813 193 q 509 -12 650 -12 q 371 21 430 -12 q 283 113 311 54 l 271 113 l 271 -247 l 103 -247 l 103 742 l 265 742 l 265 619 l 277 619 q 370 718 309 682 q 507 754 431 754 m 454 131 q 591 195 542 131 q 640 371 640 258 q 591 547 640 484 q 455 611 542 611 q 319 547 369 611 q 268 371 269 482 q 318 195 269 260 q 454 131 368 131 z "},"q":{"ha":879,"x_min":66,"x_max":777,"o":"m 372 754 q 509 718 448 754 q 602 619 571 682 l 613 619 l 613 742 l 777 742 l 777 -247 l 607 -247 l 607 113 l 595 113 q 505 20 563 52 q 370 -12 448 -12 q 148 91 229 -12 q 66 372 66 195 q 149 651 66 547 q 372 754 232 754 m 422 131 q 560 195 509 131 q 610 371 610 260 q 560 546 610 481 q 423 611 509 611 q 288 547 337 611 q 239 371 239 484 q 288 194 239 258 q 422 131 336 131 z "},"r":{"ha":577,"x_min":103,"x_max":543,"o":"m 103 0 l 103 742 l 265 742 l 265 627 l 277 627 q 347 718 292 682 q 473 754 401 754 q 543 747 518 754 l 543 591 q 456 600 517 600 q 323 553 374 600 q 271 429 271 506 l 271 0 l 103 0 z "},"s":{"ha":765,"x_min":67,"x_max":698,"o":"m 86 530 q 169 693 86 630 q 383 757 252 757 q 594 701 515 757 q 682 544 673 645 l 524 544 q 478 607 515 584 q 384 629 442 629 q 288 604 326 629 q 250 539 250 579 q 276 488 250 508 q 359 454 303 467 l 490 425 q 648 352 597 400 q 698 222 698 304 q 610 51 698 116 q 382 -15 522 -15 q 160 42 243 -15 q 67 200 77 99 l 233 200 q 284 135 245 158 q 386 113 323 113 q 490 138 450 113 q 530 205 530 163 q 427 289 530 267 l 296 319 q 137 395 189 344 q 86 530 86 446 z "},"t":{"ha":548,"x_min":39,"x_max":483,"o":"m 157 924 l 324 924 l 324 737 l 483 737 l 483 603 l 324 603 l 324 239 q 349 158 324 184 q 426 133 373 133 q 483 136 449 133 l 483 5 q 395 -3 441 -3 q 212 43 267 -3 q 157 198 157 90 l 157 603 l 39 603 l 39 737 l 157 737 l 157 924 z "},"u":{"ha":852,"x_min":96,"x_max":749,"o":"m 749 742 l 749 0 l 587 0 l 587 118 l 575 118 q 353 -15 519 -15 q 164 57 232 -15 q 96 260 96 130 l 96 742 l 264 742 l 264 302 q 300 175 264 216 q 412 133 336 133 q 537 180 493 133 q 581 310 581 227 l 581 742 l 749 742 z "},"v":{"ha":789,"x_min":39,"x_max":750,"o":"m 750 742 l 488 0 l 302 0 l 39 742 l 219 742 l 391 168 l 402 168 l 572 742 l 750 742 z "},"w":{"ha":1140,"x_min":43,"x_max":1097,"o":"m 1097 742 l 896 0 l 719 0 l 574 534 l 563 534 l 419 0 l 244 0 l 43 742 l 213 742 l 336 188 l 348 188 l 490 742 l 651 742 l 795 188 l 806 188 l 929 742 l 1097 742 z "},"x":{"ha":779,"x_min":45,"x_max":734,"o":"m 392 256 l 380 256 l 229 0 l 47 0 l 288 368 l 45 742 l 240 742 l 388 487 l 399 487 l 546 742 l 731 742 l 492 375 l 734 0 l 544 0 l 392 256 z "},"y":{"ha":802,"x_min":41,"x_max":761,"o":"m 184 -269 q 118 -267 132 -269 l 118 -129 q 164 -132 131 -132 q 249 -109 218 -132 q 297 -36 281 -87 l 306 -3 l 41 742 l 225 742 l 399 163 l 410 163 l 583 742 l 761 742 l 493 -24 q 378 -215 446 -161 q 184 -269 310 -269 z "},"z":{"ha":773,"x_min":86,"x_max":687,"o":"m 86 0 l 86 105 l 480 595 l 480 606 l 90 606 l 90 742 l 681 742 l 681 627 l 301 147 l 301 136 l 687 136 l 687 0 l 86 0 z "},"{":{"ha":572,"x_min":51,"x_max":521,"o":"m 201 401 q 326 350 283 392 q 368 235 368 309 l 368 58 q 397 -48 368 -17 q 492 -80 425 -80 l 521 -80 l 521 -210 l 475 -210 q 272 -150 336 -210 q 208 39 208 -90 l 208 185 q 172 293 208 262 q 51 326 137 325 l 51 496 q 172 528 137 496 q 208 636 208 559 l 208 782 q 272 970 208 911 q 475 1029 336 1029 l 521 1029 l 521 899 l 492 899 q 397 868 425 899 q 368 762 368 836 l 368 587 q 326 472 368 513 q 201 421 283 430 l 201 401 z "},"|":{"ha":511,"x_min":178,"x_max":332,"o":"m 332 -210 l 178 -210 l 178 1029 l 332 1029 l 332 -210 z "},"}":{"ha":572,"x_min":51,"x_max":521,"o":"m 371 401 l 371 421 q 204 587 204 439 l 204 762 q 176 868 204 836 q 80 899 147 899 l 51 899 l 51 1029 l 96 1029 q 300 970 236 1029 q 364 782 364 911 l 364 636 q 399 528 364 559 q 521 496 435 496 l 521 326 q 399 293 435 325 q 364 185 364 262 l 364 39 q 300 -150 364 -90 q 96 -210 236 -210 l 51 -210 l 51 -80 l 80 -80 q 175 -48 146 -80 q 204 58 204 -16 l 204 235 q 371 401 204 383 z "},"~":{"ha":825,"x_min":58,"x_max":766,"o":"m 381 425 q 326 472 348 458 q 283 485 304 485 q 197 364 201 485 l 59 364 q 112 565 58 495 q 273 635 165 635 q 358 615 318 635 q 446 548 397 595 q 500 502 478 515 q 543 489 522 489 q 629 610 623 489 l 766 610 q 555 339 766 339 q 468 359 509 339 q 381 425 428 379 z "}," ":{"ha":370,"x_min":0,"x_max":0,"o":""},"¡":{"ha":472,"x_min":123,"x_max":349,"o":"m 142 -223 l 157 433 l 314 433 l 330 -223 l 142 -223 m 318 587 q 303 572 318 587 q 236 557 288 557 q 154 587 184 557 q 123 666 123 616 q 154 744 123 715 q 236 773 184 773 q 318 744 288 773 q 349 666 349 715 q 318 587 349 616 z "},"¢":{"ha":938,"x_min":108,"x_max":828,"o":"m 828 353 q 742 182 816 250 q 552 98 667 115 l 552 -22 l 405 -22 l 405 101 q 189 226 271 125 q 108 481 108 328 q 189 733 108 633 q 405 857 271 834 l 405 981 l 552 981 l 552 860 q 740 772 665 842 q 828 601 816 703 l 668 601 q 602 691 651 658 q 486 724 553 724 q 337 658 396 724 q 279 481 279 592 q 337 301 279 368 q 485 235 396 235 q 607 266 559 235 q 668 353 654 297 l 828 353 z "},"£":{"ha":938,"x_min":92,"x_max":839,"o":"m 337 149 l 839 149 l 839 0 l 92 0 l 92 141 q 241 220 183 157 q 299 367 299 283 q 291 434 299 401 l 94 434 l 94 562 l 249 562 q 208 731 208 668 q 306 931 208 859 q 576 1003 403 1003 q 697 993 637 1003 q 793 968 758 983 l 793 824 q 706 849 762 839 q 595 859 650 859 q 439 820 495 859 q 384 711 384 781 q 418 562 384 654 l 713 562 l 713 434 l 459 434 q 465 377 465 406 q 429 247 465 305 q 337 161 393 188 l 337 149 z "},"¤":{"ha":938,"x_min":115,"x_max":824,"o":"m 352 558 q 328 534 352 558 q 303 441 303 509 q 352 325 303 374 q 469 276 401 276 q 587 325 538 276 q 636 441 636 374 q 587 558 636 509 q 469 607 538 607 q 352 558 401 607 m 824 698 l 719 592 q 760 441 760 523 q 719 291 760 360 l 824 185 l 726 85 l 620 191 q 469 148 551 148 q 318 191 387 148 l 212 85 l 115 185 l 220 291 q 179 441 179 360 q 220 592 179 523 l 115 698 l 212 798 l 318 692 q 469 735 387 735 q 620 692 551 735 l 726 798 l 824 698 z "},"¥":{"ha":938,"x_min":39,"x_max":899,"o":"m 742 155 l 556 155 l 556 0 l 382 0 l 382 155 l 197 155 l 197 262 l 382 262 l 382 360 l 197 360 l 197 467 l 336 467 l 39 979 l 231 979 l 463 560 l 475 560 l 708 979 l 899 979 l 602 467 l 742 467 l 742 360 l 556 360 l 556 262 l 742 262 l 742 155 z "},"¦":{"ha":511,"x_min":178,"x_max":332,"o":"m 332 534 l 178 534 l 178 1029 l 332 1029 l 332 534 m 332 -210 l 178 -210 l 178 285 l 332 285 l 332 -210 z "},"§":{"ha":700,"x_min":54,"x_max":646,"o":"m 311 294 l 378 274 q 460 308 427 277 q 493 380 493 338 q 466 443 493 416 q 390 481 439 469 l 322 503 q 241 467 274 498 q 208 395 208 436 q 235 334 208 360 q 311 294 262 307 m 351 -187 q 148 -126 228 -187 q 62 31 67 -66 l 214 31 q 259 -35 220 -9 q 355 -60 298 -60 q 450 -34 413 -60 q 486 33 486 -8 q 459 87 486 66 q 373 126 433 109 l 262 161 q 104 243 153 195 q 54 363 54 291 q 94 474 54 427 q 203 543 133 522 l 203 555 q 95 632 130 587 q 60 741 60 677 q 139 902 60 841 q 348 963 218 963 q 546 905 469 963 q 631 749 623 847 l 481 749 q 438 812 475 789 q 346 836 401 836 q 253 810 288 836 q 217 743 217 785 q 243 689 217 711 q 329 650 269 667 l 437 614 q 596 533 546 581 q 646 417 646 486 q 601 297 646 350 q 483 228 555 245 l 483 216 q 603 146 564 190 q 642 37 642 103 q 561 -125 642 -62 q 351 -187 480 -187 z "},"¨":{"ha":777,"x_min":140,"x_max":636,"o":"m 307 885 q 293 872 307 885 q 237 858 279 858 q 168 885 196 858 q 140 954 140 913 q 168 1022 140 994 q 237 1049 196 1049 q 307 1022 279 1049 q 334 954 334 994 q 307 885 334 913 m 608 885 q 594 872 608 885 q 539 858 581 858 q 470 885 498 858 q 442 954 442 913 q 470 1022 442 994 q 539 1049 498 1049 q 608 1022 581 1049 q 636 954 636 994 q 608 885 636 913 z "},"©":{"ha":1181,"x_min":55,"x_max":1126,"o":"m 591 -100 q 381 -58 480 -100 q 210 55 281 -16 q 97 226 138 126 q 55 436 55 326 q 126 707 55 584 q 320 901 197 830 q 591 972 443 972 q 801 930 702 972 q 972 817 901 888 q 1085 647 1043 746 q 1126 436 1126 547 q 1056 164 1126 288 q 862 -30 985 41 q 591 -100 739 -100 m 591 6 q 760 40 680 6 q 897 131 840 73 q 988 268 954 188 q 1021 436 1021 347 q 965 654 1021 555 q 809 809 908 753 q 591 866 710 866 q 421 832 501 866 q 284 742 342 799 q 194 605 227 684 q 160 436 160 525 q 217 218 160 317 q 373 63 274 119 q 591 6 472 6 m 842 517 l 727 517 q 684 585 718 559 q 602 610 650 610 q 499 564 537 610 q 461 437 461 517 q 499 309 461 355 q 602 262 536 262 q 685 285 652 262 q 727 351 718 309 l 842 351 q 767 212 831 263 q 602 161 702 161 q 410 235 481 161 q 339 437 339 310 q 410 637 339 563 q 601 711 481 711 q 765 658 699 711 q 842 517 831 605 z "},"ª":{"ha":677,"x_min":62,"x_max":606,"o":"m 319 460 q 415 494 377 460 q 454 580 454 528 l 454 634 l 326 625 q 216 543 216 617 q 244 482 216 505 q 319 460 272 460 m 265 341 q 117 394 173 341 q 62 534 62 446 q 123 667 62 618 q 302 723 185 716 l 452 732 l 452 784 q 423 846 452 824 q 341 869 393 869 q 269 852 297 869 q 234 806 240 836 l 85 806 q 162 943 92 892 q 347 993 233 993 q 537 936 468 993 q 606 780 606 880 l 606 355 l 456 355 l 456 433 l 445 433 q 374 366 421 390 q 265 341 326 341 z "},"«":{"ha":967,"x_min":112,"x_max":855,"o":"m 280 388 l 280 380 l 516 101 l 347 101 l 112 380 l 112 386 l 349 666 l 516 666 l 280 388 m 619 388 l 619 380 l 855 101 l 686 101 l 450 380 l 450 386 l 688 666 l 855 666 l 619 388 z "},"¬":{"ha":938,"x_min":127,"x_max":812,"o":"m 812 469 l 812 57 l 665 57 l 665 321 l 127 321 l 127 469 l 812 469 z "},"®":{"ha":854,"x_min":70,"x_max":785,"o":"m 607 348 q 566 324 607 348 q 427 300 525 300 q 247 348 330 300 q 117 478 165 395 q 70 658 70 560 q 98 797 70 731 q 174 911 126 863 q 288 987 222 959 q 427 1015 354 1015 q 567 987 500 1015 q 681 911 633 959 q 756 797 728 863 q 785 658 785 731 q 737 478 785 560 q 607 348 690 395 m 233 464 q 273 424 233 464 q 427 384 313 384 q 622 464 542 384 q 702 658 702 543 q 622 852 702 772 q 427 931 543 931 q 233 852 313 931 q 153 658 153 772 q 233 464 153 543 m 366 497 l 288 497 l 288 830 l 459 830 q 546 801 512 830 q 580 725 580 771 q 561 660 580 686 q 507 625 542 634 l 595 497 l 502 497 l 422 613 l 366 613 l 366 497 m 366 764 l 366 676 l 439 676 q 495 720 495 676 q 441 764 495 764 l 366 764 z "},"¯":{"ha":711,"x_min":114,"x_max":597,"o":"m 597 996 l 597 885 l 114 885 l 114 996 l 597 996 z "},"°":{"ha":621,"x_min":75,"x_max":546,"o":"m 310 521 q 142 589 210 521 q 75 756 75 657 q 142 923 75 855 q 310 991 210 991 q 478 923 411 991 q 546 756 546 855 q 478 589 546 657 q 310 521 411 521 m 310 629 q 402 665 367 629 q 438 756 438 702 q 402 847 438 811 q 310 884 367 884 q 218 847 254 884 q 183 756 183 811 q 218 665 183 702 q 310 629 254 629 z "},"±":{"ha":938,"x_min":128,"x_max":810,"o":"m 809 58 l 128 58 l 128 192 l 809 192 l 809 58 m 541 444 l 541 271 l 397 271 l 397 444 l 128 444 l 128 574 l 397 574 l 397 747 l 541 747 l 541 574 l 810 574 l 810 444 l 541 444 z "},"²":{"ha":597,"x_min":58,"x_max":536,"o":"m 58 1040 q 123 1191 58 1133 q 296 1248 189 1248 q 464 1197 400 1248 q 527 1062 527 1145 q 493 955 527 1006 q 374 833 459 904 l 279 745 l 279 733 l 536 733 l 536 608 l 68 608 l 68 717 l 262 897 q 353 988 330 958 q 376 1049 376 1019 q 351 1104 376 1082 q 290 1126 327 1126 q 225 1102 250 1126 q 201 1040 201 1078 l 201 1037 l 58 1037 l 58 1040 z "},"³":{"ha":621,"x_min":59,"x_max":563,"o":"m 229 872 l 229 979 l 305 979 q 369 999 345 979 q 393 1053 393 1019 q 369 1105 393 1086 q 304 1125 345 1125 q 237 1104 262 1125 q 210 1046 212 1082 l 67 1046 q 134 1192 68 1137 q 307 1246 199 1246 q 474 1199 410 1246 q 539 1076 539 1152 q 507 984 539 1023 q 422 937 475 946 l 422 925 q 525 880 486 920 q 563 779 563 840 q 492 644 563 696 q 308 591 420 591 q 129 647 197 591 q 59 795 60 703 l 203 795 q 234 738 206 760 q 307 716 262 716 q 379 738 351 716 q 407 795 407 760 q 380 851 407 831 q 307 872 354 872 l 229 872 z "},"´":{"ha":743,"x_min":182,"x_max":539,"o":"m 347 865 l 182 865 l 351 1100 l 539 1100 l 347 865 z "},"µ":{"ha":899,"x_min":103,"x_max":847,"o":"m 103 -247 l 103 742 l 271 742 l 271 302 q 418 133 271 133 q 536 181 491 133 q 581 309 581 229 l 581 742 l 749 742 l 749 214 q 763 148 749 166 q 812 130 777 130 q 847 134 823 130 l 847 3 q 771 -7 814 -7 q 654 21 693 -7 q 600 115 614 49 l 597 124 l 586 124 q 523 20 566 55 q 410 -15 480 -15 q 283 50 317 -15 l 271 50 l 271 -247 l 103 -247 z "},"¶":{"ha":1008,"x_min":101,"x_max":897,"o":"m 623 -166 l 457 -166 l 457 333 l 444 333 q 199 425 297 333 q 101 652 101 516 q 198 886 101 794 q 444 979 295 979 l 623 979 l 623 -166 m 732 -166 l 732 979 l 897 979 l 897 -166 l 732 -166 z "},"·":{"ha":467,"x_min":123,"x_max":345,"o":"m 313 420 q 298 405 313 420 q 234 389 282 389 q 154 420 186 389 q 123 498 123 452 q 154 576 123 545 q 234 608 185 608 q 313 576 282 608 q 345 498 345 545 q 313 420 345 452 z "},"¸":{"ha":743,"x_min":248,"x_max":522,"o":"m 272 -160 l 272 -90 l 317 17 l 416 17 l 416 0 l 385 -79 q 486 -112 450 -81 q 522 -196 522 -142 q 476 -295 522 -258 q 347 -331 429 -331 q 248 -319 290 -331 l 248 -234 q 328 -243 277 -243 q 405 -200 405 -243 q 383 -170 405 -179 q 312 -160 361 -160 l 272 -160 z "},"¹":{"ha":492,"x_min":58,"x_max":372,"o":"m 218 608 l 218 1084 l 206 1084 q 130 1034 199 1081 q 58 985 60 986 l 58 1124 q 216 1232 107 1160 l 372 1232 l 372 608 l 218 608 z "},"º":{"ha":730,"x_min":62,"x_max":667,"o":"m 587 428 q 547 384 587 428 q 365 341 507 341 q 143 428 223 341 q 62 667 62 514 q 143 905 62 818 q 365 991 224 991 q 587 905 506 991 q 667 667 667 818 q 587 428 667 514 m 260 521 q 278 495 260 521 q 365 469 297 469 q 470 521 433 469 q 507 667 507 572 q 470 813 507 761 q 365 865 433 865 q 260 812 297 865 q 222 667 222 760 q 260 521 222 572 z "},"»":{"ha":967,"x_min":112,"x_max":855,"o":"m 349 388 l 112 666 l 279 666 l 517 386 l 517 380 l 281 101 l 112 101 l 349 380 l 349 388 m 687 388 l 451 666 l 618 666 l 855 386 l 855 380 l 620 101 l 451 101 l 687 380 l 687 388 z "},"¼":{"ha":1447,"x_min":58,"x_max":1390,"o":"m 218 355 l 218 831 l 206 831 q 130 781 199 828 q 58 732 60 733 l 58 871 q 216 979 107 907 l 372 979 l 372 355 l 218 355 m 529 0 l 370 0 l 623 510 l 829 979 l 988 979 l 738 481 l 529 0 m 1168 0 l 1168 100 l 848 100 l 848 227 q 933 374 881 291 q 1097 623 985 457 l 1312 623 l 1312 222 l 1390 222 l 1390 104 l 1308 104 l 1308 0 l 1168 0 m 984 221 l 984 218 l 1168 218 l 1168 505 l 1161 505 q 984 221 1029 305 z "},"½":{"ha":1449,"x_min":58,"x_max":1388,"o":"m 218 355 l 218 831 l 206 831 q 130 781 199 828 q 58 732 60 733 l 58 871 q 216 979 107 907 l 372 979 l 372 355 l 218 355 m 529 0 l 370 0 l 623 510 l 829 979 l 988 979 l 738 481 l 529 0 m 909 431 q 975 582 909 525 q 1147 640 1040 640 q 1315 588 1251 640 q 1378 454 1378 537 q 1344 347 1378 398 q 1225 224 1310 296 l 1130 137 l 1130 125 l 1388 125 l 1388 0 l 919 0 l 919 109 l 1113 288 q 1204 380 1181 349 q 1227 441 1227 410 q 1202 496 1227 474 q 1141 517 1178 517 q 1076 494 1101 517 q 1052 431 1052 470 l 1052 429 l 909 429 l 909 431 z "},"¾":{"ha":1563,"x_min":59,"x_max":1506,"o":"m 229 619 l 229 726 l 305 726 q 369 746 345 726 q 393 800 393 766 q 369 852 393 833 q 304 872 345 872 q 237 851 262 872 q 210 793 212 829 l 67 793 q 134 939 68 884 q 307 994 199 994 q 474 946 410 994 q 539 823 539 899 q 507 731 539 770 q 422 684 475 693 l 422 672 q 525 627 486 667 q 563 526 563 587 q 492 391 563 444 q 308 338 420 338 q 129 394 197 338 q 59 543 60 450 l 203 543 q 234 485 206 507 q 307 463 262 463 q 379 485 351 463 q 407 542 407 507 q 380 598 407 578 q 307 619 354 619 l 229 619 m 645 0 l 486 0 l 739 510 l 945 979 l 1104 979 l 854 481 l 645 0 m 1284 0 l 1284 100 l 964 100 l 964 227 q 1049 374 997 291 q 1213 623 1101 457 l 1428 623 l 1428 222 l 1506 222 l 1506 104 l 1424 104 l 1424 0 l 1284 0 m 1100 221 l 1100 218 l 1284 218 l 1284 505 l 1277 505 q 1100 221 1145 305 z "},"¿":{"ha":751,"x_min":71,"x_max":699,"o":"m 699 46 q 612 -155 695 -79 q 382 -232 528 -232 q 157 -160 243 -232 q 71 26 71 -87 q 215 256 71 170 q 305 328 281 296 q 328 411 328 360 l 328 450 l 486 450 l 486 404 q 461 278 491 328 q 360 185 431 228 q 272 114 296 147 q 248 33 248 81 q 287 -55 248 -21 q 391 -90 326 -90 q 495 -53 455 -90 q 539 46 535 -16 l 699 46 m 482 586 q 467 572 482 586 q 400 557 452 557 q 318 586 349 557 q 288 665 288 616 q 318 743 288 713 q 400 773 349 773 q 482 743 452 773 q 513 665 513 713 q 482 586 513 616 z "},"À":{"ha":987,"x_min":48,"x_max":940,"o":"m 752 0 l 669 250 l 309 250 l 225 0 l 48 0 l 395 979 l 592 979 l 940 0 l 752 0 m 484 792 l 350 389 l 629 389 l 496 792 l 484 792 m 413 1075 l 195 1285 l 387 1285 l 583 1075 l 413 1075 z "},"Á":{"ha":987,"x_min":48,"x_max":940,"o":"m 752 0 l 669 250 l 309 250 l 225 0 l 48 0 l 395 979 l 592 979 l 940 0 l 752 0 m 484 792 l 350 389 l 629 389 l 496 792 l 484 792 m 576 1075 l 407 1075 l 602 1285 l 794 1285 l 576 1075 z "},"Â":{"ha":987,"x_min":48,"x_max":940,"o":"m 752 0 l 669 250 l 309 250 l 225 0 l 48 0 l 395 979 l 592 979 l 940 0 l 752 0 m 484 792 l 350 389 l 629 389 l 496 792 l 484 792 m 415 1293 l 572 1293 l 769 1075 l 605 1075 l 500 1199 l 488 1199 l 382 1075 l 218 1075 l 415 1293 z "},"Ã":{"ha":987,"x_min":48,"x_max":940,"o":"m 752 0 l 669 250 l 309 250 l 225 0 l 48 0 l 395 979 l 592 979 l 940 0 l 752 0 m 484 792 l 350 389 l 629 389 l 496 792 l 484 792 m 593 1067 q 527 1083 557 1067 q 478 1118 496 1099 q 440 1153 460 1137 q 403 1168 420 1168 q 340 1069 341 1168 l 224 1069 q 271 1222 224 1165 q 395 1279 317 1279 q 449 1269 424 1279 q 492 1244 474 1259 q 524 1214 509 1229 q 555 1189 539 1199 q 585 1179 570 1179 q 647 1277 646 1179 l 762 1277 q 716 1124 762 1181 q 593 1067 671 1067 z "},"Ä":{"ha":987,"x_min":48,"x_max":940,"o":"m 752 0 l 669 250 l 309 250 l 225 0 l 48 0 l 395 979 l 592 979 l 940 0 l 752 0 m 484 792 l 350 389 l 629 389 l 496 792 l 484 792 m 412 1097 q 398 1083 412 1097 q 342 1069 384 1069 q 273 1097 301 1069 q 245 1165 245 1124 q 273 1233 245 1206 q 342 1261 301 1261 q 412 1233 384 1261 q 439 1165 439 1206 q 412 1097 439 1124 m 713 1097 q 700 1083 713 1097 q 644 1069 686 1069 q 575 1097 603 1069 q 547 1165 547 1124 q 575 1233 547 1206 q 644 1261 603 1261 q 713 1233 686 1261 q 741 1165 741 1206 q 713 1097 741 1124 z "},"Å":{"ha":987,"x_min":48,"x_max":940,"o":"m 752 0 l 669 250 l 309 250 l 225 0 l 48 0 l 395 979 l 592 979 l 940 0 l 752 0 m 484 792 l 350 389 l 629 389 l 496 792 l 484 792 m 592 1088 q 572 1069 592 1088 q 494 1050 552 1050 q 396 1088 435 1050 q 356 1185 356 1127 q 396 1280 356 1242 q 494 1319 435 1319 q 592 1280 552 1319 q 631 1185 631 1242 q 592 1088 631 1127 m 446 1137 q 455 1128 446 1137 q 494 1118 465 1118 q 542 1137 523 1118 q 561 1184 561 1156 q 542 1232 561 1213 q 494 1251 523 1251 q 446 1232 465 1251 q 427 1184 427 1213 q 446 1137 427 1156 z "},"Æ":{"ha":1373,"x_min":48,"x_max":1277,"o":"m 578 838 l 394 409 l 671 409 l 671 838 l 578 838 m 671 0 l 671 270 l 340 270 l 222 0 l 48 0 l 465 979 l 1277 979 l 1277 827 l 834 827 l 834 564 l 1252 564 l 1252 420 l 834 420 l 834 151 l 1277 151 l 1277 0 l 671 0 z "},"Ç":{"ha":1017,"x_min":79,"x_max":943,"o":"m 771 311 l 943 311 q 828 82 928 172 q 578 -22 729 -9 l 555 -79 q 657 -112 621 -81 q 693 -196 693 -142 q 647 -295 693 -258 q 517 -331 600 -331 q 418 -319 460 -331 l 418 -234 q 498 -243 448 -243 q 576 -200 576 -243 q 554 -170 576 -179 q 483 -160 532 -160 l 443 -160 l 443 -90 l 471 -22 q 184 133 288 -2 q 79 489 79 269 q 200 865 79 728 q 528 1003 320 1003 q 811 905 695 1003 q 943 654 927 807 l 770 654 q 686 794 752 742 q 528 847 621 847 q 331 751 404 847 q 258 490 258 655 q 331 228 258 324 q 529 132 404 132 q 688 180 622 132 q 771 311 753 229 z "},"È":{"ha":850,"x_min":121,"x_max":754,"o":"m 754 151 l 754 0 l 121 0 l 121 979 l 754 979 l 754 827 l 296 827 l 296 568 l 729 568 l 729 425 l 296 425 l 296 151 l 754 151 m 357 1075 l 139 1285 l 331 1285 l 526 1075 l 357 1075 z "},"É":{"ha":850,"x_min":121,"x_max":754,"o":"m 754 151 l 754 0 l 121 0 l 121 979 l 754 979 l 754 827 l 296 827 l 296 568 l 729 568 l 729 425 l 296 425 l 296 151 l 754 151 m 520 1075 l 351 1075 l 546 1285 l 738 1285 l 520 1075 z "},"Ê":{"ha":850,"x_min":121,"x_max":754,"o":"m 754 151 l 754 0 l 121 0 l 121 979 l 754 979 l 754 827 l 296 827 l 296 568 l 729 568 l 729 425 l 296 425 l 296 151 l 754 151 m 359 1293 l 516 1293 l 713 1075 l 549 1075 l 444 1199 l 431 1199 l 326 1075 l 162 1075 l 359 1293 z "},"Ë":{"ha":850,"x_min":121,"x_max":754,"o":"m 754 151 l 754 0 l 121 0 l 121 979 l 754 979 l 754 827 l 296 827 l 296 568 l 729 568 l 729 425 l 296 425 l 296 151 l 754 151 m 355 1097 q 341 1083 355 1097 q 286 1069 328 1069 q 217 1097 245 1069 q 189 1165 189 1124 q 217 1233 189 1206 q 286 1261 245 1261 q 355 1233 328 1261 q 383 1165 383 1206 q 355 1097 383 1124 m 657 1097 q 643 1083 657 1097 q 588 1069 629 1069 q 519 1097 547 1069 q 491 1165 491 1124 q 519 1233 491 1206 q 588 1261 547 1261 q 657 1233 629 1261 q 685 1165 685 1206 q 657 1097 685 1124 z "},"Ì":{"ha":416,"x_min":-90,"x_max":297,"o":"m 296 0 l 121 0 l 121 979 l 296 979 l 296 0 m 127 1075 l -90 1285 l 102 1285 l 297 1075 l 127 1075 z "},"Í":{"ha":416,"x_min":121,"x_max":509,"o":"m 296 0 l 121 0 l 121 979 l 296 979 l 296 0 m 291 1075 l 121 1075 l 317 1285 l 509 1285 l 291 1075 z "},"Î":{"ha":416,"x_min":-67,"x_max":484,"o":"m 296 0 l 121 0 l 121 979 l 296 979 l 296 0 m 130 1293 l 287 1293 l 484 1075 l 319 1075 l 214 1199 l 202 1199 l 97 1075 l -67 1075 l 130 1293 z "},"Ï":{"ha":416,"x_min":-40,"x_max":456,"o":"m 296 0 l 121 0 l 121 979 l 296 979 l 296 0 m 126 1097 q 112 1083 126 1097 q 57 1069 98 1069 q -12 1097 16 1069 q -40 1165 -40 1124 q -12 1233 -40 1206 q 57 1261 16 1261 q 126 1233 98 1261 q 154 1165 154 1206 q 126 1097 154 1124 m 428 1097 q 414 1083 428 1097 q 359 1069 400 1069 q 290 1097 317 1069 q 262 1165 262 1124 q 290 1233 262 1206 q 359 1261 317 1261 q 428 1233 400 1261 q 456 1165 456 1206 q 428 1097 456 1124 z "},"Ð":{"ha":1027,"x_min":28,"x_max":948,"o":"m 296 151 l 465 151 q 690 239 611 151 q 770 491 770 328 q 689 739 770 651 q 465 827 609 827 l 296 827 l 296 568 l 455 568 l 455 430 l 296 430 l 296 151 m 121 979 l 488 979 q 827 851 706 979 q 948 494 948 724 q 828 129 948 258 q 488 0 707 0 l 121 0 l 121 430 l 28 430 l 28 568 l 121 568 l 121 979 z "},"Ñ":{"ha":1054,"x_min":121,"x_max":932,"o":"m 290 0 l 121 0 l 121 979 l 273 979 l 753 313 l 764 313 l 764 979 l 932 979 l 932 0 l 781 0 l 301 666 l 290 666 l 290 0 m 624 1067 q 558 1083 589 1067 q 509 1118 527 1099 q 471 1153 492 1137 q 434 1168 451 1168 q 372 1069 372 1168 l 256 1069 q 302 1222 256 1165 q 426 1279 348 1279 q 480 1269 455 1279 q 523 1244 505 1259 q 555 1214 541 1229 q 586 1189 570 1199 q 616 1179 602 1179 q 678 1277 677 1179 l 793 1277 q 748 1124 793 1181 q 624 1067 702 1067 z "},"Ò":{"ha":1084,"x_min":79,"x_max":1005,"o":"m 543 1003 q 881 865 756 1003 q 1005 490 1005 726 q 881 114 1005 253 q 543 -24 757 -24 q 204 114 328 -24 q 79 490 79 252 q 204 865 79 726 q 543 1003 330 1003 m 543 848 q 335 751 412 848 q 258 490 258 654 q 335 228 258 325 q 543 131 411 131 q 750 228 673 131 q 826 490 826 326 q 750 751 826 654 q 543 848 673 848 m 463 1075 l 245 1285 l 437 1285 l 632 1075 l 463 1075 z "},"Ó":{"ha":1084,"x_min":79,"x_max":1005,"o":"m 543 1003 q 881 865 756 1003 q 1005 490 1005 726 q 881 114 1005 253 q 543 -24 757 -24 q 204 114 328 -24 q 79 490 79 252 q 204 865 79 726 q 543 1003 330 1003 m 543 848 q 335 751 412 848 q 258 490 258 654 q 335 228 258 325 q 543 131 411 131 q 750 228 673 131 q 826 490 826 326 q 750 751 826 654 q 543 848 673 848 m 626 1075 l 456 1075 l 652 1285 l 844 1285 l 626 1075 z "},"Ô":{"ha":1084,"x_min":79,"x_max":1005,"o":"m 543 1003 q 881 865 756 1003 q 1005 490 1005 726 q 881 114 1005 253 q 543 -24 757 -24 q 204 114 328 -24 q 79 490 79 252 q 204 865 79 726 q 543 1003 330 1003 m 543 848 q 335 751 412 848 q 258 490 258 654 q 335 228 258 325 q 543 131 411 131 q 750 228 673 131 q 826 490 826 326 q 750 751 826 654 q 543 848 673 848 m 465 1293 l 622 1293 l 819 1075 l 654 1075 l 549 1199 l 537 1199 l 432 1075 l 268 1075 l 465 1293 z "},"Õ":{"ha":1084,"x_min":79,"x_max":1005,"o":"m 543 1003 q 881 865 756 1003 q 1005 490 1005 726 q 881 114 1005 253 q 543 -24 757 -24 q 204 114 328 -24 q 79 490 79 252 q 204 865 79 726 q 543 1003 330 1003 m 543 848 q 335 751 412 848 q 258 490 258 654 q 335 228 258 325 q 543 131 411 131 q 750 228 673 131 q 826 490 826 326 q 750 751 826 654 q 543 848 673 848 m 642 1067 q 576 1083 607 1067 q 528 1118 545 1099 q 490 1153 510 1137 q 452 1168 469 1168 q 390 1069 391 1168 l 274 1069 q 320 1222 274 1165 q 444 1279 366 1279 q 498 1269 473 1279 q 541 1244 524 1259 q 574 1214 559 1229 q 604 1189 589 1199 q 634 1179 620 1179 q 696 1277 696 1179 l 812 1277 q 766 1124 812 1181 q 642 1067 720 1067 z "},"Ö":{"ha":1084,"x_min":79,"x_max":1005,"o":"m 543 1003 q 881 865 756 1003 q 1005 490 1005 726 q 881 114 1005 253 q 543 -24 757 -24 q 204 114 328 -24 q 79 490 79 252 q 204 865 79 726 q 543 1003 330 1003 m 543 848 q 335 751 412 848 q 258 490 258 654 q 335 228 258 325 q 543 131 411 131 q 750 228 673 131 q 826 490 826 326 q 750 751 826 654 q 543 848 673 848 m 461 1097 q 447 1083 461 1097 q 392 1069 433 1069 q 323 1097 351 1069 q 295 1165 295 1124 q 323 1233 295 1206 q 392 1261 351 1261 q 461 1233 433 1261 q 489 1165 489 1206 q 461 1097 489 1124 m 763 1097 q 749 1083 763 1097 q 694 1069 735 1069 q 625 1097 652 1069 q 597 1165 597 1124 q 625 1233 597 1206 q 694 1261 652 1261 q 763 1233 735 1261 q 791 1165 791 1206 q 763 1097 791 1124 z "},"×":{"ha":938,"x_min":161,"x_max":778,"o":"m 469 290 l 262 84 l 161 188 l 368 395 l 161 602 l 262 707 l 469 500 l 676 707 l 778 602 l 571 395 l 778 188 l 676 84 l 469 290 z "},"Ø":{"ha":1069,"x_min":79,"x_max":1005,"o":"m 758 740 l 373 189 q 543 131 441 131 q 750 228 673 131 q 826 490 826 326 q 758 740 826 644 m 317 254 l 700 800 q 543 848 633 848 q 335 751 412 848 q 258 490 258 654 q 317 254 258 347 m 923 975 l 861 886 q 968 718 930 819 q 1005 490 1005 616 q 881 114 1005 253 q 543 -24 757 -24 q 276 51 387 -24 l 212 -41 l 143 6 l 212 104 q 79 490 79 243 q 204 865 79 726 q 543 1003 330 1003 q 795 937 690 1003 l 852 1017 l 923 975 z "},"Ù":{"ha":1051,"x_min":123,"x_max":928,"o":"m 298 979 l 298 353 q 358 192 298 252 q 526 132 418 132 q 693 192 633 132 q 753 353 753 252 l 753 979 l 928 979 l 928 337 q 819 75 928 175 q 526 -24 709 -24 q 233 75 342 -24 q 123 337 123 175 l 123 979 l 298 979 m 445 1075 l 227 1285 l 419 1285 l 614 1075 l 445 1075 z "},"Ú":{"ha":1051,"x_min":123,"x_max":928,"o":"m 298 979 l 298 353 q 358 192 298 252 q 526 132 418 132 q 693 192 633 132 q 753 353 753 252 l 753 979 l 928 979 l 928 337 q 819 75 928 175 q 526 -24 709 -24 q 233 75 342 -24 q 123 337 123 175 l 123 979 l 298 979 m 608 1075 l 439 1075 l 634 1285 l 826 1285 l 608 1075 z "},"Û":{"ha":1051,"x_min":123,"x_max":928,"o":"m 298 979 l 298 353 q 358 192 298 252 q 526 132 418 132 q 693 192 633 132 q 753 353 753 252 l 753 979 l 928 979 l 928 337 q 819 75 928 175 q 526 -24 709 -24 q 233 75 342 -24 q 123 337 123 175 l 123 979 l 298 979 m 447 1293 l 604 1293 l 801 1075 l 637 1075 l 532 1199 l 519 1199 l 414 1075 l 250 1075 l 447 1293 z "},"Ü":{"ha":1051,"x_min":123,"x_max":928,"o":"m 298 979 l 298 353 q 358 192 298 252 q 526 132 418 132 q 693 192 633 132 q 753 353 753 252 l 753 979 l 928 979 l 928 337 q 819 75 928 175 q 526 -24 709 -24 q 233 75 342 -24 q 123 337 123 175 l 123 979 l 298 979 m 444 1097 q 430 1083 444 1097 q 374 1069 416 1069 q 305 1097 333 1069 q 277 1165 277 1124 q 305 1233 277 1206 q 374 1261 333 1261 q 444 1233 416 1261 q 471 1165 471 1206 q 444 1097 471 1124 m 745 1097 q 731 1083 745 1097 q 676 1069 718 1069 q 607 1097 635 1069 q 579 1165 579 1124 q 607 1233 579 1206 q 676 1261 635 1261 q 745 1233 718 1261 q 773 1165 773 1206 q 745 1097 773 1124 z "},"Ý":{"ha":958,"x_min":48,"x_max":909,"o":"m 566 0 l 391 0 l 391 382 l 48 979 l 240 979 l 473 560 l 485 560 l 718 979 l 909 979 l 566 382 l 566 0 m 562 1075 l 392 1075 l 587 1285 l 779 1285 l 562 1075 z "},"Þ":{"ha":910,"x_min":121,"x_max":830,"o":"m 121 979 l 296 979 l 296 813 l 521 813 q 677 778 607 813 q 788 673 747 743 q 830 511 830 604 q 787 350 830 420 q 673 245 745 281 q 514 210 602 210 l 296 210 l 296 0 l 121 0 l 121 979 m 296 667 l 296 355 l 472 355 q 604 395 555 355 q 652 511 652 435 q 604 627 652 587 q 473 667 555 667 l 296 667 z "},"ß":{"ha":919,"x_min":138,"x_max":850,"o":"m 306 0 l 138 0 l 138 737 q 225 936 138 863 q 457 1008 312 1008 q 685 937 597 1008 q 772 753 772 866 q 730 611 772 671 q 622 532 688 551 l 622 519 q 788 446 726 511 q 850 273 850 381 q 762 69 850 148 q 528 -10 674 -10 q 415 0 461 -10 l 415 142 q 503 131 453 131 q 633 172 587 131 q 680 282 680 213 q 626 392 680 352 q 477 433 573 433 l 431 433 l 431 581 l 465 581 q 570 619 532 581 q 609 728 609 658 q 569 827 609 789 q 460 865 528 865 q 346 824 387 865 q 306 706 306 783 l 306 0 z "},"à":{"ha":800,"x_min":62,"x_max":701,"o":"m 357 120 q 484 164 433 120 q 534 272 534 208 l 534 331 l 367 320 q 229 220 229 311 q 264 147 229 174 q 357 120 300 120 m 307 -12 q 130 49 199 -12 q 62 210 62 110 q 135 368 62 311 q 343 433 208 425 l 534 444 l 534 507 q 498 591 534 562 q 395 620 463 620 q 298 600 336 620 q 249 543 260 580 l 90 543 q 185 699 100 641 q 403 757 271 757 q 623 691 545 757 q 701 507 701 625 l 701 0 l 538 0 l 538 102 l 527 102 q 438 18 496 48 q 307 -12 380 -12 m 502 865 l 338 865 l 145 1100 l 333 1100 l 502 865 z "},"á":{"ha":800,"x_min":62,"x_max":701,"o":"m 357 120 q 484 164 433 120 q 534 272 534 208 l 534 331 l 367 320 q 229 220 229 311 q 264 147 229 174 q 357 120 300 120 m 307 -12 q 130 49 199 -12 q 62 210 62 110 q 135 368 62 311 q 343 433 208 425 l 534 444 l 534 507 q 498 591 534 562 q 395 620 463 620 q 298 600 336 620 q 249 543 260 580 l 90 543 q 185 699 100 641 q 403 757 271 757 q 623 691 545 757 q 701 507 701 625 l 701 0 l 538 0 l 538 102 l 527 102 q 438 18 496 48 q 307 -12 380 -12 m 472 865 l 308 865 l 477 1100 l 665 1100 l 472 865 z "},"â":{"ha":800,"x_min":62,"x_max":701,"o":"m 357 120 q 484 164 433 120 q 534 272 534 208 l 534 331 l 367 320 q 229 220 229 311 q 264 147 229 174 q 357 120 300 120 m 307 -12 q 130 49 199 -12 q 62 210 62 110 q 135 368 62 311 q 343 433 208 425 l 534 444 l 534 507 q 498 591 534 562 q 395 620 463 620 q 298 600 336 620 q 249 543 260 580 l 90 543 q 185 699 100 641 q 403 757 271 757 q 623 691 545 757 q 701 507 701 625 l 701 0 l 538 0 l 538 102 l 527 102 q 438 18 496 48 q 307 -12 380 -12 m 490 1079 l 678 843 l 516 843 l 408 989 l 397 989 l 289 843 l 127 843 l 315 1079 l 490 1079 z "},"ã":{"ha":800,"x_min":62,"x_max":701,"o":"m 357 120 q 484 164 433 120 q 534 272 534 208 l 534 331 l 367 320 q 229 220 229 311 q 264 147 229 174 q 357 120 300 120 m 307 -12 q 130 49 199 -12 q 62 210 62 110 q 135 368 62 311 q 343 433 208 425 l 534 444 l 534 507 q 498 591 534 562 q 395 620 463 620 q 298 600 336 620 q 249 543 260 580 l 90 543 q 185 699 100 641 q 403 757 271 757 q 623 691 545 757 q 701 507 701 625 l 701 0 l 538 0 l 538 102 l 527 102 q 438 18 496 48 q 307 -12 380 -12 m 504 844 q 438 860 469 844 q 389 894 407 876 q 351 929 372 913 q 314 945 331 945 q 252 845 252 945 l 136 845 q 182 998 136 941 q 306 1055 228 1055 q 360 1045 335 1055 q 403 1020 385 1035 q 435 990 420 1005 q 466 965 450 975 q 496 955 481 955 q 558 1053 557 955 l 673 1053 q 628 900 673 957 q 504 844 582 844 z "},"ä":{"ha":800,"x_min":62,"x_max":701,"o":"m 357 120 q 484 164 433 120 q 534 272 534 208 l 534 331 l 367 320 q 229 220 229 311 q 264 147 229 174 q 357 120 300 120 m 307 -12 q 130 49 199 -12 q 62 210 62 110 q 135 368 62 311 q 343 433 208 425 l 534 444 l 534 507 q 498 591 534 562 q 395 620 463 620 q 298 600 336 620 q 249 543 260 580 l 90 543 q 185 699 100 641 q 403 757 271 757 q 623 691 545 757 q 701 507 701 625 l 701 0 l 538 0 l 538 102 l 527 102 q 438 18 496 48 q 307 -12 380 -12 m 321 870 q 307 856 321 870 q 252 842 293 842 q 182 870 210 842 q 155 938 155 897 q 182 1006 155 979 q 252 1034 210 1034 q 321 1006 293 1034 q 349 938 349 979 q 321 870 349 897 m 623 870 q 609 856 623 870 q 553 842 595 842 q 484 870 512 842 q 456 938 456 897 q 484 1006 456 979 q 553 1034 512 1034 q 623 1006 595 1034 q 650 938 650 979 q 623 870 650 897 z "},"å":{"ha":800,"x_min":62,"x_max":701,"o":"m 357 120 q 484 164 433 120 q 534 272 534 208 l 534 331 l 367 320 q 229 220 229 311 q 264 147 229 174 q 357 120 300 120 m 307 -12 q 130 49 199 -12 q 62 210 62 110 q 135 368 62 311 q 343 433 208 425 l 534 444 l 534 507 q 498 591 534 562 q 395 620 463 620 q 298 600 336 620 q 249 543 260 580 l 90 543 q 185 699 100 641 q 403 757 271 757 q 623 691 545 757 q 701 507 701 625 l 701 0 l 538 0 l 538 102 l 527 102 q 438 18 496 48 q 307 -12 380 -12 m 519 889 q 495 866 519 889 q 403 843 472 843 q 287 889 334 843 q 239 1003 239 935 q 287 1117 239 1072 q 403 1162 334 1162 q 519 1117 472 1162 q 566 1003 566 1072 q 519 889 566 935 m 403 928 q 457 949 435 928 q 478 1002 478 970 q 457 1056 478 1035 q 403 1078 435 1078 q 349 1056 370 1078 q 327 1002 327 1035 q 348 949 327 970 q 403 928 370 928 z "},"æ":{"ha":1274,"x_min":62,"x_max":1207,"o":"m 885 -15 q 725 24 798 -15 q 621 127 653 63 l 609 127 q 497 23 568 60 q 334 -15 426 -15 q 136 47 211 -15 q 62 210 62 109 q 135 368 62 311 q 343 433 208 425 l 534 444 l 534 500 q 498 589 534 559 q 395 620 462 620 q 249 543 273 620 l 90 543 q 183 697 100 638 q 389 757 266 757 q 536 726 475 757 q 629 643 597 696 l 641 643 q 742 726 677 694 q 882 757 806 757 q 1120 658 1034 757 q 1207 389 1207 559 l 1207 332 l 696 332 l 696 317 q 750 173 699 227 q 884 119 802 119 q 1041 204 1000 119 l 1200 204 q 1092 43 1175 102 q 885 -15 1008 -15 m 873 623 q 748 575 796 623 q 696 446 701 527 l 1040 446 q 990 574 1037 525 q 873 623 944 623 m 361 119 q 486 164 437 119 q 534 273 534 209 l 534 331 l 367 320 q 229 218 229 311 q 265 145 229 172 q 361 119 301 119 z "},"ç":{"ha":802,"x_min":66,"x_max":744,"o":"m 744 492 l 584 492 q 530 582 572 549 q 420 616 488 616 q 285 552 334 616 q 237 373 237 488 q 286 191 237 256 q 420 126 334 126 q 529 157 486 126 q 584 245 571 187 l 744 245 q 661 71 732 139 q 475 -12 591 2 l 448 -79 q 550 -112 514 -81 q 586 -196 586 -142 q 539 -295 586 -258 q 410 -331 493 -331 q 311 -319 353 -331 l 311 -234 q 391 -243 341 -243 q 469 -200 469 -243 q 447 -170 469 -179 q 376 -160 425 -160 l 336 -160 l 336 -90 l 368 -12 q 146 105 225 4 q 66 373 66 205 q 160 655 66 554 q 420 757 254 757 q 645 685 560 757 q 744 492 730 612 z "},"è":{"ha":819,"x_min":66,"x_max":753,"o":"m 414 623 q 290 574 339 623 q 236 443 241 524 l 585 443 q 536 574 583 526 q 414 623 490 623 m 587 204 l 746 204 q 634 44 722 102 q 416 -15 547 -15 q 160 87 253 -15 q 66 368 66 189 q 160 652 66 547 q 415 757 254 757 q 664 657 574 757 q 753 382 753 558 l 753 328 l 235 328 l 235 319 q 289 173 239 227 q 421 119 338 119 q 587 204 549 119 m 514 865 l 350 865 l 157 1100 l 345 1100 l 514 865 z "},"é":{"ha":819,"x_min":66,"x_max":753,"o":"m 414 623 q 290 574 339 623 q 236 443 241 524 l 585 443 q 536 574 583 526 q 414 623 490 623 m 587 204 l 746 204 q 634 44 722 102 q 416 -15 547 -15 q 160 87 253 -15 q 66 368 66 189 q 160 652 66 547 q 415 757 254 757 q 664 657 574 757 q 753 382 753 558 l 753 328 l 235 328 l 235 319 q 289 173 239 227 q 421 119 338 119 q 587 204 549 119 m 484 865 l 320 865 l 489 1100 l 677 1100 l 484 865 z "},"ê":{"ha":819,"x_min":66,"x_max":753,"o":"m 414 623 q 290 574 339 623 q 236 443 241 524 l 585 443 q 536 574 583 526 q 414 623 490 623 m 587 204 l 746 204 q 634 44 722 102 q 416 -15 547 -15 q 160 87 253 -15 q 66 368 66 189 q 160 652 66 547 q 415 757 254 757 q 664 657 574 757 q 753 382 753 558 l 753 328 l 235 328 l 235 319 q 289 173 239 227 q 421 119 338 119 q 587 204 549 119 m 503 1079 l 690 843 l 528 843 l 420 989 l 409 989 l 301 843 l 139 843 l 327 1079 l 503 1079 z "},"ë":{"ha":819,"x_min":66,"x_max":753,"o":"m 414 623 q 290 574 339 623 q 236 443 241 524 l 585 443 q 536 574 583 526 q 414 623 490 623 m 587 204 l 746 204 q 634 44 722 102 q 416 -15 547 -15 q 160 87 253 -15 q 66 368 66 189 q 160 652 66 547 q 415 757 254 757 q 664 657 574 757 q 753 382 753 558 l 753 328 l 235 328 l 235 319 q 289 173 239 227 q 421 119 338 119 q 587 204 549 119 m 333 870 q 319 856 333 870 q 264 842 305 842 q 195 870 222 842 q 167 938 167 897 q 195 1006 167 979 q 264 1034 222 1034 q 333 1006 305 1034 q 361 938 361 979 q 333 870 361 897 m 635 870 q 621 856 635 870 q 566 842 607 842 q 496 870 524 842 q 469 938 469 897 q 496 1006 469 979 q 566 1034 524 1034 q 635 1006 607 1034 q 663 938 663 979 q 635 870 663 897 z "},"ì":{"ha":378,"x_min":-69,"x_max":288,"o":"m 105 0 l 105 742 l 273 742 l 273 0 l 105 0 m 288 865 l 123 865 l -69 1100 l 119 1100 l 288 865 z "},"í":{"ha":378,"x_min":94,"x_max":450,"o":"m 105 0 l 105 742 l 273 742 l 273 0 l 105 0 m 258 865 l 94 865 l 262 1100 l 450 1100 l 258 865 z "},"î":{"ha":378,"x_min":-87,"x_max":464,"o":"m 105 0 l 105 742 l 273 742 l 273 0 l 105 0 m 276 1079 l 464 843 l 302 843 l 194 989 l 182 989 l 75 843 l -87 843 l 100 1079 l 276 1079 z "},"ï":{"ha":378,"x_min":-60,"x_max":436,"o":"m 105 0 l 105 742 l 273 742 l 273 0 l 105 0 m 106 870 q 93 856 106 870 q 37 842 79 842 q -32 870 -4 842 q -60 938 -60 897 q -32 1006 -60 979 q 37 1034 -4 1034 q 106 1006 79 1034 q 134 938 134 979 q 106 870 134 897 m 408 870 q 394 856 408 870 q 339 842 380 842 q 270 870 298 842 q 242 938 242 897 q 270 1006 242 979 q 339 1034 298 1034 q 408 1006 380 1034 q 436 938 436 979 q 408 870 436 897 z "},"ð":{"ha":844,"x_min":68,"x_max":777,"o":"m 424 -12 q 165 89 261 -12 q 68 359 68 189 q 154 617 68 518 q 378 715 240 715 q 497 689 441 715 q 578 619 553 662 l 589 619 q 471 827 561 724 l 279 764 l 247 853 l 402 905 q 248 1031 356 950 l 456 1031 q 543 953 502 995 l 719 1011 l 752 922 l 612 876 q 735 654 692 776 q 777 401 777 533 q 681 100 777 212 q 424 -12 585 -12 m 562 524 q 537 555 562 524 q 427 586 511 586 q 292 524 342 586 q 241 359 241 463 q 291 192 241 254 q 427 131 341 131 q 562 192 512 131 q 612 358 612 254 q 562 524 612 462 z "},"ñ":{"ha":849,"x_min":103,"x_max":753,"o":"m 103 0 l 103 742 l 265 742 l 265 623 l 277 623 q 360 722 304 687 q 497 757 416 757 q 687 685 621 757 q 753 480 753 613 l 753 0 l 585 0 l 585 440 q 435 610 585 610 q 315 562 359 610 q 271 432 271 514 l 271 0 l 103 0 m 532 844 q 466 860 497 844 q 418 894 435 876 q 380 929 400 913 q 342 945 359 945 q 280 845 281 945 l 164 845 q 210 998 164 941 q 334 1055 256 1055 q 389 1045 363 1055 q 431 1020 414 1035 q 464 990 449 1005 q 494 965 479 975 q 524 955 510 955 q 587 1053 586 955 l 702 1053 q 656 900 702 957 q 532 844 610 844 z "},"ò":{"ha":846,"x_min":66,"x_max":780,"o":"m 423 -15 q 161 88 256 -15 q 66 371 66 191 q 162 653 66 550 q 423 757 258 757 q 685 654 589 757 q 780 371 780 551 q 685 88 780 191 q 423 -15 589 -15 m 287 190 q 311 158 287 190 q 423 126 335 126 q 559 190 511 126 q 607 371 607 254 q 559 551 607 487 q 423 616 511 616 q 287 551 335 616 q 239 371 239 487 q 287 190 239 254 m 522 865 l 358 865 l 165 1100 l 353 1100 l 522 865 z "},"ó":{"ha":846,"x_min":66,"x_max":780,"o":"m 423 -15 q 161 88 256 -15 q 66 371 66 191 q 162 653 66 550 q 423 757 258 757 q 685 654 589 757 q 780 371 780 551 q 685 88 780 191 q 423 -15 589 -15 m 287 190 q 311 158 287 190 q 423 126 335 126 q 559 190 511 126 q 607 371 607 254 q 559 551 607 487 q 423 616 511 616 q 287 551 335 616 q 239 371 239 487 q 287 190 239 254 m 492 865 l 328 865 l 497 1100 l 685 1100 l 492 865 z "},"ô":{"ha":846,"x_min":66,"x_max":780,"o":"m 423 -15 q 161 88 256 -15 q 66 371 66 191 q 162 653 66 550 q 423 757 258 757 q 685 654 589 757 q 780 371 780 551 q 685 88 780 191 q 423 -15 589 -15 m 287 190 q 311 158 287 190 q 423 126 335 126 q 559 190 511 126 q 607 371 607 254 q 559 551 607 487 q 423 616 511 616 q 287 551 335 616 q 239 371 239 487 q 287 190 239 254 m 511 1079 l 699 843 l 536 843 l 429 989 l 417 989 l 309 843 l 147 843 l 335 1079 l 511 1079 z "},"õ":{"ha":846,"x_min":66,"x_max":780,"o":"m 423 -15 q 161 88 256 -15 q 66 371 66 191 q 162 653 66 550 q 423 757 258 757 q 685 654 589 757 q 780 371 780 551 q 685 88 780 191 q 423 -15 589 -15 m 287 190 q 311 158 287 190 q 423 126 335 126 q 559 190 511 126 q 607 371 607 254 q 559 551 607 487 q 423 616 511 616 q 287 551 335 616 q 239 371 239 487 q 287 190 239 254 m 524 844 q 458 860 489 844 q 410 894 427 876 q 372 929 392 913 q 334 945 351 945 q 272 845 273 945 l 156 845 q 202 998 156 941 q 326 1055 248 1055 q 380 1045 355 1055 q 423 1020 406 1035 q 456 990 441 1005 q 486 965 471 975 q 516 955 502 955 q 578 1053 578 955 l 694 1053 q 648 900 694 957 q 524 844 602 844 z "},"ö":{"ha":846,"x_min":66,"x_max":780,"o":"m 423 -15 q 161 88 256 -15 q 66 371 66 191 q 162 653 66 550 q 423 757 258 757 q 685 654 589 757 q 780 371 780 551 q 685 88 780 191 q 423 -15 589 -15 m 287 190 q 311 158 287 190 q 423 126 335 126 q 559 190 511 126 q 607 371 607 254 q 559 551 607 487 q 423 616 511 616 q 287 551 335 616 q 239 371 239 487 q 287 190 239 254 m 341 870 q 327 856 341 870 q 272 842 313 842 q 203 870 231 842 q 175 938 175 897 q 203 1006 175 979 q 272 1034 231 1034 q 341 1006 313 1034 q 369 938 369 979 q 341 870 369 897 m 643 870 q 629 856 643 870 q 574 842 615 842 q 505 870 532 842 q 477 938 477 897 q 505 1006 477 979 q 574 1034 532 1034 q 643 1006 615 1034 q 671 938 671 979 q 643 870 671 897 z "},"÷":{"ha":938,"x_min":111,"x_max":827,"o":"m 543 580 q 529 566 543 580 q 469 552 515 552 q 395 580 424 552 q 366 652 366 608 q 395 725 366 697 q 469 753 424 753 q 543 725 515 753 q 572 652 572 697 q 543 580 572 608 m 543 65 q 529 51 543 65 q 469 37 515 37 q 395 65 424 37 q 366 138 366 94 q 395 211 366 182 q 469 239 424 239 q 543 211 515 239 q 572 138 572 182 q 543 65 572 94 m 827 328 l 111 328 l 111 462 l 827 462 l 827 328 z "},"ø":{"ha":846,"x_min":66,"x_max":780,"o":"m 574 528 l 331 150 q 423 126 370 126 q 559 190 511 126 q 607 371 607 254 q 574 528 607 467 m 273 212 l 517 591 q 423 616 477 616 q 287 551 335 616 q 239 371 239 487 q 273 212 239 275 m 711 741 l 667 672 q 780 371 780 567 q 685 88 780 191 q 423 -15 589 -15 q 250 22 324 -15 l 209 -41 l 139 3 l 181 68 q 66 371 66 172 q 162 653 66 550 q 423 757 258 757 q 599 718 523 757 l 640 782 l 711 741 z "},"ù":{"ha":852,"x_min":96,"x_max":749,"o":"m 749 742 l 749 0 l 587 0 l 587 118 l 575 118 q 353 -15 519 -15 q 164 57 232 -15 q 96 260 96 130 l 96 742 l 264 742 l 264 302 q 300 175 264 216 q 412 133 336 133 q 537 180 493 133 q 581 310 581 227 l 581 742 l 749 742 m 522 865 l 357 865 l 165 1100 l 353 1100 l 522 865 z "},"ú":{"ha":852,"x_min":96,"x_max":749,"o":"m 749 742 l 749 0 l 587 0 l 587 118 l 575 118 q 353 -15 519 -15 q 164 57 232 -15 q 96 260 96 130 l 96 742 l 264 742 l 264 302 q 300 175 264 216 q 412 133 336 133 q 537 180 493 133 q 581 310 581 227 l 581 742 l 749 742 m 492 865 l 328 865 l 496 1100 l 684 1100 l 492 865 z "},"û":{"ha":852,"x_min":96,"x_max":749,"o":"m 749 742 l 749 0 l 587 0 l 587 118 l 575 118 q 353 -15 519 -15 q 164 57 232 -15 q 96 260 96 130 l 96 742 l 264 742 l 264 302 q 300 175 264 216 q 412 133 336 133 q 537 180 493 133 q 581 310 581 227 l 581 742 l 749 742 m 510 1079 l 698 843 l 536 843 l 428 989 l 416 989 l 309 843 l 146 843 l 334 1079 l 510 1079 z "},"ü":{"ha":852,"x_min":96,"x_max":749,"o":"m 749 742 l 749 0 l 587 0 l 587 118 l 575 118 q 353 -15 519 -15 q 164 57 232 -15 q 96 260 96 130 l 96 742 l 264 742 l 264 302 q 300 175 264 216 q 412 133 336 133 q 537 180 493 133 q 581 310 581 227 l 581 742 l 749 742 m 340 870 q 327 856 340 870 q 271 842 313 842 q 202 870 230 842 q 174 938 174 897 q 202 1006 174 979 q 271 1034 230 1034 q 340 1006 313 1034 q 368 938 368 979 q 340 870 368 897 m 642 870 q 628 856 642 870 q 573 842 614 842 q 504 870 532 842 q 476 938 476 897 q 504 1006 476 979 q 573 1034 532 1034 q 642 1006 614 1034 q 670 938 670 979 q 642 870 670 897 z "},"ý":{"ha":802,"x_min":41,"x_max":761,"o":"m 184 -269 q 118 -267 132 -269 l 118 -129 q 164 -132 131 -132 q 249 -109 218 -132 q 297 -36 281 -87 l 306 -3 l 41 742 l 225 742 l 399 163 l 410 163 l 583 742 l 761 742 l 493 -24 q 378 -215 446 -161 q 184 -269 310 -269 m 471 865 l 307 865 l 475 1100 l 663 1100 l 471 865 z "},"þ":{"ha":888,"x_min":108,"x_max":818,"o":"m 513 754 q 736 652 654 754 q 818 371 818 549 q 736 91 818 194 q 514 -12 654 -12 q 375 21 435 -12 q 288 113 315 54 l 275 113 l 275 -237 l 108 -237 l 108 1022 l 272 1022 l 272 619 l 283 619 q 376 718 315 682 q 513 754 437 754 m 459 131 q 596 195 547 131 q 645 371 645 258 q 596 547 645 484 q 460 611 547 611 q 323 547 374 611 q 273 371 273 482 q 323 195 273 260 q 459 131 373 131 z "},"ÿ":{"ha":802,"x_min":41,"x_max":761,"o":"m 184 -269 q 118 -267 132 -269 l 118 -129 q 164 -132 131 -132 q 249 -109 218 -132 q 297 -36 281 -87 l 306 -3 l 41 742 l 225 742 l 399 163 l 410 163 l 583 742 l 761 742 l 493 -24 q 378 -215 446 -161 q 184 -269 310 -269 m 319 870 q 306 856 319 870 q 250 842 292 842 q 181 870 209 842 q 153 938 153 897 q 181 1006 153 979 q 250 1034 209 1034 q 319 1006 292 1034 q 347 938 347 979 q 319 870 347 897 m 621 870 q 607 856 621 870 q 552 842 593 842 q 483 870 511 842 q 455 938 455 897 q 483 1006 455 979 q 552 1034 511 1034 q 621 1006 593 1034 q 649 938 649 979 q 621 870 649 897 z "},"Ā":{"ha":987,"x_min":48,"x_max":940,"o":"m 752 0 l 669 250 l 309 250 l 225 0 l 48 0 l 395 979 l 592 979 l 940 0 l 752 0 m 484 792 l 350 389 l 629 389 l 496 792 l 484 792 m 738 1215 l 738 1104 l 250 1104 l 250 1215 l 738 1215 z "},"ā":{"ha":800,"x_min":62,"x_max":701,"o":"m 357 120 q 484 164 433 120 q 534 272 534 208 l 534 331 l 367 320 q 229 220 229 311 q 264 147 229 174 q 357 120 300 120 m 307 -12 q 130 49 199 -12 q 62 210 62 110 q 135 368 62 311 q 343 433 208 425 l 534 444 l 534 507 q 498 591 534 562 q 395 620 463 620 q 298 600 336 620 q 249 543 260 580 l 90 543 q 185 699 100 641 q 403 757 271 757 q 623 691 545 757 q 701 507 701 625 l 701 0 l 538 0 l 538 102 l 527 102 q 438 18 496 48 q 307 -12 380 -12 m 644 996 l 644 885 l 161 885 l 161 996 l 644 996 z "},"Ă":{"ha":987,"x_min":48,"x_max":940,"o":"m 752 0 l 669 250 l 309 250 l 225 0 l 48 0 l 395 979 l 592 979 l 940 0 l 752 0 m 484 792 l 350 389 l 629 389 l 496 792 l 484 792 m 231 1289 l 359 1289 q 396 1206 360 1236 q 494 1175 433 1175 q 591 1206 555 1175 q 629 1289 627 1236 l 756 1289 q 685 1130 756 1190 q 494 1070 614 1070 q 302 1130 373 1070 q 231 1289 231 1190 z "},"ă":{"ha":800,"x_min":62,"x_max":701,"o":"m 357 120 q 484 164 433 120 q 534 272 534 208 l 534 331 l 367 320 q 229 220 229 311 q 264 147 229 174 q 357 120 300 120 m 307 -12 q 130 49 199 -12 q 62 210 62 110 q 135 368 62 311 q 343 433 208 425 l 534 444 l 534 507 q 498 591 534 562 q 395 620 463 620 q 298 600 336 620 q 249 543 260 580 l 90 543 q 185 699 100 641 q 403 757 271 757 q 623 691 545 757 q 701 507 701 625 l 701 0 l 538 0 l 538 102 l 527 102 q 438 18 496 48 q 307 -12 380 -12 m 140 1075 l 267 1075 q 304 983 269 1018 q 402 949 340 949 q 500 983 465 949 q 537 1075 536 1018 l 665 1075 q 594 907 665 972 q 402 843 523 843 q 211 907 281 843 q 140 1075 140 972 z "},"Ą":{"ha":987,"x_min":48,"x_max":940,"o":"m 484 792 l 350 389 l 629 389 l 496 792 l 484 792 m 905 -294 q 820 -308 871 -308 q 691 -266 740 -308 q 642 -161 642 -224 q 672 -71 642 -114 q 753 -1 703 -27 l 669 250 l 309 250 l 225 0 l 48 0 l 395 979 l 592 979 l 940 0 l 916 -3 q 821 -54 861 -20 q 781 -129 781 -87 q 803 -177 781 -159 q 859 -195 825 -195 q 905 -190 888 -195 l 905 -294 z "},"ą":{"ha":800,"x_min":62,"x_max":701,"o":"m 357 120 q 484 163 433 120 q 534 272 534 207 l 534 331 l 367 320 q 229 220 229 311 q 263 147 229 174 q 357 120 298 120 m 684 -294 q 598 -308 648 -308 q 470 -267 519 -308 q 420 -161 420 -225 q 453 -65 420 -109 q 538 1 487 -22 l 538 102 l 527 102 q 438 18 496 48 q 307 -12 380 -12 q 130 49 197 -12 q 62 210 62 111 q 134 367 62 310 q 343 433 207 425 l 534 444 l 534 507 q 498 591 534 562 q 395 620 463 620 q 298 600 336 620 q 249 543 260 580 l 90 543 q 185 699 100 641 q 403 757 270 757 q 623 691 545 757 q 701 507 701 625 l 701 0 l 682 -4 q 593 -56 627 -22 q 559 -129 559 -90 q 580 -176 559 -158 q 637 -195 601 -195 q 684 -190 668 -195 l 684 -294 z "},"Ć":{"ha":1017,"x_min":79,"x_max":943,"o":"m 529 -24 q 200 114 321 -24 q 79 489 79 252 q 200 865 79 728 q 528 1003 320 1003 q 811 905 695 1003 q 943 654 927 807 l 770 654 q 686 794 752 742 q 528 847 621 847 q 331 751 404 847 q 258 490 258 655 q 331 228 258 324 q 529 132 404 132 q 688 180 622 132 q 771 311 753 229 l 943 311 q 812 68 926 160 q 529 -24 698 -24 m 611 1076 l 441 1076 l 637 1286 l 829 1286 l 611 1076 z "},"ć":{"ha":802,"x_min":66,"x_max":744,"o":"m 744 492 l 584 492 q 530 582 572 549 q 420 616 488 616 q 285 552 334 616 q 237 373 237 488 q 286 191 237 256 q 420 126 334 126 q 529 157 486 126 q 584 245 571 187 l 744 245 q 645 56 730 126 q 421 -15 559 -15 q 160 87 254 -15 q 66 373 66 190 q 160 655 66 554 q 420 757 254 757 q 645 685 560 757 q 744 492 730 612 m 489 865 l 325 865 l 494 1100 l 682 1100 l 489 865 z "},"Ĉ":{"ha":1017,"x_min":79,"x_max":943,"o":"m 529 -24 q 200 114 321 -24 q 79 489 79 252 q 200 865 79 728 q 528 1003 320 1003 q 811 905 695 1003 q 943 654 927 807 l 770 654 q 686 794 752 742 q 528 847 621 847 q 331 751 404 847 q 258 490 258 655 q 331 228 258 324 q 529 132 404 132 q 688 180 622 132 q 771 311 753 229 l 943 311 q 812 68 926 160 q 529 -24 698 -24 m 450 1294 l 607 1294 l 804 1076 l 640 1076 l 534 1200 l 522 1200 l 417 1076 l 253 1076 l 450 1294 z "},"ĉ":{"ha":802,"x_min":66,"x_max":744,"o":"m 744 492 l 584 492 q 530 582 572 549 q 420 616 488 616 q 285 552 334 616 q 237 373 237 488 q 286 191 237 256 q 420 126 334 126 q 529 157 486 126 q 584 245 571 187 l 744 245 q 645 56 730 126 q 421 -15 559 -15 q 160 87 254 -15 q 66 373 66 190 q 160 655 66 554 q 420 757 254 757 q 645 685 560 757 q 744 492 730 612 m 507 1079 l 695 843 l 533 843 l 425 989 l 414 989 l 306 843 l 144 843 l 332 1079 l 507 1079 z "},"Ċ":{"ha":1017,"x_min":79,"x_max":943,"o":"m 529 -24 q 200 114 321 -24 q 79 489 79 252 q 200 865 79 728 q 528 1003 320 1003 q 811 905 695 1003 q 943 654 927 807 l 770 654 q 686 794 752 742 q 528 847 621 847 q 331 751 404 847 q 258 490 258 655 q 331 228 258 324 q 529 132 404 132 q 688 180 622 132 q 771 311 753 229 l 943 311 q 812 68 926 160 q 529 -24 698 -24 m 598 1100 q 584 1086 598 1100 q 528 1072 570 1072 q 458 1100 486 1072 q 431 1169 431 1128 q 458 1239 431 1211 q 528 1267 486 1267 q 598 1239 570 1267 q 626 1169 626 1211 q 598 1100 626 1128 z "},"ċ":{"ha":802,"x_min":66,"x_max":744,"o":"m 744 492 l 584 492 q 530 582 572 549 q 420 616 488 616 q 285 552 334 616 q 237 373 237 488 q 286 191 237 256 q 420 126 334 126 q 529 157 486 126 q 584 245 571 187 l 744 245 q 645 56 730 126 q 421 -15 559 -15 q 160 87 254 -15 q 66 373 66 190 q 160 655 66 554 q 420 757 254 757 q 645 685 560 757 q 744 492 730 612 m 492 898 q 478 883 492 898 q 420 869 463 869 q 348 898 376 869 q 319 970 319 927 q 348 1041 319 1013 q 420 1070 376 1070 q 492 1041 463 1070 q 521 970 521 1012 q 492 898 521 927 z "},"Č":{"ha":1017,"x_min":79,"x_max":943,"o":"m 529 -24 q 200 114 321 -24 q 79 489 79 252 q 200 865 79 728 q 528 1003 320 1003 q 811 905 695 1003 q 943 654 927 807 l 770 654 q 686 794 752 742 q 528 847 621 847 q 331 751 404 847 q 258 490 258 655 q 331 228 258 324 q 529 132 404 132 q 688 180 622 132 q 771 311 753 229 l 943 311 q 812 68 926 160 q 529 -24 698 -24 m 453 1076 l 258 1286 l 417 1286 l 522 1168 l 534 1168 l 640 1286 l 799 1286 l 604 1076 l 453 1076 z "},"č":{"ha":802,"x_min":66,"x_max":744,"o":"m 744 492 l 584 492 q 530 582 572 549 q 420 616 488 616 q 285 552 334 616 q 237 373 237 488 q 286 191 237 256 q 420 126 334 126 q 529 157 486 126 q 584 245 571 187 l 744 245 q 645 56 730 126 q 421 -15 559 -15 q 160 87 254 -15 q 66 373 66 190 q 160 655 66 554 q 420 757 254 757 q 645 685 560 757 q 744 492 730 612 m 507 843 l 332 843 l 144 1079 l 306 1079 l 414 933 l 425 933 l 533 1079 l 695 1079 l 507 843 z "},"Ď":{"ha":1027,"x_min":121,"x_max":948,"o":"m 121 979 l 488 979 q 827 851 706 979 q 948 494 948 724 q 828 129 948 258 q 488 0 707 0 l 121 0 l 121 979 m 296 827 l 296 151 l 465 151 q 690 239 611 151 q 770 491 770 328 q 689 739 770 651 q 465 827 609 827 l 296 827 m 347 1075 l 152 1285 l 311 1285 l 416 1167 l 429 1167 l 534 1285 l 693 1285 l 498 1075 l 347 1075 z "},"ď":{"ha":1004,"x_min":66,"x_max":1022,"o":"m 872 1029 l 1022 1029 l 988 691 l 872 691 l 872 1029 m 372 -12 q 149 91 231 -12 q 66 372 66 195 q 149 651 66 547 q 372 754 231 754 q 507 720 448 754 q 597 624 567 685 l 608 624 l 608 1029 l 777 1029 l 777 0 l 614 0 l 614 117 l 602 117 q 510 22 570 56 q 372 -12 449 -12 m 560 547 q 535 579 560 547 q 424 611 510 611 q 288 547 338 611 q 239 371 239 483 q 288 195 239 258 q 424 131 337 131 q 561 195 511 131 q 610 371 610 259 q 560 547 610 482 z "},"Đ":{"ha":1029,"x_min":28,"x_max":950,"o":"m 298 151 l 467 151 q 692 239 613 151 q 772 491 772 328 q 691 739 772 651 q 467 827 611 827 l 298 827 l 298 568 l 455 568 l 455 430 l 298 430 l 298 151 m 123 979 l 490 979 q 829 851 708 979 q 950 494 950 724 q 830 129 950 258 q 490 0 709 0 l 123 0 l 123 430 l 28 430 l 28 568 l 123 568 l 123 979 z "},"đ":{"ha":891,"x_min":71,"x_max":879,"o":"m 293 195 q 318 163 293 195 q 429 131 342 131 q 566 195 516 131 q 616 371 616 259 q 566 547 616 482 q 429 611 515 611 q 294 547 343 611 q 244 371 244 483 q 293 195 244 258 m 879 953 l 879 857 l 781 857 l 781 0 l 619 0 l 619 117 l 608 117 q 515 22 576 56 q 377 -12 454 -12 q 154 91 236 -12 q 71 372 71 195 q 154 651 71 547 q 377 754 237 754 q 513 720 453 754 q 602 624 572 685 l 613 624 l 613 857 l 449 857 l 449 953 l 613 953 l 613 1029 l 781 1029 l 781 953 l 879 953 z "},"Ē":{"ha":850,"x_min":121,"x_max":754,"o":"m 754 151 l 754 0 l 121 0 l 121 979 l 754 979 l 754 827 l 296 827 l 296 568 l 729 568 l 729 425 l 296 425 l 296 151 l 754 151 m 682 1215 l 682 1104 l 193 1104 l 193 1215 l 682 1215 z "},"ē":{"ha":819,"x_min":66,"x_max":753,"o":"m 414 623 q 290 574 339 623 q 236 443 241 524 l 585 443 q 536 574 583 526 q 414 623 490 623 m 587 204 l 746 204 q 634 44 722 102 q 416 -15 547 -15 q 160 87 253 -15 q 66 368 66 189 q 160 652 66 547 q 415 757 254 757 q 664 657 574 757 q 753 382 753 558 l 753 328 l 235 328 l 235 319 q 289 173 239 227 q 421 119 338 119 q 587 204 549 119 m 656 996 l 656 885 l 174 885 l 174 996 l 656 996 z "},"Ĕ":{"ha":850,"x_min":121,"x_max":754,"o":"m 754 151 l 754 0 l 121 0 l 121 979 l 754 979 l 754 827 l 296 827 l 296 568 l 729 568 l 729 425 l 296 425 l 296 151 l 754 151 m 175 1289 l 302 1289 q 340 1206 304 1236 q 437 1175 376 1175 q 535 1206 498 1175 q 572 1289 571 1236 l 700 1289 q 629 1130 700 1190 q 437 1070 558 1070 q 246 1130 317 1070 q 175 1289 175 1190 z "},"ĕ":{"ha":819,"x_min":66,"x_max":753,"o":"m 414 623 q 290 574 339 623 q 236 443 241 524 l 585 443 q 536 574 583 526 q 414 623 490 623 m 587 204 l 746 204 q 634 44 722 102 q 416 -15 547 -15 q 160 87 253 -15 q 66 368 66 189 q 160 652 66 547 q 415 757 254 757 q 664 657 574 757 q 753 382 753 558 l 753 328 l 235 328 l 235 319 q 289 173 239 227 q 421 119 338 119 q 587 204 549 119 m 152 1075 l 279 1075 q 316 983 281 1018 q 414 949 352 949 q 512 983 477 949 q 549 1075 548 1018 l 677 1075 q 606 907 677 972 q 414 843 535 843 q 223 907 294 843 q 152 1075 152 972 z "},"Ė":{"ha":850,"x_min":121,"x_max":754,"o":"m 754 151 l 754 0 l 121 0 l 121 979 l 754 979 l 754 827 l 296 827 l 296 568 l 729 568 l 729 425 l 296 425 l 296 151 l 754 151 m 507 1098 q 493 1084 507 1098 q 437 1070 479 1070 q 368 1098 395 1070 q 340 1168 340 1126 q 367 1238 340 1210 q 437 1266 395 1266 q 507 1238 479 1266 q 535 1168 535 1210 q 507 1098 535 1126 z "},"ė":{"ha":819,"x_min":66,"x_max":753,"o":"m 414 623 q 290 574 339 623 q 236 443 241 524 l 585 443 q 536 574 583 526 q 414 623 490 623 m 587 204 l 746 204 q 634 44 722 102 q 416 -15 547 -15 q 160 87 253 -15 q 66 368 66 189 q 160 652 66 547 q 415 757 254 757 q 664 657 574 757 q 753 382 753 558 l 753 328 l 235 328 l 235 319 q 289 173 239 227 q 421 119 338 119 q 587 204 549 119 m 487 898 q 473 883 487 898 q 415 869 458 869 q 343 898 372 869 q 314 970 314 927 q 343 1041 314 1013 q 415 1070 372 1070 q 487 1041 458 1070 q 516 970 516 1012 q 487 898 516 927 z "},"Ę":{"ha":850,"x_min":121,"x_max":754,"o":"m 121 0 l 121 979 l 754 979 l 754 827 l 296 827 l 296 568 l 729 568 l 729 425 l 296 425 l 296 151 l 754 151 l 754 5 l 724 -3 q 634 -54 672 -20 q 595 -129 595 -87 q 617 -177 595 -159 q 674 -195 640 -195 q 720 -190 703 -195 l 720 -294 q 635 -308 686 -308 q 506 -266 555 -308 q 456 -161 456 -224 q 483 -75 456 -115 q 552 -12 509 -35 l 552 0 l 121 0 z "},"ę":{"ha":819,"x_min":66,"x_max":753,"o":"m 559 -308 q 430 -266 479 -308 q 380 -161 380 -224 q 404 -82 380 -119 q 469 -20 427 -45 l 469 -8 q 416 -15 450 -15 q 160 87 253 -15 q 66 368 66 189 q 160 652 66 547 q 415 757 254 757 q 664 657 574 757 q 753 382 753 558 l 753 328 l 235 328 l 235 319 q 289 173 239 227 q 421 119 338 119 q 587 204 549 119 l 746 204 q 706 114 739 164 q 629 28 673 64 q 546 -54 572 -18 q 519 -127 519 -90 q 541 -177 519 -159 q 597 -195 563 -195 q 644 -190 626 -195 l 644 -294 q 559 -308 609 -308 m 414 623 q 290 574 339 623 q 236 443 241 524 l 585 443 q 536 574 583 526 q 414 623 490 623 z "},"Ě":{"ha":850,"x_min":121,"x_max":754,"o":"m 754 151 l 754 0 l 121 0 l 121 979 l 754 979 l 754 827 l 296 827 l 296 568 l 729 568 l 729 425 l 296 425 l 296 151 l 754 151 m 362 1075 l 167 1285 l 326 1285 l 431 1167 l 444 1167 l 549 1285 l 708 1285 l 513 1075 l 362 1075 z "},"ě":{"ha":819,"x_min":66,"x_max":753,"o":"m 414 623 q 290 574 339 623 q 236 443 241 524 l 585 443 q 536 574 583 526 q 414 623 490 623 m 587 204 l 746 204 q 634 44 722 102 q 416 -15 547 -15 q 160 87 253 -15 q 66 368 66 189 q 160 652 66 547 q 415 757 254 757 q 664 657 574 757 q 753 382 753 558 l 753 328 l 235 328 l 235 319 q 289 173 239 227 q 421 119 338 119 q 587 204 549 119 m 503 843 l 327 843 l 139 1079 l 301 1079 l 409 933 l 420 933 l 528 1079 l 690 1079 l 503 843 z "},"Ĝ":{"ha":1049,"x_min":79,"x_max":967,"o":"m 967 392 q 851 89 967 201 q 539 -24 735 -24 q 203 114 326 -24 q 79 490 79 252 q 203 864 79 724 q 536 1003 328 1003 q 821 913 706 1003 q 959 674 935 824 l 785 674 q 694 802 758 758 q 536 847 630 847 q 333 751 408 847 q 258 491 258 656 q 335 228 258 324 q 542 132 411 132 q 724 194 654 132 q 795 357 793 256 l 796 378 l 561 378 l 561 515 l 967 515 l 967 392 m 458 1293 l 615 1293 l 812 1076 l 648 1076 l 543 1200 l 530 1200 l 425 1076 l 261 1076 l 458 1293 z "},"ĝ":{"ha":878,"x_min":65,"x_max":775,"o":"m 286 210 q 310 179 286 210 q 422 148 334 148 q 559 210 509 148 q 610 379 610 273 q 559 548 610 486 q 422 611 509 611 q 287 549 335 611 q 238 379 238 486 q 286 210 238 272 m 422 -282 q 192 -224 280 -282 q 93 -71 103 -167 l 262 -71 q 313 -132 270 -109 q 425 -154 356 -154 q 559 -115 511 -154 q 607 -7 607 -77 l 607 134 l 595 134 q 505 42 564 74 q 369 11 446 11 q 147 111 229 11 q 65 379 65 211 q 148 652 65 550 q 372 754 231 754 q 509 719 448 754 q 602 623 571 684 l 613 623 l 613 742 l 775 742 l 775 -3 q 680 -207 775 -132 q 422 -282 584 -282 m 511 1079 l 699 843 l 537 843 l 429 989 l 418 989 l 310 843 l 148 843 l 336 1079 l 511 1079 z "},"Ğ":{"ha":1049,"x_min":79,"x_max":967,"o":"m 967 392 q 851 89 967 201 q 539 -24 735 -24 q 203 114 326 -24 q 79 490 79 252 q 203 864 79 724 q 536 1003 328 1003 q 821 913 706 1003 q 959 674 935 824 l 785 674 q 694 802 758 758 q 536 847 630 847 q 333 751 408 847 q 258 491 258 656 q 335 228 258 324 q 542 132 411 132 q 724 194 654 132 q 795 357 793 256 l 796 378 l 561 378 l 561 515 l 967 515 l 967 392 m 274 1289 l 401 1289 q 439 1206 403 1237 q 536 1176 475 1176 q 634 1206 597 1176 q 671 1289 670 1237 l 799 1289 q 728 1131 799 1191 q 536 1071 657 1071 q 345 1131 416 1071 q 274 1289 274 1191 z "},"ğ":{"ha":878,"x_min":65,"x_max":775,"o":"m 286 210 q 310 179 286 210 q 422 148 334 148 q 559 210 509 148 q 610 379 610 273 q 559 548 610 486 q 422 611 509 611 q 287 549 335 611 q 238 379 238 486 q 286 210 238 272 m 422 -282 q 192 -224 280 -282 q 93 -71 103 -167 l 262 -71 q 313 -132 270 -109 q 425 -154 356 -154 q 559 -115 511 -154 q 607 -7 607 -77 l 607 134 l 595 134 q 505 42 564 74 q 369 11 446 11 q 147 111 229 11 q 65 379 65 211 q 148 652 65 550 q 372 754 231 754 q 509 719 448 754 q 602 623 571 684 l 613 623 l 613 742 l 775 742 l 775 -3 q 680 -207 775 -132 q 422 -282 584 -282 m 161 1075 l 288 1075 q 325 983 290 1018 q 423 949 361 949 q 521 983 486 949 q 558 1075 557 1018 l 686 1075 q 615 907 686 972 q 423 843 544 843 q 232 907 302 843 q 161 1075 161 972 z "},"Ġ":{"ha":1049,"x_min":79,"x_max":967,"o":"m 967 392 q 851 89 967 201 q 539 -24 735 -24 q 203 114 326 -24 q 79 490 79 252 q 203 864 79 724 q 536 1003 328 1003 q 821 913 706 1003 q 959 674 935 824 l 785 674 q 694 802 758 758 q 536 847 630 847 q 333 751 408 847 q 258 491 258 656 q 335 228 258 324 q 542 132 411 132 q 724 194 654 132 q 795 357 793 256 l 796 378 l 561 378 l 561 515 l 967 515 l 967 392 m 606 1099 q 592 1085 606 1099 q 536 1071 578 1071 q 467 1099 494 1071 q 439 1168 439 1127 q 466 1239 439 1211 q 536 1267 494 1267 q 606 1239 578 1267 q 634 1168 634 1211 q 606 1099 634 1127 z "},"ġ":{"ha":878,"x_min":65,"x_max":775,"o":"m 286 210 q 310 179 286 210 q 422 148 334 148 q 559 210 509 148 q 610 379 610 273 q 559 548 610 486 q 422 611 509 611 q 287 549 335 611 q 238 379 238 486 q 286 210 238 272 m 422 -282 q 192 -224 280 -282 q 93 -71 103 -167 l 262 -71 q 313 -132 270 -109 q 425 -154 356 -154 q 559 -115 511 -154 q 607 -7 607 -77 l 607 134 l 595 134 q 505 42 564 74 q 369 11 446 11 q 147 111 229 11 q 65 379 65 211 q 148 652 65 550 q 372 754 231 754 q 509 719 448 754 q 602 623 571 684 l 613 623 l 613 742 l 775 742 l 775 -3 q 680 -207 775 -132 q 422 -282 584 -282 m 496 898 q 482 883 496 898 q 424 869 467 869 q 352 898 380 869 q 323 970 323 927 q 352 1041 323 1013 q 424 1070 380 1070 q 496 1041 467 1070 q 525 970 525 1012 q 496 898 525 927 z "},"Ģ":{"ha":1049,"x_min":79,"x_max":967,"o":"m 967 392 q 851 89 967 201 q 539 -24 735 -24 q 203 114 326 -24 q 79 490 79 252 q 203 864 79 724 q 536 1003 328 1003 q 821 913 706 1003 q 959 674 935 824 l 785 674 q 694 802 758 758 q 536 847 630 847 q 333 751 408 847 q 258 491 258 656 q 335 228 258 324 q 542 132 411 132 q 724 194 654 132 q 795 357 793 256 l 796 378 l 561 378 l 561 515 l 967 515 l 967 392 m 541 -347 l 389 -347 l 471 -100 l 642 -100 l 541 -347 z "},"ģ":{"ha":878,"x_min":65,"x_max":775,"o":"m 286 210 q 310 179 286 210 q 422 148 334 148 q 559 210 509 148 q 610 379 610 273 q 559 548 610 486 q 422 611 509 611 q 287 549 335 611 q 238 379 238 486 q 286 210 238 272 m 422 -282 q 192 -224 280 -282 q 93 -71 103 -167 l 262 -71 q 313 -132 270 -109 q 425 -154 356 -154 q 559 -115 511 -154 q 607 -7 607 -77 l 607 134 l 595 134 q 505 42 564 74 q 369 11 446 11 q 147 111 229 11 q 65 379 65 211 q 148 652 65 550 q 372 754 231 754 q 509 719 448 754 q 602 623 571 684 l 613 623 l 613 742 l 775 742 l 775 -3 q 680 -207 775 -132 q 422 -282 584 -282 m 438 1122 l 591 1122 l 509 875 l 337 875 l 438 1122 z "},"Ĥ":{"ha":1067,"x_min":121,"x_max":946,"o":"m 946 0 l 772 0 l 772 422 l 296 422 l 296 0 l 121 0 l 121 979 l 296 979 l 296 574 l 772 574 l 772 979 l 946 979 l 946 0 m 455 1293 l 612 1293 l 809 1075 l 645 1075 l 540 1199 l 528 1199 l 422 1075 l 258 1075 l 455 1293 z "},"ĥ":{"ha":864,"x_min":-83,"x_max":768,"o":"m 110 0 l 110 1029 l 275 1029 l 275 622 l 288 622 q 372 720 314 685 q 513 755 431 755 q 700 683 633 755 q 768 479 768 610 l 768 0 l 600 0 l 600 439 q 562 566 600 523 q 450 609 524 609 q 323 561 369 609 q 278 431 278 512 l 278 0 l 110 0 m 114 1343 l 271 1343 l 468 1125 l 304 1125 l 199 1249 l 186 1249 l 81 1125 l -83 1125 l 114 1343 z "},"Ħ":{"ha":1067,"x_min":32,"x_max":1035,"o":"m 772 574 l 772 720 l 296 720 l 296 574 l 772 574 m 1035 845 l 1035 720 l 946 720 l 946 0 l 772 0 l 772 422 l 296 422 l 296 0 l 121 0 l 121 720 l 32 720 l 32 845 l 121 845 l 121 979 l 296 979 l 296 845 l 772 845 l 772 979 l 946 979 l 946 845 l 1035 845 z "},"ħ":{"ha":864,"x_min":12,"x_max":768,"o":"m 275 622 l 288 622 q 372 720 314 685 q 513 755 431 755 q 700 683 633 755 q 768 479 768 610 l 768 0 l 600 0 l 600 439 q 562 566 600 523 q 450 609 524 609 q 323 561 369 609 q 278 431 278 512 l 278 0 l 110 0 l 110 857 l 12 857 l 12 953 l 110 953 l 110 1029 l 275 1029 l 275 953 l 440 953 l 440 857 l 275 857 l 275 622 z "},"Ĩ":{"ha":416,"x_min":-61,"x_max":477,"o":"m 296 0 l 121 0 l 121 979 l 296 979 l 296 0 m 307 1067 q 241 1083 272 1067 q 193 1118 210 1099 q 155 1153 175 1137 q 117 1168 134 1168 q 55 1069 56 1168 l -61 1069 q -15 1222 -61 1165 q 109 1279 31 1279 q 163 1269 138 1279 q 206 1244 189 1259 q 239 1214 224 1229 q 269 1189 254 1199 q 299 1179 285 1179 q 361 1277 361 1179 l 477 1277 q 431 1124 477 1181 q 307 1067 385 1067 z "},"ĩ":{"ha":378,"x_min":-79,"x_max":459,"o":"m 105 0 l 105 742 l 273 742 l 273 0 l 105 0 m 290 844 q 223 860 254 844 q 175 894 193 876 q 137 929 157 913 q 100 945 117 945 q 37 845 38 945 l -79 845 q -33 998 -79 941 q 92 1055 14 1055 q 146 1045 121 1055 q 189 1020 171 1035 q 221 990 206 1005 q 252 965 236 975 q 281 955 267 955 q 344 1053 343 955 l 459 1053 q 413 900 459 957 q 290 844 368 844 z "},"Ī":{"ha":416,"x_min":-36,"x_max":452,"o":"m 296 0 l 121 0 l 121 979 l 296 979 l 296 0 m 452 1215 l 452 1104 l -36 1104 l -36 1215 l 452 1215 z "},"ī":{"ha":378,"x_min":-17,"x_max":394,"o":"m 105 0 l 105 742 l 273 742 l 273 0 l 105 0 m 394 996 l 394 885 l -17 885 l -17 996 l 394 996 z "},"Ĭ":{"ha":416,"x_min":-54,"x_max":471,"o":"m 296 0 l 121 0 l 121 979 l 296 979 l 296 0 m -54 1289 l 73 1289 q 111 1206 75 1236 q 208 1175 147 1175 q 306 1206 269 1175 q 343 1289 342 1236 l 471 1289 q 400 1130 471 1190 q 208 1070 329 1070 q 17 1130 87 1070 q -54 1289 -54 1190 z "},"ĭ":{"ha":378,"x_min":-75,"x_max":450,"o":"m 105 0 l 105 742 l 273 742 l 273 0 l 105 0 m -75 1075 l 53 1075 q 90 983 54 1018 q 188 949 125 949 q 286 983 250 949 q 323 1075 321 1018 l 450 1075 q 379 907 450 972 q 188 843 309 843 q -4 907 67 843 q -75 1075 -75 972 z "},"Į":{"ha":416,"x_min":36,"x_max":302,"o":"m 121 -14 l 121 979 l 296 979 l 296 0 l 285 -3 q 205 -58 235 -26 q 175 -127 175 -90 q 197 -176 175 -157 q 256 -195 218 -195 q 302 -190 281 -195 l 302 -294 q 214 -308 266 -308 q 86 -267 136 -308 q 36 -161 36 -225 q 58 -78 36 -116 q 121 -14 81 -39 z "},"į":{"ha":378,"x_min":13,"x_max":292,"o":"m 189 863 q 114 889 143 863 q 85 956 85 915 q 114 1022 85 996 q 189 1048 143 1048 q 263 1022 235 1048 q 292 956 292 996 q 263 889 292 915 q 189 863 235 863 m 105 -7 l 105 742 l 273 742 l 273 0 l 258 -3 q 180 -57 209 -25 q 152 -127 152 -90 q 175 -177 152 -159 q 233 -195 197 -195 q 279 -190 258 -195 l 279 -294 q 195 -308 245 -308 q 63 -266 113 -308 q 13 -159 13 -224 q 105 -7 13 -67 z "},"İ":{"ha":416,"x_min":111,"x_max":306,"o":"m 296 0 l 121 0 l 121 979 l 296 979 l 296 0 m 278 1098 q 264 1084 278 1098 q 208 1070 250 1070 q 138 1098 166 1070 q 111 1168 111 1126 q 138 1238 111 1210 q 208 1266 165 1266 q 278 1238 250 1266 q 306 1168 306 1210 q 278 1098 306 1126 z "},"ı":{"ha":378,"x_min":105,"x_max":273,"o":"m 105 0 l 105 742 l 273 742 l 273 0 l 105 0 z "},"Ĳ":{"ha":1219,"x_min":121,"x_max":1099,"o":"m 296 0 l 121 0 l 121 979 l 296 979 l 296 0 m 470 267 l 641 267 q 680 170 642 206 q 781 133 719 133 q 887 174 850 133 q 924 294 924 215 l 924 979 l 1099 979 l 1099 292 q 1015 59 1099 142 q 783 -24 932 -24 q 556 55 642 -24 q 470 267 470 134 z "},"ĳ":{"ha":770,"x_min":85,"x_max":677,"o":"m 105 0 l 105 742 l 273 742 l 273 0 l 105 0 m 189 863 q 114 889 143 863 q 85 956 85 915 q 114 1022 85 996 q 189 1048 143 1048 q 263 1022 235 1048 q 292 956 292 996 q 263 889 292 915 q 189 863 235 863 m 658 742 l 658 -28 q 408 -254 658 -254 q 368 -252 382 -254 l 368 -119 q 378 -120 368 -119 q 389 -120 387 -120 q 468 -98 445 -120 q 490 -25 490 -76 l 490 742 l 658 742 m 574 863 q 499 889 528 863 q 470 956 470 915 q 499 1022 470 996 q 574 1048 528 1048 q 649 1022 620 1048 q 677 956 677 996 q 649 889 677 915 q 574 863 620 863 z "},"Ĵ":{"ha":803,"x_min":54,"x_max":870,"o":"m 54 267 l 224 267 q 264 170 225 206 q 365 133 302 133 q 471 174 434 133 q 507 294 507 215 l 507 979 l 682 979 l 682 292 q 599 59 682 142 q 367 -24 515 -24 q 140 55 226 -24 q 54 267 54 134 m 516 1293 l 673 1293 l 870 1075 l 706 1075 l 601 1199 l 589 1199 l 484 1075 l 319 1075 l 516 1293 z "},"ĵ":{"ha":378,"x_min":-86,"x_max":465,"o":"m 270 742 l 270 -28 q 20 -254 270 -254 q -20 -252 -6 -254 l -20 -119 q -10 -120 -20 -119 q 1 -120 -1 -120 q 80 -98 57 -120 q 102 -25 102 -76 l 102 742 l 270 742 m 277 1079 l 465 843 l 303 843 l 195 989 l 184 989 l 76 843 l -86 843 l 102 1079 l 277 1079 z "},"Ķ":{"ha":960,"x_min":121,"x_max":923,"o":"m 296 0 l 121 0 l 121 979 l 296 979 l 296 528 l 307 528 l 693 979 l 894 979 l 524 552 l 923 0 l 709 0 l 400 432 l 296 312 l 296 0 m 462 -347 l 309 -347 l 391 -100 l 563 -100 l 462 -347 z "},"ķ":{"ha":806,"x_min":110,"x_max":779,"o":"m 290 439 l 564 742 l 759 742 l 463 424 l 779 0 l 576 0 l 338 318 l 278 258 l 278 0 l 110 0 l 110 1029 l 278 1029 l 278 439 l 290 439 m 427 -347 l 275 -347 l 357 -100 l 528 -100 l 427 -347 z "},"Ĺ":{"ha":812,"x_min":121,"x_max":745,"o":"m 745 153 l 745 0 l 121 0 l 121 979 l 296 979 l 296 153 l 745 153 m 291 1075 l 121 1075 l 317 1285 l 509 1285 l 291 1075 z "},"ĺ":{"ha":387,"x_min":107,"x_max":494,"o":"m 110 0 l 110 1029 l 278 1029 l 278 0 l 110 0 m 277 1125 l 107 1125 l 302 1335 l 494 1335 l 277 1125 z "},"Ļ":{"ha":812,"x_min":121,"x_max":745,"o":"m 745 153 l 745 0 l 121 0 l 121 979 l 296 979 l 296 153 l 745 153 m 429 -347 l 276 -347 l 358 -100 l 530 -100 l 429 -347 z "},"ļ":{"ha":387,"x_min":39,"x_max":293,"o":"m 110 0 l 110 1029 l 278 1029 l 278 0 l 110 0 m 192 -347 l 39 -347 l 121 -100 l 293 -100 l 192 -347 z "},"Ľ":{"ha":812,"x_min":121,"x_max":745,"o":"m 436 979 l 585 979 l 551 641 l 436 641 l 436 979 m 745 153 l 745 0 l 121 0 l 121 979 l 296 979 l 296 153 l 745 153 z "},"ľ":{"ha":506,"x_min":110,"x_max":524,"o":"m 374 1029 l 524 1029 l 490 691 l 374 691 l 374 1029 m 110 0 l 110 1029 l 278 1029 l 278 0 l 110 0 z "},"Ł":{"ha":812,"x_min":14,"x_max":745,"o":"m 296 153 l 745 153 l 745 0 l 121 0 l 121 463 l 14 410 l 14 534 l 121 586 l 121 979 l 296 979 l 296 673 l 471 759 l 471 635 l 296 549 l 296 153 z "},"ł":{"ha":387,"x_min":24,"x_max":363,"o":"m 363 718 l 363 593 l 278 550 l 278 0 l 110 0 l 110 463 l 24 419 l 24 543 l 110 587 l 110 1029 l 278 1029 l 278 674 l 363 718 z "},"Ń":{"ha":1054,"x_min":121,"x_max":932,"o":"m 290 0 l 121 0 l 121 979 l 273 979 l 753 313 l 764 313 l 764 979 l 932 979 l 932 0 l 781 0 l 301 666 l 290 666 l 290 0 m 608 1075 l 438 1075 l 633 1285 l 825 1285 l 608 1075 z "},"ń":{"ha":849,"x_min":103,"x_max":753,"o":"m 103 0 l 103 742 l 265 742 l 265 623 l 277 623 q 360 722 304 687 q 497 757 416 757 q 687 685 621 757 q 753 480 753 613 l 753 0 l 585 0 l 585 440 q 435 610 585 610 q 315 562 359 610 q 271 432 271 514 l 271 0 l 103 0 m 500 865 l 336 865 l 505 1100 l 693 1100 l 500 865 z "},"Ņ":{"ha":1054,"x_min":121,"x_max":932,"o":"m 290 0 l 121 0 l 121 979 l 273 979 l 753 313 l 764 313 l 764 979 l 932 979 l 932 0 l 781 0 l 301 666 l 290 666 l 290 0 m 523 -347 l 370 -347 l 452 -100 l 624 -100 l 523 -347 z "},"ņ":{"ha":849,"x_min":103,"x_max":753,"o":"m 103 0 l 103 742 l 265 742 l 265 623 l 277 623 q 360 722 304 687 q 497 757 416 757 q 687 685 621 757 q 753 480 753 613 l 753 0 l 585 0 l 585 440 q 435 610 585 610 q 315 562 359 610 q 271 432 271 514 l 271 0 l 103 0 m 429 -347 l 277 -347 l 359 -100 l 530 -100 l 429 -347 z "},"Ň":{"ha":1054,"x_min":121,"x_max":932,"o":"m 290 0 l 121 0 l 121 979 l 273 979 l 753 313 l 764 313 l 764 979 l 932 979 l 932 0 l 781 0 l 301 666 l 290 666 l 290 0 m 450 1075 l 254 1285 l 414 1285 l 519 1167 l 531 1167 l 636 1285 l 795 1285 l 600 1075 l 450 1075 z "},"ň":{"ha":849,"x_min":103,"x_max":753,"o":"m 103 0 l 103 742 l 265 742 l 265 623 l 277 623 q 360 722 304 687 q 497 757 416 757 q 687 685 621 757 q 753 480 753 613 l 753 0 l 585 0 l 585 440 q 435 610 585 610 q 315 562 359 610 q 271 432 271 514 l 271 0 l 103 0 m 519 843 l 343 843 l 155 1079 l 317 1079 l 425 933 l 437 933 l 545 1079 l 707 1079 l 519 843 z "},"Ō":{"ha":1084,"x_min":79,"x_max":1005,"o":"m 543 1003 q 881 865 756 1003 q 1005 490 1005 726 q 881 114 1005 253 q 543 -24 757 -24 q 204 114 328 -24 q 79 490 79 252 q 204 865 79 726 q 543 1003 330 1003 m 543 848 q 335 751 412 848 q 258 490 258 654 q 335 228 258 325 q 543 131 411 131 q 750 228 673 131 q 826 490 826 326 q 750 751 826 654 q 543 848 673 848 m 787 1215 l 787 1104 l 299 1104 l 299 1215 l 787 1215 z "},"ō":{"ha":846,"x_min":66,"x_max":780,"o":"m 423 -15 q 161 88 256 -15 q 66 371 66 191 q 162 653 66 550 q 423 757 258 757 q 685 654 589 757 q 780 371 780 551 q 685 88 780 191 q 423 -15 589 -15 m 287 190 q 311 158 287 190 q 423 126 335 126 q 559 190 511 126 q 607 371 607 254 q 559 551 607 487 q 423 616 511 616 q 287 551 335 616 q 239 371 239 487 q 287 190 239 254 m 665 996 l 665 885 l 182 885 l 182 996 l 665 996 z "},"Ŏ":{"ha":1084,"x_min":79,"x_max":1005,"o":"m 543 1003 q 881 865 756 1003 q 1005 490 1005 726 q 881 114 1005 253 q 543 -24 757 -24 q 204 114 328 -24 q 79 490 79 252 q 204 865 79 726 q 543 1003 330 1003 m 543 848 q 335 751 412 848 q 258 490 258 654 q 335 228 258 325 q 543 131 411 131 q 750 228 673 131 q 826 490 826 326 q 750 751 826 654 q 543 848 673 848 m 281 1289 l 408 1289 q 446 1206 410 1236 q 543 1175 482 1175 q 641 1206 604 1175 q 678 1289 677 1236 l 806 1289 q 735 1130 806 1190 q 543 1070 664 1070 q 352 1130 422 1070 q 281 1289 281 1190 z "},"ŏ":{"ha":846,"x_min":66,"x_max":780,"o":"m 423 -15 q 161 88 256 -15 q 66 371 66 191 q 162 653 66 550 q 423 757 258 757 q 685 654 589 757 q 780 371 780 551 q 685 88 780 191 q 423 -15 589 -15 m 287 190 q 311 158 287 190 q 423 126 335 126 q 559 190 511 126 q 607 371 607 254 q 559 551 607 487 q 423 616 511 616 q 287 551 335 616 q 239 371 239 487 q 287 190 239 254 m 160 1075 l 288 1075 q 325 983 289 1018 q 422 949 360 949 q 520 983 485 949 q 557 1075 556 1018 l 685 1075 q 614 907 685 972 q 422 843 543 843 q 231 907 302 843 q 160 1075 160 972 z "},"Ő":{"ha":1084,"x_min":79,"x_max":1005,"o":"m 543 1003 q 881 865 756 1003 q 1005 490 1005 726 q 881 114 1005 253 q 543 -24 757 -24 q 204 114 328 -24 q 79 490 79 252 q 204 865 79 726 q 543 1003 330 1003 m 543 848 q 335 751 412 848 q 258 490 258 654 q 335 228 258 325 q 543 131 411 131 q 750 228 673 131 q 826 490 826 326 q 750 751 826 654 q 543 848 673 848 m 741 1075 l 585 1075 l 770 1285 l 943 1285 l 741 1075 m 450 1075 l 294 1075 l 479 1285 l 652 1285 l 450 1075 z "},"ő":{"ha":846,"x_min":66,"x_max":790,"o":"m 423 -15 q 161 88 256 -15 q 66 371 66 191 q 162 653 66 550 q 423 757 258 757 q 685 654 589 757 q 780 371 780 551 q 685 88 780 191 q 423 -15 589 -15 m 287 190 q 311 158 287 190 q 423 126 335 126 q 559 190 511 126 q 607 371 607 254 q 559 551 607 487 q 423 616 511 616 q 287 551 335 616 q 239 371 239 487 q 287 190 239 254 m 473 865 l 627 1100 l 790 1100 l 616 865 l 473 865 m 186 865 l 340 1100 l 503 1100 l 330 865 l 186 865 z "},"Œ":{"ha":1554,"x_min":84,"x_max":1475,"o":"m 552 848 q 340 751 418 848 q 262 490 262 654 q 340 227 262 323 q 552 131 418 131 q 756 228 681 131 q 831 490 831 324 q 756 751 831 655 q 552 848 681 848 m 859 0 l 859 161 l 847 161 q 719 27 807 78 q 526 -24 630 -24 q 202 113 319 -24 q 84 490 84 250 q 202 866 84 729 q 526 1003 319 1003 q 719 953 629 1003 q 847 823 808 903 l 859 823 l 859 979 l 1475 979 l 1475 827 l 1008 827 l 1008 568 l 1450 568 l 1450 425 l 1008 425 l 1008 151 l 1475 151 l 1475 0 l 859 0 z "},"œ":{"ha":1360,"x_min":68,"x_max":1295,"o":"m 964 -15 q 803 22 875 -15 q 698 121 732 58 l 686 121 q 581 22 652 59 q 419 -15 509 -15 q 162 89 256 -15 q 68 370 68 192 q 162 653 68 550 q 420 757 256 757 q 578 721 509 757 q 687 618 648 684 l 699 618 q 807 720 737 683 q 963 757 876 757 q 1205 656 1116 757 q 1295 383 1295 555 l 1295 329 l 777 329 l 777 320 q 830 173 780 227 q 962 119 880 119 q 1128 204 1090 119 l 1286 204 q 1176 44 1263 102 q 964 -15 1089 -15 m 1126 443 q 1078 574 1124 526 q 956 623 1032 623 q 832 574 881 623 q 777 443 783 525 l 1126 443 m 241 370 q 289 190 241 254 q 425 126 337 126 q 561 190 513 126 q 609 370 609 254 q 561 551 609 487 q 425 616 513 616 q 290 551 338 616 q 241 370 241 487 z "},"Ŕ":{"ha":943,"x_min":121,"x_max":882,"o":"m 296 833 l 296 506 l 498 506 q 627 549 581 506 q 673 669 673 591 q 625 790 673 746 q 494 833 577 833 l 296 833 m 296 367 l 296 0 l 121 0 l 121 979 l 518 979 q 762 896 672 979 q 852 673 852 814 q 804 500 852 575 q 668 394 755 425 l 882 0 l 682 0 l 490 367 l 296 367 m 514 1075 l 345 1075 l 540 1285 l 732 1285 l 514 1075 z "},"ŕ":{"ha":577,"x_min":103,"x_max":549,"o":"m 103 0 l 103 742 l 265 742 l 265 627 l 277 627 q 347 718 292 682 q 473 754 401 754 q 543 747 518 754 l 543 591 q 456 600 517 600 q 323 553 374 600 q 271 429 271 506 l 271 0 l 103 0 m 356 865 l 192 865 l 361 1100 l 549 1100 l 356 865 z "},"Ŗ":{"ha":943,"x_min":121,"x_max":882,"o":"m 296 833 l 296 506 l 498 506 q 627 549 581 506 q 673 669 673 591 q 625 790 673 746 q 494 833 577 833 l 296 833 m 296 367 l 296 0 l 121 0 l 121 979 l 518 979 q 762 896 672 979 q 852 673 852 814 q 804 500 852 575 q 668 394 755 425 l 882 0 l 682 0 l 490 367 l 296 367 m 429 -347 l 277 -347 l 359 -100 l 530 -100 l 429 -347 z "},"ŗ":{"ha":577,"x_min":31,"x_max":543,"o":"m 103 0 l 103 742 l 265 742 l 265 627 l 277 627 q 347 718 292 682 q 473 754 401 754 q 543 747 518 754 l 543 591 q 456 600 517 600 q 323 553 374 600 q 271 429 271 506 l 271 0 l 103 0 m 184 -347 l 31 -347 l 113 -100 l 285 -100 l 184 -347 z "},"Ř":{"ha":943,"x_min":121,"x_max":882,"o":"m 296 833 l 296 506 l 498 506 q 627 549 581 506 q 673 669 673 591 q 625 790 673 746 q 494 833 577 833 l 296 833 m 296 367 l 296 0 l 121 0 l 121 979 l 518 979 q 762 896 672 979 q 852 673 852 814 q 804 500 852 575 q 668 394 755 425 l 882 0 l 682 0 l 490 367 l 296 367 m 356 1075 l 161 1285 l 320 1285 l 425 1167 l 437 1167 l 543 1285 l 702 1285 l 507 1075 l 356 1075 z "},"ř":{"ha":577,"x_min":11,"x_max":562,"o":"m 103 0 l 103 742 l 265 742 l 265 627 l 277 627 q 347 718 292 682 q 473 754 401 754 q 543 747 518 754 l 543 591 q 456 600 517 600 q 323 553 374 600 q 271 429 271 506 l 271 0 l 103 0 m 374 843 l 199 843 l 11 1079 l 173 1079 l 281 933 l 292 933 l 400 1079 l 562 1079 l 374 843 z "},"Ś":{"ha":918,"x_min":76,"x_max":842,"o":"m 76 266 l 247 266 q 315 161 255 200 q 469 122 376 122 q 611 162 555 122 q 667 263 667 201 q 625 349 667 316 q 488 404 583 382 l 361 433 q 164 531 229 463 q 100 707 100 598 q 200 922 100 841 q 465 1003 300 1003 q 720 923 618 1003 q 827 717 821 843 l 659 717 q 597 819 650 781 q 464 857 545 857 q 328 820 379 857 q 277 720 277 782 q 317 639 277 670 q 448 587 357 608 l 560 562 q 775 463 709 528 q 842 285 842 397 q 739 59 842 142 q 458 -24 635 -24 q 186 54 290 -24 q 76 266 83 133 m 547 1075 l 378 1075 l 573 1285 l 765 1285 l 547 1075 z "},"ś":{"ha":765,"x_min":67,"x_max":698,"o":"m 86 530 q 169 693 86 630 q 383 757 252 757 q 594 701 515 757 q 682 544 673 645 l 524 544 q 478 607 515 584 q 384 629 442 629 q 288 604 326 629 q 250 539 250 579 q 276 488 250 508 q 359 454 303 467 l 490 425 q 648 352 597 400 q 698 222 698 304 q 610 51 698 116 q 382 -15 522 -15 q 160 42 243 -15 q 67 200 77 99 l 233 200 q 284 135 245 158 q 386 113 323 113 q 490 138 450 113 q 530 205 530 163 q 427 289 530 267 l 296 319 q 137 395 189 344 q 86 530 86 446 m 452 865 l 288 865 l 457 1100 l 645 1100 l 452 865 z "},"Ŝ":{"ha":918,"x_min":76,"x_max":842,"o":"m 76 266 l 247 266 q 315 161 255 200 q 469 122 376 122 q 611 162 555 122 q 667 263 667 201 q 625 349 667 316 q 488 404 583 382 l 361 433 q 164 531 229 463 q 100 707 100 598 q 200 922 100 841 q 465 1003 300 1003 q 720 923 618 1003 q 827 717 821 843 l 659 717 q 597 819 650 781 q 464 857 545 857 q 328 820 379 857 q 277 720 277 782 q 317 639 277 670 q 448 587 357 608 l 560 562 q 775 463 709 528 q 842 285 842 397 q 739 59 842 142 q 458 -24 635 -24 q 186 54 290 -24 q 76 266 83 133 m 386 1293 l 543 1293 l 740 1075 l 576 1075 l 471 1199 l 458 1199 l 353 1075 l 189 1075 l 386 1293 z "},"ŝ":{"ha":765,"x_min":67,"x_max":698,"o":"m 86 530 q 169 693 86 630 q 383 757 252 757 q 594 701 515 757 q 682 544 673 645 l 524 544 q 478 607 515 584 q 384 629 442 629 q 288 604 326 629 q 250 539 250 579 q 276 488 250 508 q 359 454 303 467 l 490 425 q 648 352 597 400 q 698 222 698 304 q 610 51 698 116 q 382 -15 522 -15 q 160 42 243 -15 q 67 200 77 99 l 233 200 q 284 135 245 158 q 386 113 323 113 q 490 138 450 113 q 530 205 530 163 q 427 289 530 267 l 296 319 q 137 395 189 344 q 86 530 86 446 m 471 1079 l 659 843 l 496 843 l 389 989 l 377 989 l 269 843 l 107 843 l 295 1079 l 471 1079 z "},"Ş":{"ha":918,"x_min":76,"x_max":842,"o":"m 448 587 l 560 562 q 775 463 709 528 q 842 285 842 397 q 753 71 842 153 q 508 -22 664 -11 l 485 -79 q 587 -112 551 -81 q 623 -196 623 -142 q 576 -295 623 -258 q 447 -331 530 -331 q 348 -319 390 -331 l 348 -234 q 428 -243 378 -243 q 505 -200 505 -243 q 484 -170 505 -179 q 412 -160 462 -160 l 372 -160 l 372 -90 l 401 -22 q 169 68 256 -8 q 76 266 82 144 l 247 266 q 315 161 255 200 q 469 122 376 122 q 611 162 555 122 q 667 263 667 201 q 625 349 667 316 q 488 404 583 382 l 361 433 q 164 531 229 463 q 100 707 100 598 q 200 922 100 841 q 465 1003 300 1003 q 720 923 618 1003 q 827 717 821 843 l 659 717 q 597 819 650 781 q 464 857 545 857 q 328 820 379 857 q 277 720 277 782 q 317 639 277 670 q 448 587 357 608 z "},"ş":{"ha":765,"x_min":67,"x_max":698,"o":"m 359 454 l 490 425 q 648 352 597 400 q 698 222 698 304 q 626 64 698 127 q 436 -12 554 1 l 409 -79 q 511 -112 475 -81 q 547 -196 547 -142 q 500 -295 547 -258 q 371 -331 454 -331 q 272 -319 314 -331 l 272 -234 q 352 -243 302 -243 q 429 -200 429 -243 q 408 -170 429 -179 q 336 -160 386 -160 l 296 -160 l 296 -90 l 329 -13 q 144 54 213 -2 q 67 200 76 109 l 233 200 q 284 135 245 158 q 386 113 323 113 q 490 138 450 113 q 530 205 530 163 q 427 289 530 267 l 296 319 q 137 395 189 344 q 86 530 86 446 q 169 693 86 630 q 383 757 252 757 q 594 701 515 757 q 682 544 673 645 l 524 544 q 478 607 515 584 q 384 629 442 629 q 288 604 326 629 q 250 539 250 579 q 276 488 250 508 q 359 454 303 467 z "},"Š":{"ha":918,"x_min":76,"x_max":842,"o":"m 76 266 l 247 266 q 315 161 255 200 q 469 122 376 122 q 611 162 555 122 q 667 263 667 201 q 625 349 667 316 q 488 404 583 382 l 361 433 q 164 531 229 463 q 100 707 100 598 q 200 922 100 841 q 465 1003 300 1003 q 720 923 618 1003 q 827 717 821 843 l 659 717 q 597 819 650 781 q 464 857 545 857 q 328 820 379 857 q 277 720 277 782 q 317 639 277 670 q 448 587 357 608 l 560 562 q 775 463 709 528 q 842 285 842 397 q 739 59 842 142 q 458 -24 635 -24 q 186 54 290 -24 q 76 266 83 133 m 389 1075 l 194 1285 l 353 1285 l 458 1167 l 471 1167 l 576 1285 l 735 1285 l 540 1075 l 389 1075 z "},"š":{"ha":765,"x_min":67,"x_max":698,"o":"m 86 530 q 169 693 86 630 q 383 757 252 757 q 594 701 515 757 q 682 544 673 645 l 524 544 q 478 607 515 584 q 384 629 442 629 q 288 604 326 629 q 250 539 250 579 q 276 488 250 508 q 359 454 303 467 l 490 425 q 648 352 597 400 q 698 222 698 304 q 610 51 698 116 q 382 -15 522 -15 q 160 42 243 -15 q 67 200 77 99 l 233 200 q 284 135 245 158 q 386 113 323 113 q 490 138 450 113 q 530 205 530 163 q 427 289 530 267 l 296 319 q 137 395 189 344 q 86 530 86 446 m 471 843 l 295 843 l 107 1079 l 269 1079 l 377 933 l 389 933 l 496 1079 l 659 1079 l 471 843 z "},"Ţ":{"ha":903,"x_min":63,"x_max":841,"o":"m 539 0 l 538 0 l 507 -79 q 608 -112 572 -81 q 644 -196 644 -142 q 598 -295 644 -258 q 469 -331 551 -331 q 370 -319 412 -331 l 370 -234 q 450 -243 399 -243 q 527 -200 527 -243 q 505 -170 527 -179 q 434 -160 484 -160 l 394 -160 l 394 -90 l 431 0 l 364 0 l 364 827 l 63 827 l 63 979 l 841 979 l 841 827 l 539 827 l 539 0 z "},"ţ":{"ha":548,"x_min":39,"x_max":483,"o":"m 483 603 l 324 603 l 324 239 q 349 158 324 184 q 426 133 373 133 q 483 136 449 133 l 483 5 q 395 -3 441 -3 q 368 -3 376 -3 l 337 -79 q 439 -112 403 -81 q 475 -196 475 -142 q 428 -295 475 -258 q 299 -331 382 -331 q 200 -319 242 -331 l 200 -234 q 280 -243 230 -243 q 357 -200 357 -243 q 336 -170 357 -179 q 264 -160 314 -160 l 224 -160 l 224 -90 l 268 13 q 183 77 210 33 q 157 198 157 122 l 157 603 l 39 603 l 39 737 l 157 737 l 157 924 l 324 924 l 324 737 l 483 737 l 483 603 z "},"Ť":{"ha":903,"x_min":63,"x_max":841,"o":"m 539 0 l 364 0 l 364 827 l 63 827 l 63 979 l 841 979 l 841 827 l 539 827 l 539 0 m 375 1075 l 180 1285 l 339 1285 l 444 1167 l 456 1167 l 562 1285 l 721 1285 l 526 1075 l 375 1075 z "},"ť":{"ha":548,"x_min":39,"x_max":552,"o":"m 401 1173 l 552 1173 l 518 835 l 401 835 l 401 1173 m 157 924 l 324 924 l 324 737 l 483 737 l 483 603 l 324 603 l 324 239 q 349 158 324 184 q 426 133 373 133 q 483 136 449 133 l 483 5 q 395 -3 441 -3 q 212 43 267 -3 q 157 198 157 90 l 157 603 l 39 603 l 39 737 l 157 737 l 157 924 z "},"Ŧ":{"ha":903,"x_min":63,"x_max":841,"o":"m 841 827 l 539 827 l 539 541 l 735 541 l 735 412 l 539 412 l 539 0 l 364 0 l 364 412 l 165 412 l 165 541 l 364 541 l 364 827 l 63 827 l 63 979 l 841 979 l 841 827 z "},"ŧ":{"ha":546,"x_min":38,"x_max":491,"o":"m 491 334 l 324 334 l 324 239 q 349 158 324 184 q 426 133 373 133 q 483 136 449 133 l 483 5 q 395 -3 441 -3 q 212 43 267 -3 q 157 198 157 90 l 157 334 l 38 334 l 38 439 l 157 439 l 157 603 l 39 603 l 39 737 l 157 737 l 157 924 l 324 924 l 324 737 l 483 737 l 483 603 l 324 603 l 324 439 l 491 439 l 491 334 z "},"Ũ":{"ha":1051,"x_min":123,"x_max":928,"o":"m 298 979 l 298 353 q 358 192 298 252 q 526 132 418 132 q 693 192 633 132 q 753 353 753 252 l 753 979 l 928 979 l 928 337 q 819 75 928 175 q 526 -24 709 -24 q 233 75 342 -24 q 123 337 123 175 l 123 979 l 298 979 m 625 1067 q 558 1083 589 1067 q 510 1118 528 1099 q 472 1153 492 1137 q 435 1168 452 1168 q 372 1069 373 1168 l 256 1069 q 302 1222 256 1165 q 427 1279 349 1279 q 481 1269 456 1279 q 524 1244 506 1259 q 556 1214 541 1229 q 587 1189 571 1199 q 616 1179 602 1179 q 679 1277 678 1179 l 794 1277 q 748 1124 794 1181 q 625 1067 703 1067 z "},"ũ":{"ha":852,"x_min":96,"x_max":749,"o":"m 749 742 l 749 0 l 587 0 l 587 118 l 575 118 q 353 -15 519 -15 q 164 57 232 -15 q 96 260 96 130 l 96 742 l 264 742 l 264 302 q 300 175 264 216 q 412 133 336 133 q 537 180 493 133 q 581 310 581 227 l 581 742 l 749 742 m 524 844 q 457 860 488 844 q 409 894 427 876 q 371 929 391 913 q 334 945 351 945 q 271 845 272 945 l 155 845 q 201 998 155 941 q 326 1055 248 1055 q 380 1045 355 1055 q 422 1020 405 1035 q 455 990 440 1005 q 486 965 470 975 q 515 955 501 955 q 578 1053 577 955 l 693 1053 q 647 900 693 957 q 524 844 602 844 z "},"Ū":{"ha":1051,"x_min":123,"x_max":928,"o":"m 298 979 l 298 353 q 358 192 298 252 q 526 132 418 132 q 693 192 633 132 q 753 353 753 252 l 753 979 l 928 979 l 928 337 q 819 75 928 175 q 526 -24 709 -24 q 233 75 342 -24 q 123 337 123 175 l 123 979 l 298 979 m 770 1215 l 770 1104 l 281 1104 l 281 1215 l 770 1215 z "},"ū":{"ha":852,"x_min":96,"x_max":749,"o":"m 749 742 l 749 0 l 587 0 l 587 118 l 575 118 q 353 -15 519 -15 q 164 57 232 -15 q 96 260 96 130 l 96 742 l 264 742 l 264 302 q 300 175 264 216 q 412 133 336 133 q 537 180 493 133 q 581 310 581 227 l 581 742 l 749 742 m 664 996 l 664 885 l 181 885 l 181 996 l 664 996 z "},"Ŭ":{"ha":1051,"x_min":123,"x_max":928,"o":"m 298 979 l 298 353 q 358 192 298 252 q 526 132 418 132 q 693 192 633 132 q 753 353 753 252 l 753 979 l 928 979 l 928 337 q 819 75 928 175 q 526 -24 709 -24 q 233 75 342 -24 q 123 337 123 175 l 123 979 l 298 979 m 263 1289 l 391 1289 q 428 1206 392 1236 q 526 1175 465 1175 q 623 1206 587 1175 q 661 1289 659 1236 l 788 1289 q 717 1130 788 1190 q 526 1070 646 1070 q 334 1130 405 1070 q 263 1289 263 1190 z "},"ŭ":{"ha":852,"x_min":96,"x_max":749,"o":"m 749 742 l 749 0 l 587 0 l 587 118 l 575 118 q 353 -15 519 -15 q 164 57 232 -15 q 96 260 96 130 l 96 742 l 264 742 l 264 302 q 300 175 264 216 q 412 133 336 133 q 537 180 493 133 q 581 310 581 227 l 581 742 l 749 742 m 159 1075 l 287 1075 q 324 983 288 1018 q 422 949 359 949 q 520 983 484 949 q 557 1075 555 1018 l 684 1075 q 613 907 684 972 q 422 843 543 843 q 230 907 301 843 q 159 1075 159 972 z "},"Ů":{"ha":1051,"x_min":123,"x_max":928,"o":"m 298 979 l 298 353 q 358 192 298 252 q 526 132 418 132 q 693 192 633 132 q 753 353 753 252 l 753 979 l 928 979 l 928 337 q 819 75 928 175 q 526 -24 709 -24 q 233 75 342 -24 q 123 337 123 175 l 123 979 l 298 979 m 624 1088 q 604 1069 624 1088 q 526 1050 584 1050 q 428 1088 467 1050 q 388 1185 388 1127 q 428 1280 388 1242 q 526 1319 467 1319 q 624 1280 584 1319 q 663 1185 663 1242 q 624 1088 663 1127 m 477 1137 q 487 1128 477 1137 q 526 1118 496 1118 q 574 1137 555 1118 q 593 1184 593 1156 q 574 1232 593 1213 q 526 1251 555 1251 q 477 1232 496 1251 q 458 1184 458 1213 q 477 1137 458 1156 z "},"ů":{"ha":852,"x_min":96,"x_max":749,"o":"m 749 742 l 749 0 l 587 0 l 587 118 l 575 118 q 353 -15 519 -15 q 164 57 232 -15 q 96 260 96 130 l 96 742 l 264 742 l 264 302 q 300 175 264 216 q 412 133 336 133 q 537 180 493 133 q 581 310 581 227 l 581 742 l 749 742 m 538 889 q 515 866 538 889 q 422 843 492 843 q 306 889 353 843 q 259 1003 259 935 q 306 1117 259 1072 q 422 1162 353 1162 q 538 1117 492 1162 q 585 1003 585 1072 q 538 889 585 935 m 422 928 q 476 949 455 928 q 498 1002 498 970 q 476 1056 498 1035 q 422 1078 455 1078 q 368 1056 389 1078 q 347 1002 347 1035 q 368 949 347 970 q 422 928 389 928 z "},"Ű":{"ha":1051,"x_min":123,"x_max":928,"o":"m 298 979 l 298 353 q 358 192 298 252 q 526 132 418 132 q 693 192 633 132 q 753 353 753 252 l 753 979 l 928 979 l 928 337 q 819 75 928 175 q 526 -24 709 -24 q 233 75 342 -24 q 123 337 123 175 l 123 979 l 298 979 m 724 1075 l 568 1075 l 753 1285 l 925 1285 l 724 1075 m 433 1075 l 277 1075 l 462 1285 l 634 1285 l 433 1075 z "},"ű":{"ha":852,"x_min":96,"x_max":789,"o":"m 749 742 l 749 0 l 587 0 l 587 118 l 575 118 q 353 -15 519 -15 q 164 57 232 -15 q 96 260 96 130 l 96 742 l 264 742 l 264 302 q 300 175 264 216 q 412 133 336 133 q 537 180 493 133 q 581 310 581 227 l 581 742 l 749 742 m 472 865 l 626 1100 l 789 1100 l 616 865 l 472 865 m 185 865 l 339 1100 l 503 1100 l 329 865 l 185 865 z "},"Ų":{"ha":1050,"x_min":123,"x_max":928,"o":"m 708 -308 q 579 -267 628 -308 q 530 -163 530 -226 q 555 -80 530 -117 q 618 -20 581 -43 l 618 -8 q 526 -24 586 -24 q 234 74 344 -24 q 123 337 123 173 l 123 979 l 298 979 l 298 353 q 359 192 298 251 q 526 132 420 132 q 692 192 631 132 q 753 353 753 251 l 753 979 l 928 979 l 928 337 q 887 169 928 245 q 762 18 847 92 q 669 -127 669 -63 q 690 -176 669 -158 q 747 -195 712 -195 q 793 -190 775 -195 l 793 -294 q 708 -308 758 -308 z "},"ų":{"ha":852,"x_min":96,"x_max":749,"o":"m 731 -294 q 646 -308 696 -308 q 517 -267 567 -308 q 467 -161 467 -225 q 501 -65 467 -109 q 587 0 535 -22 l 587 118 l 575 118 q 353 -15 519 -15 q 164 57 232 -15 q 96 260 96 130 l 96 742 l 264 742 l 264 302 q 300 175 264 216 q 412 133 336 133 q 537 180 493 133 q 581 310 581 227 l 581 742 l 749 742 l 749 0 l 730 -4 q 641 -56 675 -22 q 606 -129 606 -90 q 628 -176 606 -158 q 685 -195 649 -195 q 731 -190 715 -195 l 731 -294 z "},"Ŵ":{"ha":1381,"x_min":60,"x_max":1321,"o":"m 685 693 l 487 0 l 322 0 l 60 979 l 242 979 l 410 250 l 420 250 l 612 979 l 768 979 l 963 250 l 972 250 l 1140 979 l 1321 979 l 1059 0 l 895 0 l 695 693 l 685 693 m 612 1293 l 769 1293 l 966 1075 l 802 1075 l 696 1199 l 684 1199 l 579 1075 l 415 1075 l 612 1293 z "},"ŵ":{"ha":1140,"x_min":43,"x_max":1097,"o":"m 1097 742 l 896 0 l 719 0 l 574 534 l 563 534 l 419 0 l 244 0 l 43 742 l 213 742 l 336 188 l 348 188 l 490 742 l 651 742 l 795 188 l 806 188 l 929 742 l 1097 742 m 659 1079 l 846 843 l 684 843 l 576 989 l 565 989 l 457 843 l 295 843 l 483 1079 l 659 1079 z "},"Ŷ":{"ha":958,"x_min":48,"x_max":909,"o":"m 566 0 l 391 0 l 391 382 l 48 979 l 240 979 l 473 560 l 485 560 l 718 979 l 909 979 l 566 382 l 566 0 m 400 1293 l 557 1293 l 754 1075 l 590 1075 l 485 1199 l 473 1199 l 368 1075 l 203 1075 l 400 1293 z "},"ŷ":{"ha":802,"x_min":41,"x_max":761,"o":"m 184 -269 q 118 -267 132 -269 l 118 -129 q 164 -132 131 -132 q 249 -109 218 -132 q 297 -36 281 -87 l 306 -3 l 41 742 l 225 742 l 399 163 l 410 163 l 583 742 l 761 742 l 493 -24 q 378 -215 446 -161 q 184 -269 310 -269 m 489 1079 l 677 843 l 515 843 l 407 989 l 395 989 l 288 843 l 125 843 l 313 1079 l 489 1079 z "},"Ÿ":{"ha":958,"x_min":48,"x_max":909,"o":"m 566 0 l 391 0 l 391 382 l 48 979 l 240 979 l 473 560 l 485 560 l 718 979 l 909 979 l 566 382 l 566 0 m 397 1097 q 383 1083 397 1097 q 328 1069 369 1069 q 258 1097 286 1069 q 231 1165 231 1124 q 258 1233 231 1206 q 328 1261 286 1261 q 397 1233 369 1261 q 425 1165 425 1206 q 397 1097 425 1124 m 699 1097 q 685 1083 699 1097 q 629 1069 671 1069 q 560 1097 588 1069 q 532 1165 532 1124 q 560 1233 532 1206 q 629 1261 588 1261 q 699 1233 671 1261 q 726 1165 726 1206 q 699 1097 726 1124 z "},"Ź":{"ha":931,"x_min":94,"x_max":838,"o":"m 94 0 l 94 119 l 608 816 l 608 827 l 108 827 l 108 979 l 825 979 l 825 859 l 312 163 l 312 151 l 838 151 l 838 0 l 94 0 m 549 1075 l 379 1075 l 574 1285 l 766 1285 l 549 1075 z "},"ź":{"ha":773,"x_min":86,"x_max":687,"o":"m 86 0 l 86 105 l 480 595 l 480 606 l 90 606 l 90 742 l 681 742 l 681 627 l 301 147 l 301 136 l 687 136 l 687 0 l 86 0 m 452 865 l 288 865 l 457 1100 l 645 1100 l 452 865 z "},"Ż":{"ha":931,"x_min":94,"x_max":838,"o":"m 94 0 l 94 119 l 608 816 l 608 827 l 108 827 l 108 979 l 825 979 l 825 859 l 312 163 l 312 151 l 838 151 l 838 0 l 94 0 m 536 1098 q 522 1084 536 1098 q 466 1070 508 1070 q 396 1098 424 1070 q 368 1168 368 1126 q 396 1238 368 1210 q 466 1266 423 1266 q 536 1238 508 1266 q 564 1168 564 1210 q 536 1098 564 1126 z "},"ż":{"ha":773,"x_min":86,"x_max":687,"o":"m 86 0 l 86 105 l 480 595 l 480 606 l 90 606 l 90 742 l 681 742 l 681 627 l 301 147 l 301 136 l 687 136 l 687 0 l 86 0 m 455 898 q 441 883 455 898 q 383 869 427 869 q 311 898 340 869 q 282 970 282 927 q 311 1041 282 1013 q 383 1070 340 1070 q 455 1041 426 1070 q 484 970 484 1012 q 455 898 484 927 z "},"Ž":{"ha":931,"x_min":94,"x_max":838,"o":"m 94 0 l 94 119 l 608 816 l 608 827 l 108 827 l 108 979 l 825 979 l 825 859 l 312 163 l 312 151 l 838 151 l 838 0 l 94 0 m 391 1075 l 195 1285 l 355 1285 l 460 1167 l 472 1167 l 577 1285 l 736 1285 l 541 1075 l 391 1075 z "},"ž":{"ha":773,"x_min":86,"x_max":687,"o":"m 86 0 l 86 105 l 480 595 l 480 606 l 90 606 l 90 742 l 681 742 l 681 627 l 301 147 l 301 136 l 687 136 l 687 0 l 86 0 m 471 843 l 295 843 l 107 1079 l 269 1079 l 377 933 l 389 933 l 496 1079 l 659 1079 l 471 843 z "},"Ə":{"ha":1040,"x_min":77,"x_max":954,"o":"m 514 -24 q 195 108 312 -24 q 77 465 79 240 l 78 531 l 770 531 l 770 545 q 695 764 771 678 q 500 850 619 850 q 267 708 328 850 l 90 708 q 239 925 129 846 q 502 1003 349 1003 q 831 863 708 1003 q 954 488 954 723 q 833 117 954 258 q 514 -24 712 -24 m 516 129 q 686 201 618 129 q 768 394 755 273 l 263 394 q 340 200 273 271 q 516 129 408 129 z "},"ƒ":{"ha":938,"x_min":65,"x_max":868,"o":"m 868 980 l 868 836 q 749 848 821 848 q 586 712 606 848 l 568 592 l 809 592 l 809 463 l 548 463 l 515 245 q 420 47 495 110 q 212 -16 345 -16 q 65 0 130 -16 l 65 148 q 192 128 124 128 q 343 255 324 128 l 374 463 l 155 463 l 155 592 l 394 592 l 415 729 q 514 925 435 859 q 728 991 593 991 q 868 980 813 991 z "},"Ơ":{"ha":1114,"x_min":79,"x_max":1044,"o":"m 543 -24 q 204 114 328 -24 q 79 490 79 252 q 204 865 79 726 q 543 1003 330 1003 q 689 987 600 1003 q 831 971 779 971 q 888 986 871 971 q 905 1033 905 1001 l 905 1138 l 1044 1138 l 1044 989 q 1008 892 1044 927 q 910 857 971 857 l 869 857 l 869 847 q 967 704 930 803 q 1005 490 1005 605 q 881 114 1005 253 q 543 -24 757 -24 m 543 131 q 750 228 673 131 q 826 490 826 326 q 750 751 826 654 q 543 848 673 848 q 335 751 412 848 q 258 490 258 654 q 335 228 258 325 q 543 131 411 131 z "},"ơ":{"ha":900,"x_min":66,"x_max":830,"o":"m 423 126 q 559 190 511 126 q 607 371 607 254 q 559 552 607 488 q 423 616 511 616 q 287 552 336 616 q 239 371 239 488 q 287 190 239 254 q 423 126 335 126 m 780 371 q 685 88 780 191 q 423 -15 590 -15 q 161 88 256 -15 q 66 371 66 191 q 162 654 66 551 q 423 757 257 757 q 528 746 472 757 q 617 734 584 734 q 675 748 659 734 q 691 794 691 762 l 691 891 l 830 891 l 830 748 q 799 657 830 690 q 717 625 768 625 l 683 625 l 683 618 q 753 521 726 589 q 780 371 780 454 z "},"Ư":{"ha":1164,"x_min":123,"x_max":1128,"o":"m 526 -24 q 233 75 343 -24 q 123 337 123 174 l 123 979 l 298 979 l 298 353 q 359 192 298 251 q 526 132 420 132 q 692 192 631 132 q 753 353 753 251 l 753 979 l 932 979 q 989 1033 989 979 l 989 1152 l 1128 1152 l 1128 1000 q 1088 897 1128 933 q 981 861 1048 861 l 928 861 l 928 337 q 818 75 928 174 q 526 -24 707 -24 z "},"ư":{"ha":975,"x_min":96,"x_max":937,"o":"m 575 118 q 353 -15 518 -15 q 163 58 231 -15 q 96 260 96 130 l 96 742 l 264 742 l 264 302 q 300 175 264 217 q 412 133 336 133 q 536 180 492 133 q 581 310 581 227 l 581 742 l 741 742 q 798 796 798 742 l 798 903 l 937 903 l 937 763 q 897 660 937 696 q 789 624 857 624 l 749 624 l 749 0 l 587 0 l 587 118 l 575 118 z "},"Ǆ":{"ha":1963,"x_min":121,"x_max":1869,"o":"m 121 979 l 488 979 q 827 851 706 979 q 948 494 948 724 q 828 129 948 258 q 488 0 707 0 l 121 0 l 121 979 m 296 827 l 296 151 l 465 151 q 690 239 611 151 q 770 491 770 328 q 689 739 770 651 q 465 827 609 827 l 296 827 m 1125 0 l 1125 119 l 1640 816 l 1640 827 l 1139 827 l 1139 979 l 1856 979 l 1856 859 l 1343 163 l 1343 151 l 1869 151 l 1869 0 l 1125 0 m 1422 1075 l 1227 1285 l 1386 1285 l 1491 1167 l 1503 1167 l 1609 1285 l 1768 1285 l 1573 1075 l 1422 1075 z "},"ǅ":{"ha":1804,"x_min":121,"x_max":1718,"o":"m 121 979 l 488 979 q 827 851 706 979 q 948 494 948 724 q 828 129 948 258 q 488 0 707 0 l 121 0 l 121 979 m 296 827 l 296 151 l 465 151 q 690 239 611 151 q 770 491 770 328 q 689 739 770 651 q 465 827 609 827 l 296 827 m 1118 0 l 1118 105 l 1512 595 l 1512 606 l 1121 606 l 1121 742 l 1712 742 l 1712 627 l 1333 147 l 1333 136 l 1718 136 l 1718 0 l 1118 0 m 1502 843 l 1326 843 l 1139 1079 l 1301 1079 l 1409 933 l 1420 933 l 1528 1079 l 1690 1079 l 1502 843 z "},"ǆ":{"ha":1663,"x_min":66,"x_max":1577,"o":"m 372 -12 q 149 91 231 -12 q 66 372 66 195 q 149 651 66 547 q 372 754 231 754 q 507 720 448 754 q 597 624 567 685 l 608 624 l 608 1029 l 777 1029 l 777 0 l 614 0 l 614 117 l 602 117 q 510 22 570 56 q 372 -12 449 -12 m 560 547 q 535 579 560 547 q 424 611 510 611 q 288 547 338 611 q 239 371 239 483 q 288 195 239 258 q 424 131 337 131 q 561 195 511 131 q 610 371 610 259 q 560 547 610 482 m 976 0 l 976 105 l 1370 595 l 1370 606 l 979 606 l 979 742 l 1571 742 l 1571 627 l 1191 147 l 1191 136 l 1577 136 l 1577 0 l 976 0 m 1360 843 l 1185 843 l 997 1079 l 1159 1079 l 1267 933 l 1278 933 l 1386 1079 l 1548 1079 l 1360 843 z "},"Ǉ":{"ha":1613,"x_min":121,"x_max":1493,"o":"m 745 153 l 745 0 l 121 0 l 121 979 l 296 979 l 296 153 l 745 153 m 864 267 l 1035 267 q 1074 170 1036 206 q 1175 133 1113 133 q 1281 174 1244 133 q 1318 294 1318 215 l 1318 979 l 1493 979 l 1493 292 q 1409 59 1493 142 q 1177 -24 1326 -24 q 950 55 1036 -24 q 864 267 864 134 z "},"ǈ":{"ha":1195,"x_min":121,"x_max":1103,"o":"m 745 153 l 745 0 l 121 0 l 121 979 l 296 979 l 296 153 l 745 153 m 1083 742 l 1083 -28 q 833 -254 1083 -254 q 793 -252 807 -254 l 793 -119 q 803 -120 793 -119 q 814 -120 812 -120 q 893 -98 870 -120 q 916 -25 916 -76 l 916 742 l 1083 742 m 999 863 q 924 889 954 863 q 895 956 895 915 q 924 1022 895 996 q 999 1048 954 1048 q 1074 1022 1045 1048 q 1103 956 1103 996 q 1074 889 1103 915 q 999 863 1045 863 z "},"ǉ":{"ha":770,"x_min":110,"x_max":677,"o":"m 110 0 l 110 1029 l 278 1029 l 278 0 l 110 0 m 658 742 l 658 -28 q 408 -254 658 -254 q 368 -252 382 -254 l 368 -119 q 378 -120 368 -119 q 389 -120 387 -120 q 468 -98 445 -120 q 490 -25 490 -76 l 490 742 l 658 742 m 574 863 q 499 889 528 863 q 470 956 470 915 q 499 1022 470 996 q 574 1048 528 1048 q 649 1022 620 1048 q 677 956 677 996 q 649 889 677 915 q 574 863 620 863 z "},"Ǌ":{"ha":1857,"x_min":121,"x_max":1736,"o":"m 290 0 l 121 0 l 121 979 l 273 979 l 753 313 l 764 313 l 764 979 l 932 979 l 932 0 l 781 0 l 301 666 l 290 666 l 290 0 m 1107 267 l 1278 267 q 1318 170 1279 206 q 1419 133 1356 133 q 1525 174 1488 133 q 1561 294 1561 215 l 1561 979 l 1736 979 l 1736 292 q 1653 59 1736 142 q 1421 -24 1569 -24 q 1194 55 1280 -24 q 1107 267 1107 134 z "},"ǋ":{"ha":1438,"x_min":121,"x_max":1346,"o":"m 290 0 l 121 0 l 121 979 l 273 979 l 753 313 l 764 313 l 764 979 l 932 979 l 932 0 l 781 0 l 301 666 l 290 666 l 290 0 m 1326 742 l 1326 -28 q 1077 -254 1326 -254 q 1036 -252 1050 -254 l 1036 -119 q 1046 -120 1037 -119 q 1058 -120 1056 -120 q 1136 -98 1114 -120 q 1159 -25 1159 -76 l 1159 742 l 1326 742 m 1242 863 q 1168 889 1197 863 q 1139 956 1139 915 q 1168 1022 1139 996 q 1242 1048 1197 1048 q 1317 1022 1289 1048 q 1346 956 1346 996 q 1317 889 1346 915 q 1242 863 1289 863 z "},"ǌ":{"ha":1227,"x_min":103,"x_max":1141,"o":"m 103 0 l 103 742 l 265 742 l 265 623 l 277 623 q 360 722 304 687 q 497 757 416 757 q 687 685 621 757 q 753 480 753 613 l 753 0 l 585 0 l 585 440 q 435 610 585 610 q 315 562 359 610 q 271 432 271 514 l 271 0 l 103 0 m 1122 742 l 1122 -28 q 872 -254 1122 -254 q 831 -252 846 -254 l 831 -119 q 842 -120 832 -119 q 853 -120 851 -120 q 931 -98 909 -120 q 954 -25 954 -76 l 954 742 l 1122 742 m 1038 863 q 963 889 992 863 q 934 956 934 915 q 963 1022 934 996 q 1038 1048 992 1048 q 1113 1022 1084 1048 q 1141 956 1141 996 q 1113 889 1141 915 q 1038 863 1084 863 z "},"Ǎ":{"ha":987,"x_min":48,"x_max":940,"o":"m 752 0 l 669 250 l 309 250 l 225 0 l 48 0 l 395 979 l 592 979 l 940 0 l 752 0 m 484 792 l 350 389 l 629 389 l 496 792 l 484 792 m 418 1075 l 223 1285 l 382 1285 l 488 1167 l 500 1167 l 605 1285 l 764 1285 l 569 1075 l 418 1075 z "},"ǎ":{"ha":800,"x_min":62,"x_max":701,"o":"m 357 120 q 484 164 433 120 q 534 272 534 208 l 534 331 l 367 320 q 229 220 229 311 q 264 147 229 174 q 357 120 300 120 m 307 -12 q 130 49 199 -12 q 62 210 62 110 q 135 368 62 311 q 343 433 208 425 l 534 444 l 534 507 q 498 591 534 562 q 395 620 463 620 q 298 600 336 620 q 249 543 260 580 l 90 543 q 185 699 100 641 q 403 757 271 757 q 623 691 545 757 q 701 507 701 625 l 701 0 l 538 0 l 538 102 l 527 102 q 438 18 496 48 q 307 -12 380 -12 m 490 843 l 315 843 l 127 1079 l 289 1079 l 397 933 l 408 933 l 516 1079 l 678 1079 l 490 843 z "},"Ǐ":{"ha":416,"x_min":-62,"x_max":479,"o":"m 296 0 l 121 0 l 121 979 l 296 979 l 296 0 m 133 1075 l -62 1285 l 97 1285 l 202 1167 l 214 1167 l 319 1285 l 479 1285 l 283 1075 l 133 1075 z "},"ǐ":{"ha":378,"x_min":-87,"x_max":464,"o":"m 105 0 l 105 742 l 273 742 l 273 0 l 105 0 m 276 843 l 100 843 l -87 1079 l 75 1079 l 182 933 l 194 933 l 302 1079 l 464 1079 l 276 843 z "},"Ǒ":{"ha":1084,"x_min":79,"x_max":1005,"o":"m 543 1003 q 881 865 756 1003 q 1005 490 1005 726 q 881 114 1005 253 q 543 -24 757 -24 q 204 114 328 -24 q 79 490 79 252 q 204 865 79 726 q 543 1003 330 1003 m 543 848 q 335 751 412 848 q 258 490 258 654 q 335 228 258 325 q 543 131 411 131 q 750 228 673 131 q 826 490 826 326 q 750 751 826 654 q 543 848 673 848 m 468 1075 l 273 1285 l 432 1285 l 537 1167 l 549 1167 l 654 1285 l 814 1285 l 618 1075 l 468 1075 z "},"ǒ":{"ha":846,"x_min":66,"x_max":780,"o":"m 423 -15 q 161 88 256 -15 q 66 371 66 191 q 162 653 66 550 q 423 757 258 757 q 685 654 589 757 q 780 371 780 551 q 685 88 780 191 q 423 -15 589 -15 m 287 190 q 311 158 287 190 q 423 126 335 126 q 559 190 511 126 q 607 371 607 254 q 559 551 607 487 q 423 616 511 616 q 287 551 335 616 q 239 371 239 487 q 287 190 239 254 m 511 843 l 335 843 l 147 1079 l 309 1079 l 417 933 l 429 933 l 536 1079 l 699 1079 l 511 843 z "},"Ǔ":{"ha":1051,"x_min":123,"x_max":928,"o":"m 298 979 l 298 353 q 358 192 298 252 q 526 132 418 132 q 693 192 633 132 q 753 353 753 252 l 753 979 l 928 979 l 928 337 q 819 75 928 175 q 526 -24 709 -24 q 233 75 342 -24 q 123 337 123 175 l 123 979 l 298 979 m 450 1075 l 255 1285 l 414 1285 l 519 1167 l 532 1167 l 637 1285 l 796 1285 l 601 1075 l 450 1075 z "},"ǔ":{"ha":852,"x_min":96,"x_max":749,"o":"m 749 742 l 749 0 l 587 0 l 587 118 l 575 118 q 353 -15 519 -15 q 164 57 232 -15 q 96 260 96 130 l 96 742 l 264 742 l 264 302 q 300 175 264 216 q 412 133 336 133 q 537 180 493 133 q 581 310 581 227 l 581 742 l 749 742 m 510 843 l 334 843 l 146 1079 l 309 1079 l 416 933 l 428 933 l 536 1079 l 698 1079 l 510 843 z "},"Ǖ":{"ha":1051,"x_min":123,"x_max":928,"o":"m 298 979 l 298 353 q 358 192 298 252 q 526 132 418 132 q 693 192 633 132 q 753 353 753 252 l 753 979 l 928 979 l 928 337 q 819 75 928 175 q 526 -24 709 -24 q 233 75 342 -24 q 123 337 123 175 l 123 979 l 298 979 m 375 1257 q 443 1231 416 1257 q 470 1164 470 1204 q 443 1097 470 1124 q 375 1070 416 1070 q 307 1097 334 1070 q 279 1164 279 1124 q 307 1231 279 1204 q 375 1257 334 1257 m 281 1442 l 770 1442 l 770 1338 l 281 1338 l 281 1442 m 676 1257 q 745 1231 718 1257 q 772 1164 772 1204 q 745 1097 772 1124 q 676 1070 718 1070 q 608 1097 635 1070 q 581 1164 581 1124 q 608 1231 581 1204 q 676 1257 635 1257 z "},"ǖ":{"ha":852,"x_min":96,"x_max":749,"o":"m 749 742 l 749 0 l 587 0 l 587 118 l 575 118 q 353 -15 519 -15 q 164 57 232 -15 q 96 260 96 130 l 96 742 l 264 742 l 264 302 q 300 175 264 216 q 412 133 336 133 q 537 180 493 133 q 581 310 581 227 l 581 742 l 749 742 m 343 869 q 330 856 343 869 q 277 843 317 843 q 212 869 238 843 q 185 934 185 895 q 212 999 185 972 q 277 1025 238 1025 q 343 999 317 1025 q 369 934 369 972 q 343 869 369 895 m 633 869 q 620 856 633 869 q 568 843 607 843 q 502 869 528 843 q 476 934 476 895 q 502 999 476 972 q 568 1025 528 1025 q 633 999 607 1025 q 660 934 660 972 q 633 869 660 895 m 664 1235 l 664 1124 l 181 1124 l 181 1235 l 664 1235 z "},"Ǘ":{"ha":1051,"x_min":123,"x_max":928,"o":"m 298 979 l 298 353 q 358 192 298 252 q 526 132 418 132 q 693 192 633 132 q 753 353 753 252 l 753 979 l 928 979 l 928 337 q 819 75 928 175 q 526 -24 709 -24 q 233 75 342 -24 q 123 337 123 175 l 123 979 l 298 979 m 452 1298 l 581 1457 l 762 1457 l 599 1298 l 452 1298 m 444 1097 q 430 1084 444 1097 q 375 1070 416 1070 q 306 1097 334 1070 q 278 1165 278 1124 q 306 1234 278 1206 q 375 1261 333 1261 q 444 1234 416 1261 q 471 1165 471 1206 q 444 1097 471 1124 m 745 1097 q 731 1084 745 1097 q 676 1070 718 1070 q 607 1097 635 1070 q 580 1165 580 1124 q 607 1234 580 1206 q 676 1261 635 1261 q 746 1234 718 1261 q 773 1165 773 1206 q 745 1097 773 1124 z "},"ǘ":{"ha":852,"x_min":96,"x_max":749,"o":"m 749 742 l 749 0 l 587 0 l 587 118 l 575 118 q 353 -15 519 -15 q 164 57 232 -15 q 96 260 96 130 l 96 742 l 264 742 l 264 302 q 300 175 264 216 q 412 133 336 133 q 537 180 493 133 q 581 310 581 227 l 581 742 l 749 742 m 343 1097 l 479 1308 l 648 1308 l 488 1097 l 343 1097 m 340 871 q 327 857 340 871 q 271 844 313 844 q 202 871 230 844 q 174 939 174 899 q 202 1007 174 980 q 271 1035 230 1035 q 340 1007 313 1035 q 368 939 368 980 q 340 871 368 899 m 642 871 q 628 857 642 871 q 573 844 614 844 q 504 871 532 844 q 476 939 476 899 q 504 1007 476 980 q 573 1035 532 1035 q 642 1007 614 1035 q 670 939 670 980 q 642 871 670 899 z "},"Ǚ":{"ha":1051,"x_min":123,"x_max":928,"o":"m 298 979 l 298 353 q 358 192 298 252 q 526 132 418 132 q 693 192 633 132 q 753 353 753 252 l 753 979 l 928 979 l 928 337 q 819 75 928 175 q 526 -24 709 -24 q 233 75 342 -24 q 123 337 123 175 l 123 979 l 298 979 m 443 1284 l 251 1470 l 419 1470 l 519 1366 l 532 1366 l 632 1470 l 800 1470 l 608 1284 l 443 1284 m 308 1220 q 321 1233 308 1220 q 375 1246 334 1246 q 443 1220 416 1246 q 469 1155 469 1194 q 443 1089 469 1116 q 375 1063 416 1063 q 308 1089 334 1063 q 281 1155 281 1116 q 308 1220 281 1194 m 609 1220 q 622 1233 609 1220 q 676 1246 635 1246 q 744 1220 717 1246 q 770 1155 770 1194 q 744 1089 770 1116 q 676 1063 717 1063 q 609 1089 635 1063 q 582 1155 582 1116 q 609 1220 582 1194 z "},"ǚ":{"ha":852,"x_min":96,"x_max":749,"o":"m 749 742 l 749 0 l 587 0 l 587 118 l 575 118 q 353 -15 519 -15 q 164 57 232 -15 q 96 260 96 130 l 96 742 l 264 742 l 264 302 q 300 175 264 216 q 412 133 336 133 q 537 180 493 133 q 581 310 581 227 l 581 742 l 749 742 m 343 869 q 330 856 343 869 q 277 843 317 843 q 212 869 238 843 q 185 934 185 895 q 212 999 185 972 q 277 1025 238 1025 q 343 999 317 1025 q 369 934 369 972 q 343 869 369 895 m 633 869 q 620 856 633 869 q 568 843 607 843 q 502 869 528 843 q 476 934 476 895 q 502 999 476 972 q 568 1025 528 1025 q 633 999 607 1025 q 660 934 660 972 q 633 869 660 895 m 507 1088 l 338 1088 l 152 1317 l 310 1317 l 416 1176 l 429 1176 l 535 1317 l 693 1317 l 507 1088 z "},"Ǜ":{"ha":1051,"x_min":123,"x_max":928,"o":"m 298 979 l 298 353 q 358 192 298 252 q 526 132 418 132 q 693 192 633 132 q 753 353 753 252 l 753 979 l 928 979 l 928 337 q 819 75 928 175 q 526 -24 709 -24 q 233 75 342 -24 q 123 337 123 175 l 123 979 l 298 979 m 608 1298 l 460 1298 l 297 1457 l 479 1457 l 608 1298 m 444 1097 q 430 1084 444 1097 q 375 1070 416 1070 q 306 1097 334 1070 q 278 1165 278 1124 q 306 1234 278 1206 q 375 1261 333 1261 q 444 1234 416 1261 q 471 1165 471 1206 q 444 1097 471 1124 m 745 1097 q 731 1084 745 1097 q 676 1070 718 1070 q 607 1097 635 1070 q 580 1165 580 1124 q 607 1234 580 1206 q 676 1261 635 1261 q 746 1234 718 1261 q 773 1165 773 1206 q 745 1097 773 1124 z "},"ǜ":{"ha":852,"x_min":96,"x_max":749,"o":"m 749 742 l 749 0 l 587 0 l 587 118 l 575 118 q 353 -15 519 -15 q 164 57 232 -15 q 96 260 96 130 l 96 742 l 264 742 l 264 302 q 300 175 264 216 q 412 133 336 133 q 537 180 493 133 q 581 310 581 227 l 581 742 l 749 742 m 502 1097 l 357 1097 l 197 1308 l 366 1308 l 502 1097 m 340 872 q 327 859 340 872 q 271 845 313 845 q 202 872 230 845 q 174 941 174 900 q 202 1009 174 981 q 271 1036 230 1036 q 340 1009 313 1036 q 368 941 368 981 q 340 872 368 900 m 642 872 q 628 859 642 872 q 573 845 614 845 q 504 872 532 845 q 476 941 476 900 q 504 1009 476 981 q 573 1036 532 1036 q 642 1009 614 1036 q 670 941 670 981 q 642 872 670 900 z "},"ǝ":{"ha":833,"x_min":72,"x_max":760,"o":"m 412 119 q 537 169 488 119 q 591 302 586 219 l 240 302 q 288 169 241 218 q 412 119 335 119 m 240 538 l 81 538 q 194 697 107 637 q 408 757 281 757 q 666 654 571 757 q 760 376 760 551 q 667 90 760 195 q 412 -15 574 -15 q 161 87 251 -15 q 72 371 72 189 l 74 416 l 591 416 l 591 422 q 540 569 591 514 q 406 623 489 623 q 240 538 283 623 z "},"Ǟ":{"ha":987,"x_min":48,"x_max":940,"o":"m 752 0 l 669 250 l 309 250 l 225 0 l 48 0 l 395 979 l 592 979 l 940 0 l 752 0 m 484 792 l 350 389 l 629 389 l 496 792 l 484 792 m 343 1257 q 411 1231 384 1257 q 438 1164 438 1204 q 411 1097 438 1124 q 343 1070 384 1070 q 275 1097 302 1070 q 248 1164 248 1124 q 275 1231 248 1204 q 343 1257 302 1257 m 250 1442 l 738 1442 l 738 1338 l 250 1338 l 250 1442 m 644 1257 q 713 1231 686 1257 q 740 1164 740 1204 q 713 1097 740 1124 q 644 1070 686 1070 q 576 1097 604 1070 q 549 1164 549 1124 q 576 1231 549 1204 q 644 1257 604 1257 z "},"ǟ":{"ha":800,"x_min":62,"x_max":701,"o":"m 357 120 q 484 164 433 120 q 534 272 534 208 l 534 331 l 367 320 q 229 220 229 311 q 264 147 229 174 q 357 120 300 120 m 307 -12 q 130 49 199 -12 q 62 210 62 110 q 135 368 62 311 q 343 433 208 425 l 534 444 l 534 507 q 498 591 534 562 q 395 620 463 620 q 298 600 336 620 q 249 543 260 580 l 90 543 q 185 699 100 641 q 403 757 271 757 q 623 691 545 757 q 701 507 701 625 l 701 0 l 538 0 l 538 102 l 527 102 q 438 18 496 48 q 307 -12 380 -12 m 323 869 q 310 856 323 869 q 258 843 297 843 q 192 869 218 843 q 165 934 165 895 q 192 999 165 972 q 258 1025 218 1025 q 323 999 297 1025 q 349 934 349 972 q 323 869 349 895 m 614 869 q 601 856 614 869 q 548 843 587 843 q 483 869 509 843 q 456 934 456 895 q 483 999 456 972 q 548 1025 509 1025 q 614 999 587 1025 q 640 934 640 972 q 614 869 640 895 m 644 1235 l 644 1124 l 161 1124 l 161 1235 l 644 1235 z "},"Ǡ":{"ha":987,"x_min":48,"x_max":940,"o":"m 752 0 l 669 250 l 309 250 l 225 0 l 48 0 l 395 979 l 592 979 l 940 0 l 752 0 m 484 792 l 350 389 l 629 389 l 496 792 l 484 792 m 563 1096 q 549 1082 563 1096 q 494 1069 535 1069 q 425 1096 452 1069 q 397 1162 397 1122 q 425 1229 397 1202 q 494 1256 452 1256 q 563 1229 535 1256 q 591 1162 591 1202 q 563 1096 591 1122 m 738 1442 l 738 1338 l 250 1338 l 250 1442 l 738 1442 z "},"ǡ":{"ha":800,"x_min":62,"x_max":701,"o":"m 357 120 q 484 164 433 120 q 534 272 534 208 l 534 331 l 367 320 q 229 220 229 311 q 264 147 229 174 q 357 120 300 120 m 307 -12 q 130 49 199 -12 q 62 210 62 110 q 135 368 62 311 q 343 433 208 425 l 534 444 l 534 507 q 498 591 534 562 q 395 620 463 620 q 298 600 336 620 q 249 543 260 580 l 90 543 q 185 699 100 641 q 403 757 271 757 q 623 691 545 757 q 701 507 701 625 l 701 0 l 538 0 l 538 102 l 527 102 q 438 18 496 48 q 307 -12 380 -12 m 470 870 q 457 856 470 870 q 403 843 444 843 q 335 870 362 843 q 309 937 309 897 q 335 1004 309 977 q 403 1031 362 1031 q 470 1004 444 1031 q 497 937 497 977 q 470 870 497 897 m 644 1235 l 644 1124 l 161 1124 l 161 1235 l 644 1235 z "},"Ǣ":{"ha":1373,"x_min":48,"x_max":1277,"o":"m 578 838 l 394 409 l 671 409 l 671 838 l 578 838 m 671 0 l 671 270 l 340 270 l 222 0 l 48 0 l 465 979 l 1277 979 l 1277 827 l 834 827 l 834 564 l 1252 564 l 1252 420 l 834 420 l 834 151 l 1277 151 l 1277 0 l 671 0 m 1256 1215 l 1256 1104 l 768 1104 l 768 1215 l 1256 1215 z "},"ǣ":{"ha":1276,"x_min":62,"x_max":1207,"o":"m 885 -15 q 725 24 798 -15 q 621 127 653 63 l 609 127 q 497 23 568 60 q 334 -15 426 -15 q 136 47 211 -15 q 62 210 62 109 q 135 368 62 311 q 343 433 208 425 l 534 444 l 534 500 q 498 589 534 559 q 395 620 462 620 q 249 543 273 620 l 90 543 q 183 697 100 638 q 389 757 266 757 q 536 726 475 757 q 629 643 597 696 l 641 643 q 742 726 677 694 q 882 757 806 757 q 1120 658 1034 757 q 1207 389 1207 559 l 1207 332 l 696 332 l 696 317 q 750 173 699 227 q 884 119 802 119 q 1041 204 1000 119 l 1200 204 q 1092 43 1175 102 q 885 -15 1008 -15 m 873 623 q 748 575 796 623 q 696 446 701 527 l 1040 446 q 990 574 1037 525 q 873 623 944 623 m 361 119 q 486 164 437 119 q 534 273 534 209 l 534 331 l 367 320 q 229 218 229 311 q 265 145 229 172 q 361 119 301 119 m 897 996 l 897 885 l 414 885 l 414 996 l 897 996 z "},"Ǧ":{"ha":1049,"x_min":79,"x_max":967,"o":"m 967 392 q 851 89 967 201 q 539 -24 735 -24 q 203 114 326 -24 q 79 490 79 252 q 203 864 79 724 q 536 1003 328 1003 q 821 913 706 1003 q 959 674 935 824 l 785 674 q 694 802 758 758 q 536 847 630 847 q 333 751 408 847 q 258 491 258 656 q 335 228 258 324 q 542 132 411 132 q 724 194 654 132 q 795 357 793 256 l 796 378 l 561 378 l 561 515 l 967 515 l 967 392 m 461 1076 l 266 1286 l 425 1286 l 530 1168 l 543 1168 l 648 1286 l 807 1286 l 612 1076 l 461 1076 z "},"ǧ":{"ha":878,"x_min":65,"x_max":775,"o":"m 286 210 q 310 179 286 210 q 422 148 334 148 q 559 210 509 148 q 610 379 610 273 q 559 548 610 486 q 422 611 509 611 q 287 549 335 611 q 238 379 238 486 q 286 210 238 272 m 422 -282 q 192 -224 280 -282 q 93 -71 103 -167 l 262 -71 q 313 -132 270 -109 q 425 -154 356 -154 q 559 -115 511 -154 q 607 -7 607 -77 l 607 134 l 595 134 q 505 42 564 74 q 369 11 446 11 q 147 111 229 11 q 65 379 65 211 q 148 652 65 550 q 372 754 231 754 q 509 719 448 754 q 602 623 571 684 l 613 623 l 613 742 l 775 742 l 775 -3 q 680 -207 775 -132 q 422 -282 584 -282 m 511 843 l 336 843 l 148 1079 l 310 1079 l 418 933 l 429 933 l 537 1079 l 699 1079 l 511 843 z "},"Ǩ":{"ha":960,"x_min":121,"x_max":923,"o":"m 296 0 l 121 0 l 121 979 l 296 979 l 296 528 l 307 528 l 693 979 l 894 979 l 524 552 l 923 0 l 709 0 l 400 432 l 296 312 l 296 0 m 389 1075 l 193 1285 l 353 1285 l 458 1167 l 470 1167 l 575 1285 l 734 1285 l 539 1075 l 389 1075 z "},"ǩ":{"ha":806,"x_min":-77,"x_max":779,"o":"m 290 439 l 564 742 l 759 742 l 463 424 l 779 0 l 576 0 l 338 318 l 278 258 l 278 0 l 110 0 l 110 1029 l 278 1029 l 278 439 l 290 439 m 119 1125 l -77 1335 l 83 1335 l 188 1217 l 200 1217 l 305 1335 l 465 1335 l 269 1125 l 119 1125 z "},"Ǫ":{"ha":1084,"x_min":79,"x_max":1005,"o":"m 720 -308 q 591 -267 641 -308 q 541 -163 541 -227 q 565 -82 541 -120 q 630 -20 589 -45 l 630 -8 q 594 -20 620 -15 q 543 -24 568 -24 q 204 114 328 -24 q 79 490 79 252 q 204 865 79 726 q 543 1003 330 1003 q 881 865 756 1003 q 1005 490 1005 726 q 950 226 1005 340 q 775 15 895 112 q 680 -127 680 -62 q 702 -176 680 -157 q 759 -195 723 -195 q 805 -190 789 -195 l 805 -294 q 720 -308 769 -308 m 543 848 q 335 751 412 848 q 258 490 258 654 q 335 228 258 325 q 543 131 412 131 q 749 228 673 131 q 826 490 826 326 q 750 751 826 654 q 543 848 673 848 z "},"ǫ":{"ha":846,"x_min":66,"x_max":780,"o":"m 561 -308 q 432 -266 481 -308 q 382 -161 382 -224 q 406 -82 382 -119 q 472 -20 430 -45 l 472 -8 q 423 -15 454 -15 q 161 88 256 -15 q 66 371 66 191 q 162 654 66 551 q 423 757 257 757 q 685 654 589 757 q 780 371 780 551 q 615 14 780 154 q 522 -127 522 -67 q 544 -177 522 -159 q 600 -195 566 -195 q 646 -190 629 -195 l 646 -294 q 561 -308 612 -308 m 423 126 q 559 190 511 126 q 607 371 607 254 q 559 552 607 488 q 423 616 511 616 q 287 552 336 616 q 239 371 239 488 q 287 190 239 254 q 423 126 335 126 z "},"Ǭ":{"ha":1084,"x_min":79,"x_max":1005,"o":"m 720 -308 q 591 -267 641 -308 q 541 -163 541 -227 q 565 -82 541 -120 q 630 -20 589 -45 l 630 -8 q 594 -20 620 -15 q 543 -24 568 -24 q 204 114 328 -24 q 79 490 79 252 q 204 865 79 726 q 543 1003 330 1003 q 881 865 756 1003 q 1005 490 1005 726 q 950 226 1005 340 q 775 15 895 112 q 680 -127 680 -62 q 702 -176 680 -157 q 759 -195 723 -195 q 805 -190 789 -195 l 805 -294 q 720 -308 769 -308 m 543 848 q 335 751 412 848 q 258 490 258 654 q 335 228 258 325 q 543 131 412 131 q 749 228 673 131 q 826 490 826 326 q 750 751 826 654 q 543 848 673 848 m 787 1215 l 787 1104 l 299 1104 l 299 1215 l 787 1215 z "},"ǭ":{"ha":846,"x_min":66,"x_max":780,"o":"m 561 -308 q 432 -266 481 -308 q 382 -161 382 -224 q 406 -82 382 -119 q 472 -20 430 -45 l 472 -8 q 423 -15 454 -15 q 161 88 256 -15 q 66 371 66 191 q 162 654 66 551 q 423 757 257 757 q 685 654 589 757 q 780 371 780 551 q 615 14 780 154 q 522 -127 522 -67 q 544 -177 522 -159 q 600 -195 566 -195 q 646 -190 629 -195 l 646 -294 q 561 -308 612 -308 m 423 126 q 559 190 511 126 q 607 371 607 254 q 559 552 607 488 q 423 616 511 616 q 287 552 336 616 q 239 371 239 488 q 287 190 239 254 q 423 126 335 126 m 665 996 l 665 885 l 182 885 l 182 996 l 665 996 z "},"Ǳ":{"ha":1963,"x_min":121,"x_max":1869,"o":"m 121 979 l 488 979 q 827 851 706 979 q 948 494 948 724 q 828 129 948 258 q 488 0 707 0 l 121 0 l 121 979 m 296 827 l 296 151 l 465 151 q 690 239 611 151 q 770 491 770 328 q 689 739 770 651 q 465 827 609 827 l 296 827 m 1125 0 l 1125 119 l 1640 816 l 1640 827 l 1139 827 l 1139 979 l 1856 979 l 1856 859 l 1343 163 l 1343 151 l 1869 151 l 1869 0 l 1125 0 z "},"ǲ":{"ha":1804,"x_min":121,"x_max":1718,"o":"m 121 979 l 488 979 q 827 851 706 979 q 948 494 948 724 q 828 129 948 258 q 488 0 707 0 l 121 0 l 121 979 m 296 827 l 296 151 l 465 151 q 690 239 611 151 q 770 491 770 328 q 689 739 770 651 q 465 827 609 827 l 296 827 m 1118 0 l 1118 105 l 1512 595 l 1512 606 l 1121 606 l 1121 742 l 1712 742 l 1712 627 l 1333 147 l 1333 136 l 1718 136 l 1718 0 l 1118 0 z "},"ǳ":{"ha":1663,"x_min":66,"x_max":1577,"o":"m 372 -12 q 149 91 231 -12 q 66 372 66 195 q 149 651 66 547 q 372 754 231 754 q 507 720 448 754 q 597 624 567 685 l 608 624 l 608 1029 l 777 1029 l 777 0 l 614 0 l 614 117 l 602 117 q 510 22 570 56 q 372 -12 449 -12 m 560 547 q 535 579 560 547 q 424 611 510 611 q 288 547 338 611 q 239 371 239 483 q 288 195 239 258 q 424 131 337 131 q 561 195 511 131 q 610 371 610 259 q 560 547 610 482 m 976 0 l 976 105 l 1370 595 l 1370 606 l 979 606 l 979 742 l 1571 742 l 1571 627 l 1191 147 l 1191 136 l 1577 136 l 1577 0 l 976 0 z "},"Ǵ":{"ha":1049,"x_min":79,"x_max":967,"o":"m 967 392 q 851 89 967 201 q 539 -24 735 -24 q 203 114 326 -24 q 79 490 79 252 q 203 864 79 724 q 536 1003 328 1003 q 821 913 706 1003 q 959 674 935 824 l 785 674 q 694 802 758 758 q 536 847 630 847 q 333 751 408 847 q 258 491 258 656 q 335 228 258 324 q 542 132 411 132 q 724 194 654 132 q 795 357 793 256 l 796 378 l 561 378 l 561 515 l 967 515 l 967 392 m 619 1076 l 450 1076 l 645 1286 l 837 1286 l 619 1076 z "},"ǵ":{"ha":878,"x_min":65,"x_max":775,"o":"m 286 210 q 310 179 286 210 q 422 148 334 148 q 559 210 509 148 q 610 379 610 273 q 559 548 610 486 q 422 611 509 611 q 287 549 335 611 q 238 379 238 486 q 286 210 238 272 m 422 -282 q 192 -224 280 -282 q 93 -71 103 -167 l 262 -71 q 313 -132 270 -109 q 425 -154 356 -154 q 559 -115 511 -154 q 607 -7 607 -77 l 607 134 l 595 134 q 505 42 564 74 q 369 11 446 11 q 147 111 229 11 q 65 379 65 211 q 148 652 65 550 q 372 754 231 754 q 509 719 448 754 q 602 623 571 684 l 613 623 l 613 742 l 775 742 l 775 -3 q 680 -207 775 -132 q 422 -282 584 -282 m 493 865 l 329 865 l 498 1100 l 686 1100 l 493 865 z "},"Ǹ":{"ha":1054,"x_min":121,"x_max":932,"o":"m 290 0 l 121 0 l 121 979 l 273 979 l 753 313 l 764 313 l 764 979 l 932 979 l 932 0 l 781 0 l 301 666 l 290 666 l 290 0 m 444 1075 l 227 1285 l 418 1285 l 614 1075 l 444 1075 z "},"ǹ":{"ha":849,"x_min":103,"x_max":753,"o":"m 103 0 l 103 742 l 265 742 l 265 623 l 277 623 q 360 722 304 687 q 497 757 416 757 q 687 685 621 757 q 753 480 753 613 l 753 0 l 585 0 l 585 440 q 435 610 585 610 q 315 562 359 610 q 271 432 271 514 l 271 0 l 103 0 m 530 865 l 366 865 l 174 1100 l 361 1100 l 530 865 z "},"Ǻ":{"ha":987,"x_min":48,"x_max":940,"o":"m 752 0 l 669 250 l 309 250 l 225 0 l 48 0 l 395 979 l 592 979 l 940 0 l 752 0 m 484 792 l 350 389 l 629 389 l 496 792 l 484 792 m 595 1079 q 575 1059 595 1079 q 494 1039 554 1039 q 392 1079 433 1039 q 351 1179 351 1120 q 392 1278 351 1238 q 494 1318 433 1318 q 595 1278 554 1318 q 637 1179 637 1238 q 595 1079 637 1120 m 450 1134 q 458 1125 450 1134 q 494 1116 467 1116 q 538 1134 520 1116 q 555 1178 555 1152 q 538 1222 555 1204 q 494 1240 520 1240 q 450 1222 467 1240 q 432 1178 432 1204 q 450 1134 432 1152 m 507 1492 l 667 1492 l 566 1364 l 424 1364 l 507 1492 z "},"ǻ":{"ha":800,"x_min":62,"x_max":701,"o":"m 357 120 q 484 164 433 120 q 534 272 534 208 l 534 331 l 367 320 q 229 220 229 311 q 264 147 229 174 q 357 120 300 120 m 307 -12 q 130 49 199 -12 q 62 210 62 110 q 135 368 62 311 q 343 433 208 425 l 534 444 l 534 507 q 498 591 534 562 q 395 620 463 620 q 298 600 336 620 q 249 543 260 580 l 90 543 q 185 699 100 641 q 403 757 271 757 q 623 691 545 757 q 701 507 701 625 l 701 0 l 538 0 l 538 102 l 527 102 q 438 18 496 48 q 307 -12 380 -12 m 508 862 q 487 841 508 862 q 403 821 465 821 q 298 862 340 821 q 255 965 255 903 q 298 1068 255 1027 q 403 1110 340 1110 q 508 1068 465 1110 q 551 965 551 1027 q 508 862 551 903 m 338 965 q 357 919 338 937 q 403 901 376 901 q 449 919 430 901 q 467 965 467 937 q 449 1011 467 992 q 403 1029 430 1029 q 357 1011 376 1029 q 338 965 338 992 m 336 1165 l 446 1323 l 604 1323 l 470 1165 l 336 1165 z "},"Ǽ":{"ha":1373,"x_min":48,"x_max":1312,"o":"m 578 838 l 394 409 l 671 409 l 671 838 l 578 838 m 671 0 l 671 270 l 340 270 l 222 0 l 48 0 l 465 979 l 1277 979 l 1277 827 l 834 827 l 834 564 l 1252 564 l 1252 420 l 834 420 l 834 151 l 1277 151 l 1277 0 l 671 0 m 1095 1075 l 925 1075 l 1120 1285 l 1312 1285 l 1095 1075 z "},"ǽ":{"ha":1276,"x_min":62,"x_max":1207,"o":"m 885 -15 q 725 24 798 -15 q 621 127 653 63 l 609 127 q 497 23 568 60 q 334 -15 426 -15 q 136 47 211 -15 q 62 210 62 109 q 135 368 62 311 q 343 433 208 425 l 534 444 l 534 500 q 498 589 534 559 q 395 620 462 620 q 249 543 273 620 l 90 543 q 183 697 100 638 q 389 757 266 757 q 536 726 475 757 q 629 643 597 696 l 641 643 q 742 726 677 694 q 882 757 806 757 q 1120 658 1034 757 q 1207 389 1207 559 l 1207 332 l 696 332 l 696 317 q 750 173 699 227 q 884 119 802 119 q 1041 204 1000 119 l 1200 204 q 1092 43 1175 102 q 885 -15 1008 -15 m 873 623 q 748 575 796 623 q 696 446 701 527 l 1040 446 q 990 574 1037 525 q 873 623 944 623 m 361 119 q 486 164 437 119 q 534 273 534 209 l 534 331 l 367 320 q 229 218 229 311 q 265 145 229 172 q 361 119 301 119 m 725 865 l 561 865 l 730 1100 l 918 1100 l 725 865 z "},"Ǿ":{"ha":1069,"x_min":79,"x_max":1005,"o":"m 845 1285 l 627 1075 l 458 1075 l 653 1285 l 845 1285 m 758 740 l 373 189 q 543 131 441 131 q 750 228 673 131 q 826 490 826 326 q 758 740 826 644 m 317 254 l 700 800 q 543 848 633 848 q 335 751 412 848 q 258 490 258 654 q 317 254 258 347 m 923 975 l 861 886 q 968 718 930 819 q 1005 490 1005 616 q 881 114 1005 253 q 543 -24 757 -24 q 276 51 387 -24 l 212 -41 l 143 6 l 212 104 q 79 490 79 243 q 204 865 79 726 q 543 1003 330 1003 q 795 937 690 1003 l 852 1017 l 923 975 z "},"ǿ":{"ha":846,"x_min":66,"x_max":780,"o":"m 674 1100 l 481 865 l 317 865 l 486 1100 l 674 1100 m 574 528 l 331 150 q 423 126 370 126 q 559 190 511 126 q 607 371 607 254 q 574 528 607 467 m 273 212 l 517 591 q 423 616 477 616 q 287 551 335 616 q 239 371 239 487 q 273 212 239 275 m 711 741 l 667 672 q 780 371 780 567 q 685 88 780 191 q 423 -15 589 -15 q 250 22 324 -15 l 209 -41 l 139 3 l 181 68 q 66 371 66 172 q 162 653 66 550 q 423 757 258 757 q 599 718 523 757 l 640 782 l 711 741 z "},"Ȁ":{"ha":987,"x_min":48,"x_max":940,"o":"m 752 0 l 669 250 l 309 250 l 225 0 l 48 0 l 395 979 l 592 979 l 940 0 l 752 0 m 484 792 l 350 389 l 629 389 l 496 792 l 484 792 m 568 1075 l 366 1285 l 538 1285 l 724 1075 l 568 1075 m 277 1075 l 76 1285 l 248 1285 l 433 1075 l 277 1075 z "},"ȁ":{"ha":800,"x_min":28,"x_max":701,"o":"m 357 120 q 484 164 433 120 q 534 272 534 208 l 534 331 l 367 320 q 229 220 229 311 q 264 147 229 174 q 357 120 300 120 m 307 -12 q 130 49 199 -12 q 62 210 62 110 q 135 368 62 311 q 343 433 208 425 l 534 444 l 534 507 q 498 591 534 562 q 395 620 463 620 q 298 600 336 620 q 249 543 260 580 l 90 543 q 185 699 100 641 q 403 757 271 757 q 623 691 545 757 q 701 507 701 625 l 701 0 l 538 0 l 538 102 l 527 102 q 438 18 496 48 q 307 -12 380 -12 m 346 865 l 202 865 l 28 1100 l 192 1100 l 346 865 m 633 865 l 489 865 l 315 1100 l 479 1100 l 633 865 z "},"Ȃ":{"ha":987,"x_min":48,"x_max":940,"o":"m 752 0 l 669 250 l 309 250 l 225 0 l 48 0 l 395 979 l 592 979 l 940 0 l 752 0 m 484 792 l 350 389 l 629 389 l 496 792 l 484 792 m 231 1070 q 302 1229 231 1168 q 494 1289 373 1289 q 685 1229 614 1289 q 756 1070 756 1168 l 629 1070 q 591 1153 627 1122 q 494 1183 555 1183 q 396 1153 433 1183 q 359 1070 360 1122 l 231 1070 z "},"ȃ":{"ha":800,"x_min":62,"x_max":701,"o":"m 357 120 q 484 164 433 120 q 534 272 534 208 l 534 331 l 367 320 q 229 220 229 311 q 264 147 229 174 q 357 120 300 120 m 307 -12 q 130 49 199 -12 q 62 210 62 110 q 135 368 62 311 q 343 433 208 425 l 534 444 l 534 507 q 498 591 534 562 q 395 620 463 620 q 298 600 336 620 q 249 543 260 580 l 90 543 q 185 699 100 641 q 403 757 271 757 q 623 691 545 757 q 701 507 701 625 l 701 0 l 538 0 l 538 102 l 527 102 q 438 18 496 48 q 307 -12 380 -12 m 140 843 q 211 1010 140 946 q 403 1075 282 1075 q 594 1010 524 1075 q 665 843 665 946 l 538 843 q 501 935 536 900 q 403 969 465 969 q 305 935 340 969 q 268 843 269 900 l 140 843 z "},"Ȅ":{"ha":850,"x_min":20,"x_max":754,"o":"m 754 151 l 754 0 l 121 0 l 121 979 l 754 979 l 754 827 l 296 827 l 296 568 l 729 568 l 729 425 l 296 425 l 296 151 l 754 151 m 512 1075 l 310 1285 l 482 1285 l 667 1075 l 512 1075 m 221 1075 l 20 1285 l 192 1285 l 377 1075 l 221 1075 z "},"ȅ":{"ha":819,"x_min":41,"x_max":753,"o":"m 414 623 q 290 574 339 623 q 236 443 241 524 l 585 443 q 536 574 583 526 q 414 623 490 623 m 587 204 l 746 204 q 634 44 722 102 q 416 -15 547 -15 q 160 87 253 -15 q 66 368 66 189 q 160 652 66 547 q 415 757 254 757 q 664 657 574 757 q 753 382 753 558 l 753 328 l 235 328 l 235 319 q 289 173 239 227 q 421 119 338 119 q 587 204 549 119 m 358 865 l 214 865 l 41 1100 l 204 1100 l 358 865 m 645 865 l 501 865 l 328 1100 l 491 1100 l 645 865 z "},"Ȇ":{"ha":850,"x_min":121,"x_max":754,"o":"m 754 151 l 754 0 l 121 0 l 121 979 l 754 979 l 754 827 l 296 827 l 296 568 l 729 568 l 729 425 l 296 425 l 296 151 l 754 151 m 175 1070 q 246 1229 175 1168 q 437 1289 317 1289 q 629 1229 558 1289 q 700 1070 700 1168 l 572 1070 q 535 1153 571 1122 q 437 1183 498 1183 q 340 1153 376 1183 q 302 1070 304 1122 l 175 1070 z "},"ȇ":{"ha":819,"x_min":66,"x_max":753,"o":"m 414 623 q 290 574 339 623 q 236 443 241 524 l 585 443 q 536 574 583 526 q 414 623 490 623 m 587 204 l 746 204 q 634 44 722 102 q 416 -15 547 -15 q 160 87 253 -15 q 66 368 66 189 q 160 652 66 547 q 415 757 254 757 q 664 657 574 757 q 753 382 753 558 l 753 328 l 235 328 l 235 319 q 289 173 239 227 q 421 119 338 119 q 587 204 549 119 m 153 843 q 223 1010 153 946 q 415 1075 294 1075 q 607 1010 536 1075 q 677 843 677 946 l 550 843 q 513 935 549 900 q 415 969 477 969 q 317 935 353 969 q 280 843 281 900 l 153 843 z "},"Ȉ":{"ha":416,"x_min":-210,"x_max":438,"o":"m 296 0 l 121 0 l 121 979 l 296 979 l 296 0 m 283 1075 l 81 1285 l 253 1285 l 438 1075 l 283 1075 m -8 1075 l -210 1285 l -37 1285 l 148 1075 l -8 1075 z "},"ȉ":{"ha":378,"x_min":-186,"x_max":418,"o":"m 105 0 l 105 742 l 273 742 l 273 0 l 105 0 m 132 865 l -12 865 l -186 1100 l -22 1100 l 132 865 m 418 865 l 275 865 l 101 1100 l 264 1100 l 418 865 z "},"Ȋ":{"ha":416,"x_min":-54,"x_max":471,"o":"m 296 0 l 121 0 l 121 979 l 296 979 l 296 0 m -54 1070 q 17 1229 -54 1168 q 208 1289 87 1289 q 400 1229 329 1289 q 471 1070 471 1168 l 343 1070 q 306 1153 342 1122 q 208 1183 269 1183 q 111 1153 147 1183 q 73 1070 75 1122 l -54 1070 z "},"ȋ":{"ha":378,"x_min":-74,"x_max":451,"o":"m 105 0 l 105 742 l 273 742 l 273 0 l 105 0 m -74 843 q -3 1010 -74 946 q 189 1075 68 1075 q 380 1010 309 1075 q 451 843 451 946 l 323 843 q 287 935 322 900 q 189 969 251 969 q 91 935 126 969 q 54 843 55 900 l -74 843 z "},"Ȍ":{"ha":1084,"x_min":79,"x_max":1005,"o":"m 543 1003 q 881 865 756 1003 q 1005 490 1005 726 q 881 114 1005 253 q 543 -24 757 -24 q 204 114 328 -24 q 79 490 79 252 q 204 865 79 726 q 543 1003 330 1003 m 543 848 q 335 751 412 848 q 258 490 258 654 q 335 228 258 325 q 543 131 411 131 q 750 228 673 131 q 826 490 826 326 q 750 751 826 654 q 543 848 673 848 m 618 1075 l 416 1285 l 588 1285 l 773 1075 l 618 1075 m 327 1075 l 125 1285 l 298 1285 l 483 1075 l 327 1075 z "},"ȍ":{"ha":846,"x_min":49,"x_max":780,"o":"m 423 -15 q 161 88 256 -15 q 66 371 66 191 q 162 653 66 550 q 423 757 258 757 q 685 654 589 757 q 780 371 780 551 q 685 88 780 191 q 423 -15 589 -15 m 287 190 q 311 158 287 190 q 423 126 335 126 q 559 190 511 126 q 607 371 607 254 q 559 551 607 487 q 423 616 511 616 q 287 551 335 616 q 239 371 239 487 q 287 190 239 254 m 366 865 l 222 865 l 49 1100 l 212 1100 l 366 865 m 653 865 l 509 865 l 336 1100 l 499 1100 l 653 865 z "},"Ȏ":{"ha":1084,"x_min":79,"x_max":1005,"o":"m 543 1003 q 881 865 756 1003 q 1005 490 1005 726 q 881 114 1005 253 q 543 -24 757 -24 q 204 114 328 -24 q 79 490 79 252 q 204 865 79 726 q 543 1003 330 1003 m 543 848 q 335 751 412 848 q 258 490 258 654 q 335 228 258 325 q 543 131 411 131 q 750 228 673 131 q 826 490 826 326 q 750 751 826 654 q 543 848 673 848 m 281 1070 q 352 1229 281 1168 q 543 1289 422 1289 q 735 1229 664 1289 q 806 1070 806 1168 l 678 1070 q 641 1153 677 1122 q 543 1183 604 1183 q 446 1153 482 1183 q 408 1070 410 1122 l 281 1070 z "},"ȏ":{"ha":846,"x_min":66,"x_max":780,"o":"m 423 -15 q 161 88 256 -15 q 66 371 66 191 q 162 653 66 550 q 423 757 258 757 q 685 654 589 757 q 780 371 780 551 q 685 88 780 191 q 423 -15 589 -15 m 287 190 q 311 158 287 190 q 423 126 335 126 q 559 190 511 126 q 607 371 607 254 q 559 551 607 487 q 423 616 511 616 q 287 551 335 616 q 239 371 239 487 q 287 190 239 254 m 161 843 q 232 1010 161 946 q 423 1075 302 1075 q 615 1010 544 1075 q 686 843 686 946 l 558 843 q 521 935 557 900 q 423 969 486 969 q 325 935 361 969 q 288 843 290 900 l 161 843 z "},"Ȑ":{"ha":943,"x_min":14,"x_max":882,"o":"m 296 833 l 296 506 l 498 506 q 627 549 581 506 q 673 669 673 591 q 625 790 673 746 q 494 833 577 833 l 296 833 m 296 367 l 296 0 l 121 0 l 121 979 l 518 979 q 762 896 672 979 q 852 673 852 814 q 804 500 852 575 q 668 394 755 425 l 882 0 l 682 0 l 490 367 l 296 367 m 506 1075 l 304 1285 l 476 1285 l 661 1075 l 506 1075 m 215 1075 l 14 1285 l 186 1285 l 371 1075 l 215 1075 z "},"ȑ":{"ha":577,"x_min":-87,"x_max":543,"o":"m 103 0 l 103 742 l 265 742 l 265 627 l 277 627 q 347 718 292 682 q 473 754 401 754 q 543 747 518 754 l 543 591 q 456 600 517 600 q 323 553 374 600 q 271 429 271 506 l 271 0 l 103 0 m 230 865 l 86 865 l -87 1100 l 76 1100 l 230 865 m 517 865 l 373 865 l 199 1100 l 363 1100 l 517 865 z "},"Ȓ":{"ha":943,"x_min":121,"x_max":882,"o":"m 296 833 l 296 506 l 498 506 q 627 549 581 506 q 673 669 673 591 q 625 790 673 746 q 494 833 577 833 l 296 833 m 296 367 l 296 0 l 121 0 l 121 979 l 518 979 q 762 896 672 979 q 852 673 852 814 q 804 500 852 575 q 668 394 755 425 l 882 0 l 682 0 l 490 367 l 296 367 m 169 1070 q 240 1229 169 1168 q 431 1289 311 1289 q 623 1229 552 1289 q 694 1070 694 1168 l 566 1070 q 529 1153 565 1122 q 431 1183 492 1183 q 334 1153 370 1183 q 296 1070 298 1122 l 169 1070 z "},"ȓ":{"ha":577,"x_min":24,"x_max":549,"o":"m 103 0 l 103 742 l 265 742 l 265 627 l 277 627 q 347 718 292 682 q 473 754 401 754 q 543 747 518 754 l 543 591 q 456 600 517 600 q 323 553 374 600 q 271 429 271 506 l 271 0 l 103 0 m 24 843 q 95 1010 24 946 q 287 1075 166 1075 q 478 1010 408 1075 q 549 843 549 946 l 422 843 q 385 935 420 900 q 287 969 349 969 q 189 935 224 969 q 152 843 153 900 l 24 843 z "},"Ȕ":{"ha":1051,"x_min":108,"x_max":928,"o":"m 298 979 l 298 353 q 358 192 298 252 q 526 132 418 132 q 693 192 633 132 q 753 353 753 252 l 753 979 l 928 979 l 928 337 q 819 75 928 175 q 526 -24 709 -24 q 233 75 342 -24 q 123 337 123 175 l 123 979 l 298 979 m 600 1075 l 398 1285 l 570 1285 l 755 1075 l 600 1075 m 309 1075 l 108 1285 l 280 1285 l 465 1075 l 309 1075 z "},"ȕ":{"ha":852,"x_min":48,"x_max":749,"o":"m 749 742 l 749 0 l 587 0 l 587 118 l 575 118 q 353 -15 519 -15 q 164 57 232 -15 q 96 260 96 130 l 96 742 l 264 742 l 264 302 q 300 175 264 216 q 412 133 336 133 q 537 180 493 133 q 581 310 581 227 l 581 742 l 749 742 m 366 865 l 222 865 l 48 1100 l 212 1100 l 366 865 m 652 865 l 509 865 l 335 1100 l 498 1100 l 652 865 z "},"Ȗ":{"ha":1051,"x_min":123,"x_max":928,"o":"m 298 979 l 298 353 q 358 192 298 252 q 526 132 418 132 q 693 192 633 132 q 753 353 753 252 l 753 979 l 928 979 l 928 337 q 819 75 928 175 q 526 -24 709 -24 q 233 75 342 -24 q 123 337 123 175 l 123 979 l 298 979 m 263 1070 q 334 1229 263 1168 q 526 1289 405 1289 q 717 1229 646 1289 q 788 1070 788 1168 l 661 1070 q 623 1153 659 1122 q 526 1183 587 1183 q 428 1153 465 1183 q 391 1070 392 1122 l 263 1070 z "},"ȗ":{"ha":852,"x_min":96,"x_max":749,"o":"m 749 742 l 749 0 l 587 0 l 587 118 l 575 118 q 353 -15 519 -15 q 164 57 232 -15 q 96 260 96 130 l 96 742 l 264 742 l 264 302 q 300 175 264 216 q 412 133 336 133 q 537 180 493 133 q 581 310 581 227 l 581 742 l 749 742 m 160 843 q 231 1010 160 946 q 422 1075 302 1075 q 614 1010 543 1075 q 685 843 685 946 l 557 843 q 520 935 556 900 q 422 969 485 969 q 325 935 360 969 q 288 843 289 900 l 160 843 z "},"Ș":{"ha":918,"x_min":76,"x_max":842,"o":"m 76 266 l 247 266 q 315 161 255 200 q 469 122 376 122 q 611 162 555 122 q 667 263 667 201 q 625 349 667 316 q 488 404 583 382 l 361 433 q 164 531 229 463 q 100 707 100 598 q 200 922 100 841 q 465 1003 300 1003 q 720 923 618 1003 q 827 717 821 843 l 659 717 q 597 819 650 781 q 464 857 545 857 q 328 820 379 857 q 277 720 277 782 q 317 639 277 670 q 448 587 357 608 l 560 562 q 775 463 709 528 q 842 285 842 397 q 739 59 842 142 q 458 -24 635 -24 q 186 54 290 -24 q 76 266 83 133 m 456 -347 l 303 -347 l 385 -100 l 557 -100 l 456 -347 z "},"ș":{"ha":765,"x_min":67,"x_max":698,"o":"m 86 530 q 169 693 86 630 q 383 757 252 757 q 594 701 515 757 q 682 544 673 645 l 524 544 q 478 607 515 584 q 384 629 442 629 q 288 604 326 629 q 250 539 250 579 q 276 488 250 508 q 359 454 303 467 l 490 425 q 648 352 597 400 q 698 222 698 304 q 610 51 698 116 q 382 -15 522 -15 q 160 42 243 -15 q 67 200 77 99 l 233 200 q 284 135 245 158 q 386 113 323 113 q 490 138 450 113 q 530 205 530 163 q 427 289 530 267 l 296 319 q 137 395 189 344 q 86 530 86 446 m 380 -347 l 227 -347 l 309 -100 l 481 -100 l 380 -347 z "},"Ț":{"ha":903,"x_min":63,"x_max":841,"o":"m 539 0 l 364 0 l 364 827 l 63 827 l 63 979 l 841 979 l 841 827 l 539 827 l 539 0 m 448 -347 l 296 -347 l 378 -100 l 549 -100 l 448 -347 z "},"ț":{"ha":548,"x_min":39,"x_max":483,"o":"m 157 924 l 324 924 l 324 737 l 483 737 l 483 603 l 324 603 l 324 239 q 349 158 324 184 q 426 133 373 133 q 483 136 449 133 l 483 5 q 395 -3 441 -3 q 212 43 267 -3 q 157 198 157 90 l 157 603 l 39 603 l 39 737 l 157 737 l 157 924 m 309 -347 l 157 -347 l 239 -100 l 410 -100 l 309 -347 z "},"Ȟ":{"ha":1067,"x_min":121,"x_max":946,"o":"m 946 0 l 772 0 l 772 422 l 296 422 l 296 0 l 121 0 l 121 979 l 296 979 l 296 574 l 772 574 l 772 979 l 946 979 l 946 0 m 458 1075 l 263 1285 l 422 1285 l 528 1167 l 540 1167 l 645 1285 l 804 1285 l 609 1075 l 458 1075 z "},"ȟ":{"ha":864,"x_min":-78,"x_max":768,"o":"m 110 0 l 110 1029 l 275 1029 l 275 622 l 288 622 q 372 720 314 685 q 513 755 431 755 q 700 683 633 755 q 768 479 768 610 l 768 0 l 600 0 l 600 439 q 562 566 600 523 q 450 609 524 609 q 323 561 369 609 q 278 431 278 512 l 278 0 l 110 0 m 117 1125 l -78 1335 l 81 1335 l 186 1217 l 199 1217 l 304 1335 l 463 1335 l 268 1125 l 117 1125 z "},"Ȧ":{"ha":987,"x_min":48,"x_max":940,"o":"m 752 0 l 669 250 l 309 250 l 225 0 l 48 0 l 395 979 l 592 979 l 940 0 l 752 0 m 484 792 l 350 389 l 629 389 l 496 792 l 484 792 m 564 1098 q 550 1084 564 1098 q 494 1070 536 1070 q 424 1098 452 1070 q 396 1168 396 1126 q 424 1238 396 1210 q 494 1266 451 1266 q 564 1238 536 1266 q 591 1168 591 1210 q 564 1098 591 1126 z "},"ȧ":{"ha":800,"x_min":62,"x_max":701,"o":"m 357 120 q 484 164 433 120 q 534 272 534 208 l 534 331 l 367 320 q 229 220 229 311 q 264 147 229 174 q 357 120 300 120 m 307 -12 q 130 49 199 -12 q 62 210 62 110 q 135 368 62 311 q 343 433 208 425 l 534 444 l 534 507 q 498 591 534 562 q 395 620 463 620 q 298 600 336 620 q 249 543 260 580 l 90 543 q 185 699 100 641 q 403 757 271 757 q 623 691 545 757 q 701 507 701 625 l 701 0 l 538 0 l 538 102 l 527 102 q 438 18 496 48 q 307 -12 380 -12 m 475 898 q 461 883 475 898 q 403 869 446 869 q 331 898 359 869 q 302 970 302 927 q 331 1041 302 1013 q 403 1070 359 1070 q 475 1041 446 1070 q 504 970 504 1012 q 475 898 504 927 z "},"Ȩ":{"ha":850,"x_min":121,"x_max":754,"o":"m 754 827 l 296 827 l 296 568 l 729 568 l 729 425 l 296 425 l 296 151 l 754 151 l 754 0 l 496 0 l 465 -79 q 566 -112 530 -81 q 602 -196 602 -142 q 556 -295 602 -258 q 427 -331 509 -331 q 328 -319 370 -331 l 328 -234 q 408 -243 357 -243 q 485 -200 485 -243 q 463 -170 485 -179 q 392 -160 441 -160 l 352 -160 l 352 -90 l 389 0 l 121 0 l 121 979 l 754 979 l 754 827 z "},"ȩ":{"ha":819,"x_min":66,"x_max":753,"o":"m 236 443 l 585 443 q 536 574 583 526 q 414 623 490 623 q 290 574 339 623 q 236 443 241 524 m 753 328 l 235 328 l 235 319 q 289 173 239 227 q 421 119 338 119 q 587 204 549 119 l 746 204 q 652 57 724 114 q 471 -12 581 0 l 444 -79 q 546 -112 510 -81 q 582 -196 582 -142 q 535 -295 582 -258 q 406 -331 489 -331 q 307 -319 349 -331 l 307 -234 q 387 -243 337 -243 q 465 -200 465 -243 q 443 -170 465 -179 q 372 -160 421 -160 l 332 -160 l 332 -90 l 364 -12 q 145 104 224 4 q 66 368 66 204 q 160 652 66 547 q 415 757 254 757 q 664 657 574 757 q 753 382 753 558 l 753 328 z "},"Ȫ":{"ha":1084,"x_min":79,"x_max":1005,"o":"m 543 1003 q 881 865 756 1003 q 1005 490 1005 726 q 881 114 1005 253 q 543 -24 757 -24 q 204 114 328 -24 q 79 490 79 252 q 204 865 79 726 q 543 1003 330 1003 m 543 848 q 335 751 412 848 q 258 490 258 654 q 335 228 258 325 q 543 131 411 131 q 750 228 673 131 q 826 490 826 326 q 750 751 826 654 q 543 848 673 848 m 393 1257 q 460 1231 433 1257 q 488 1164 488 1204 q 460 1097 488 1124 q 393 1070 433 1070 q 324 1097 351 1070 q 297 1164 297 1124 q 324 1231 297 1204 q 393 1257 351 1257 m 299 1442 l 787 1442 l 787 1338 l 299 1338 l 299 1442 m 694 1257 q 762 1231 735 1257 q 789 1164 789 1204 q 762 1097 789 1124 q 694 1070 735 1070 q 626 1097 653 1070 q 599 1164 599 1124 q 626 1231 599 1204 q 694 1257 653 1257 z "},"ȫ":{"ha":846,"x_min":66,"x_max":780,"o":"m 423 -15 q 161 88 256 -15 q 66 371 66 191 q 162 653 66 550 q 423 757 258 757 q 685 654 589 757 q 780 371 780 551 q 685 88 780 191 q 423 -15 589 -15 m 287 190 q 311 158 287 190 q 423 126 335 126 q 559 190 511 126 q 607 371 607 254 q 559 551 607 487 q 423 616 511 616 q 287 551 335 616 q 239 371 239 487 q 287 190 239 254 m 343 869 q 330 856 343 869 q 278 843 317 843 q 212 869 239 843 q 186 934 186 895 q 212 999 186 972 q 278 1025 239 1025 q 343 999 317 1025 q 370 934 370 972 q 343 869 370 895 m 634 869 q 621 856 634 869 q 568 843 608 843 q 503 869 529 843 q 477 934 477 895 q 503 999 477 972 q 568 1025 529 1025 q 634 999 608 1025 q 661 934 661 972 q 634 869 661 895 m 665 1235 l 665 1124 l 182 1124 l 182 1235 l 665 1235 z "},"Ȭ":{"ha":1084,"x_min":79,"x_max":1005,"o":"m 543 1003 q 881 865 756 1003 q 1005 490 1005 726 q 881 114 1005 253 q 543 -24 757 -24 q 204 114 328 -24 q 79 490 79 252 q 204 865 79 726 q 543 1003 330 1003 m 543 848 q 335 751 412 848 q 258 490 258 654 q 335 228 258 325 q 543 131 411 131 q 750 228 673 131 q 826 490 826 326 q 750 751 826 654 q 543 848 673 848 m 644 1070 q 589 1079 614 1070 q 548 1100 564 1087 q 518 1124 532 1112 q 488 1145 505 1137 q 453 1154 471 1154 q 393 1079 397 1154 l 280 1079 q 325 1212 280 1162 q 442 1261 370 1261 q 497 1252 473 1261 q 538 1232 522 1244 q 568 1207 554 1219 q 598 1186 582 1194 q 633 1177 615 1177 q 675 1195 659 1177 q 694 1251 691 1213 l 806 1251 q 761 1120 806 1170 q 644 1070 715 1070 m 787 1442 l 787 1334 l 299 1334 l 299 1442 l 787 1442 z "},"ȭ":{"ha":846,"x_min":66,"x_max":780,"o":"m 423 -15 q 161 88 256 -15 q 66 371 66 191 q 162 653 66 550 q 423 757 258 757 q 685 654 589 757 q 780 371 780 551 q 685 88 780 191 q 423 -15 589 -15 m 287 190 q 311 158 287 190 q 423 126 335 126 q 559 190 511 126 q 607 371 607 254 q 559 551 607 487 q 423 616 511 616 q 287 551 335 616 q 239 371 239 487 q 287 190 239 254 m 519 844 q 453 860 484 844 q 404 894 422 876 q 366 929 387 913 q 329 945 346 945 q 267 845 267 945 l 151 845 q 197 998 151 941 q 321 1055 243 1055 q 375 1045 350 1055 q 418 1020 400 1035 q 450 990 435 1005 q 481 965 465 975 q 511 955 496 955 q 573 1053 572 955 l 688 1053 q 643 900 688 957 q 519 844 597 844 m 665 1237 l 665 1126 l 182 1126 l 182 1237 l 665 1237 z "},"Ȯ":{"ha":1084,"x_min":79,"x_max":1005,"o":"m 543 1003 q 881 865 756 1003 q 1005 490 1005 726 q 881 114 1005 253 q 543 -24 757 -24 q 204 114 328 -24 q 79 490 79 252 q 204 865 79 726 q 543 1003 330 1003 m 543 848 q 335 751 412 848 q 258 490 258 654 q 335 228 258 325 q 543 131 411 131 q 750 228 673 131 q 826 490 826 326 q 750 751 826 654 q 543 848 673 848 m 613 1098 q 599 1084 613 1098 q 543 1070 585 1070 q 473 1098 501 1070 q 446 1168 446 1126 q 473 1238 446 1210 q 543 1266 500 1266 q 613 1238 585 1266 q 641 1168 641 1210 q 613 1098 641 1126 z "},"ȯ":{"ha":846,"x_min":66,"x_max":780,"o":"m 423 -15 q 161 88 256 -15 q 66 371 66 191 q 162 653 66 550 q 423 757 258 757 q 685 654 589 757 q 780 371 780 551 q 685 88 780 191 q 423 -15 589 -15 m 287 190 q 311 158 287 190 q 423 126 335 126 q 559 190 511 126 q 607 371 607 254 q 559 551 607 487 q 423 616 511 616 q 287 551 335 616 q 239 371 239 487 q 287 190 239 254 m 495 898 q 481 883 495 898 q 423 869 467 869 q 351 898 380 869 q 322 970 322 927 q 351 1041 322 1013 q 423 1070 380 1070 q 495 1041 467 1070 q 524 970 524 1012 q 495 898 524 927 z "},"Ȱ":{"ha":1084,"x_min":79,"x_max":1005,"o":"m 543 1003 q 881 865 756 1003 q 1005 490 1005 726 q 881 114 1005 253 q 543 -24 757 -24 q 204 114 328 -24 q 79 490 79 252 q 204 865 79 726 q 543 1003 330 1003 m 543 848 q 335 751 412 848 q 258 490 258 654 q 335 228 258 325 q 543 131 411 131 q 750 228 673 131 q 826 490 826 326 q 750 751 826 654 q 543 848 673 848 m 612 1096 q 598 1082 612 1096 q 543 1069 585 1069 q 474 1096 502 1069 q 446 1162 446 1122 q 474 1229 446 1202 q 543 1256 502 1256 q 612 1229 585 1256 q 640 1162 640 1202 q 612 1096 640 1122 m 787 1442 l 787 1338 l 299 1338 l 299 1442 l 787 1442 z "},"ȱ":{"ha":846,"x_min":66,"x_max":780,"o":"m 423 -15 q 161 88 256 -15 q 66 371 66 191 q 162 653 66 550 q 423 757 258 757 q 685 654 589 757 q 780 371 780 551 q 685 88 780 191 q 423 -15 589 -15 m 287 190 q 311 158 287 190 q 423 126 335 126 q 559 190 511 126 q 607 371 607 254 q 559 551 607 487 q 423 616 511 616 q 287 551 335 616 q 239 371 239 487 q 287 190 239 254 m 491 870 q 477 856 491 870 q 423 843 464 843 q 356 870 382 843 q 329 937 329 897 q 356 1004 329 977 q 423 1031 382 1031 q 491 1004 464 1031 q 517 937 517 977 q 491 870 517 897 m 665 1235 l 665 1124 l 182 1124 l 182 1235 l 665 1235 z "},"Ȳ":{"ha":958,"x_min":48,"x_max":909,"o":"m 566 0 l 391 0 l 391 382 l 48 979 l 240 979 l 473 560 l 485 560 l 718 979 l 909 979 l 566 382 l 566 0 m 723 1215 l 723 1104 l 235 1104 l 235 1215 l 723 1215 z "},"ȳ":{"ha":802,"x_min":41,"x_max":761,"o":"m 184 -269 q 118 -267 132 -269 l 118 -129 q 164 -132 131 -132 q 249 -109 218 -132 q 297 -36 281 -87 l 306 -3 l 41 742 l 225 742 l 399 163 l 410 163 l 583 742 l 761 742 l 493 -24 q 378 -215 446 -161 q 184 -269 310 -269 m 643 996 l 643 885 l 160 885 l 160 996 l 643 996 z "},"ȷ":{"ha":378,"x_min":-18,"x_max":273,"o":"m 273 742 l 273 -28 q 23 -254 273 -254 q -18 -252 -3 -254 l -18 -119 q -7 -120 -17 -119 q 4 -120 2 -120 q 82 -98 60 -120 q 105 -25 105 -76 l 105 742 l 273 742 z "},"ʼ":{"ha":430,"x_min":111,"x_max":346,"o":"m 229 582 l 111 582 l 174 979 l 346 979 l 229 582 z "},"ˆ":{"ha":744,"x_min":96,"x_max":648,"o":"m 460 1079 l 648 843 l 486 843 l 378 989 l 366 989 l 258 843 l 96 843 l 284 1079 l 460 1079 z "},"ˇ":{"ha":744,"x_min":96,"x_max":648,"o":"m 460 843 l 284 843 l 96 1079 l 258 1079 l 366 933 l 378 933 l 486 1079 l 648 1079 l 460 843 z "},"˘":{"ha":711,"x_min":93,"x_max":618,"o":"m 93 1075 l 220 1075 q 257 983 222 1018 q 355 949 293 949 q 453 983 418 949 q 490 1075 489 1018 l 618 1075 q 547 907 618 972 q 355 843 476 843 q 164 907 235 843 q 93 1075 93 972 z "},"˙":{"ha":711,"x_min":254,"x_max":456,"o":"m 428 898 q 413 883 428 898 q 355 869 399 869 q 283 898 312 869 q 254 970 254 927 q 283 1041 254 1013 q 355 1070 312 1070 q 428 1041 399 1070 q 456 970 456 1012 q 428 898 456 927 z "},"˚":{"ha":744,"x_min":209,"x_max":535,"o":"m 488 889 q 465 866 488 889 q 372 843 441 843 q 256 889 303 843 q 209 1003 209 935 q 256 1117 209 1072 q 372 1162 303 1162 q 488 1117 441 1162 q 535 1003 535 1072 q 488 889 535 935 m 372 928 q 426 949 405 928 q 448 1002 448 970 q 426 1056 448 1035 q 372 1078 405 1078 q 318 1056 339 1078 q 296 1002 296 1035 q 318 949 296 970 q 372 928 339 928 z "},"˛":{"ha":711,"x_min":231,"x_max":488,"o":"m 488 -192 l 488 -293 q 399 -308 448 -308 q 277 -271 322 -308 q 231 -172 231 -234 q 261 -81 231 -123 q 359 10 291 -38 l 483 10 q 386 -72 414 -39 q 358 -138 358 -105 q 379 -182 358 -165 q 438 -198 401 -198 q 488 -192 468 -198 z "},"˜":{"ha":743,"x_min":102,"x_max":640,"o":"m 471 858 q 405 874 435 858 q 356 908 374 890 q 318 943 338 927 q 281 959 298 959 q 218 859 219 959 l 102 859 q 149 1013 102 956 q 273 1069 195 1069 q 327 1059 302 1069 q 370 1034 352 1049 q 402 1004 387 1019 q 433 979 417 989 q 463 969 448 969 q 525 1067 524 969 l 640 1067 q 594 915 640 971 q 471 858 549 858 z "},"˝":{"ha":711,"x_min":50,"x_max":654,"o":"m 336 865 l 490 1100 l 654 1100 l 480 865 l 336 865 m 50 865 l 203 1100 l 367 1100 l 193 865 l 50 865 z "},"̀":{"ha":0,"x_min":-258,"x_max":99,"o":"m 99 865 l -65 865 l -258 1100 l -70 1100 l 99 865 z "},"́":{"ha":0,"x_min":-95,"x_max":262,"o":"m 69 865 l -95 865 l 74 1100 l 262 1100 l 69 865 z "},"̂":{"ha":0,"x_min":-276,"x_max":275,"o":"m 87 1079 l 275 843 l 113 843 l 5 989 l -6 989 l -114 843 l -276 843 l -88 1079 l 87 1079 z "},"̃":{"ha":0,"x_min":-267,"x_max":271,"o":"m 101 844 q 35 860 66 844 q -14 894 4 876 q -52 929 -31 913 q -89 945 -72 945 q -151 845 -151 945 l -267 845 q -221 998 -267 941 q -97 1055 -175 1055 q -43 1045 -68 1055 q 0 1020 -18 1035 q 33 990 18 1005 q 63 965 47 975 q 93 955 79 955 q 155 1053 155 955 l 271 1053 q 225 900 271 957 q 101 844 179 844 z "},"̄":{"ha":0,"x_min":-241,"x_max":241,"o":"m 241 996 l 241 885 l -241 885 l -241 996 l 241 996 z "},"̆":{"ha":0,"x_min":-263,"x_max":262,"o":"m -263 1075 l -136 1075 q -99 983 -134 1018 q -1 949 -63 949 q 97 983 62 949 q 134 1075 133 1018 l 262 1075 q 191 907 262 972 q -1 843 120 843 q -192 907 -121 843 q -263 1075 -263 972 z "},"̇":{"ha":0,"x_min":-101,"x_max":101,"o":"m 72 898 q 58 883 72 898 q 0 869 43 869 q -72 898 -43 869 q -101 970 -101 927 q -72 1041 -101 1013 q 0 1070 -43 1070 q 72 1041 43 1070 q 101 970 101 1012 q 72 898 101 927 z "},"̈":{"ha":0,"x_min":-248,"x_max":248,"o":"m -82 870 q -96 856 -82 870 q -151 842 -110 842 q -220 870 -193 842 q -248 938 -248 897 q -220 1006 -248 979 q -151 1034 -193 1034 q -82 1006 -110 1034 q -54 938 -54 979 q -82 870 -54 897 m 220 870 q 206 856 220 870 q 151 842 192 842 q 81 870 109 842 q 54 938 54 897 q 81 1006 54 979 q 151 1034 109 1034 q 220 1006 192 1034 q 248 938 248 979 q 220 870 248 897 z "},"̉":{"ha":0,"x_min":-113,"x_max":153,"o":"m -113 1004 l -113 1101 q -12 1117 -68 1117 q 108 1080 62 1117 q 153 981 153 1043 q 117 884 153 928 q 20 819 81 841 l -39 893 q 15 924 -5 904 q 35 966 35 943 q 16 1003 35 989 q -36 1018 -4 1018 q -113 1004 -81 1018 z "},"̊":{"ha":0,"x_min":-163,"x_max":163,"o":"m 116 889 q 93 866 116 889 q 0 843 69 843 q -116 889 -69 843 q -163 1003 -163 935 q -116 1117 -163 1072 q 0 1162 -69 1162 q 116 1117 69 1162 q 163 1003 163 1072 q 116 889 163 935 m 0 928 q 54 949 33 928 q 75 1002 75 970 q 54 1056 75 1035 q 0 1078 33 1078 q -54 1056 -33 1078 q -76 1002 -76 1035 q -55 949 -76 970 q 0 928 -33 928 z "},"̋":{"ha":0,"x_min":-237,"x_max":367,"o":"m 50 865 l 203 1100 l 367 1100 l 193 865 l 50 865 m -237 865 l -83 1100 l 80 1100 l -94 865 l -237 865 z "},"̌":{"ha":0,"x_min":-276,"x_max":275,"o":"m 87 843 l -88 843 l -276 1079 l -114 1079 l -6 933 l 5 933 l 113 1079 l 275 1079 l 87 843 z "},"̏":{"ha":0,"x_min":-374,"x_max":230,"o":"m -57 865 l -201 865 l -374 1100 l -211 1100 l -57 865 m 230 865 l 86 865 l -87 1100 l 76 1100 l 230 865 z "},"̑":{"ha":0,"x_min":-262,"x_max":262,"o":"m -262 843 q -192 1010 -262 946 q 0 1075 -121 1075 q 192 1010 121 1075 q 262 843 262 946 l 135 843 q 98 935 134 900 q 0 969 62 969 q -98 935 -62 969 q -135 843 -134 900 l -262 843 z "},"̛":{"ha":0,"x_min":0,"x_max":261,"o":"m 0 633 l 0 757 q 56 738 24 736 q 106 762 91 739 q 122 833 122 784 l 122 941 l 261 941 l 261 798 q 215 661 261 712 q 92 610 168 610 q 0 633 34 610 z "},"̣":{"ha":0,"x_min":-98,"x_max":98,"o":"m 70 -258 q 56 -272 70 -258 q 0 -286 42 -286 q -70 -258 -42 -286 q -98 -189 -98 -230 q -70 -118 -98 -146 q 0 -90 -43 -90 q 70 -118 42 -90 q 98 -189 98 -146 q 70 -258 98 -230 z "},"̤":{"ha":0,"x_min":-248,"x_max":248,"o":"m -82 -272 q -96 -285 -82 -272 q -151 -299 -110 -299 q -220 -272 -193 -299 q -248 -203 -248 -244 q -220 -135 -248 -163 q -151 -108 -193 -108 q -82 -135 -110 -108 q -54 -203 -54 -163 q -82 -272 -54 -244 m 220 -272 q 206 -285 220 -272 q 151 -299 192 -299 q 81 -272 109 -299 q 54 -203 54 -244 q 81 -135 54 -163 q 151 -108 109 -108 q 220 -135 192 -108 q 248 -203 248 -163 q 220 -272 248 -244 z "},"̥":{"ha":0,"x_min":-163,"x_max":163,"o":"m 116 -341 q 93 -364 116 -341 q 0 -387 69 -387 q -116 -341 -69 -387 q -163 -227 -163 -296 q -116 -113 -163 -159 q 0 -68 -69 -68 q 116 -113 69 -68 q 163 -227 163 -159 q 116 -341 163 -296 m 0 -302 q 54 -281 33 -302 q 75 -228 75 -260 q 54 -174 75 -195 q 0 -153 33 -153 q -54 -174 -33 -153 q -76 -228 -76 -195 q -55 -281 -76 -260 q 0 -302 -33 -302 z "},"̦":{"ha":0,"x_min":-155,"x_max":99,"o":"m -2 -347 l -155 -347 l -73 -100 l 99 -100 l -2 -347 z "},"̧":{"ha":0,"x_min":-110,"x_max":165,"o":"m -85 -160 l -85 -90 l -41 17 l 59 17 l 59 0 l 27 -79 q 129 -112 93 -81 q 165 -196 165 -142 q 118 -295 165 -258 q -11 -331 72 -331 q -110 -319 -68 -331 l -110 -234 q -30 -243 -80 -243 q 47 -200 47 -243 q 26 -170 47 -179 q -45 -160 4 -160 l -85 -160 z "},"̨":{"ha":0,"x_min":-161,"x_max":96,"o":"m 96 -193 l 96 -294 q 7 -309 56 -309 q -115 -272 -70 -309 q -161 -173 -161 -235 q -131 -82 -161 -125 q -33 9 -101 -39 l 91 9 q -6 -73 22 -40 q -34 -139 -34 -106 q -13 -183 -34 -167 q 46 -199 9 -199 q 96 -193 77 -199 z "},"̭":{"ha":0,"x_min":-275,"x_max":275,"o":"m -79 -92 l 79 -92 l 275 -310 l 111 -310 l 6 -186 l -6 -186 l -111 -310 l -275 -310 l -79 -92 z "},"̮":{"ha":0,"x_min":-262,"x_max":262,"o":"m -262 -78 l -135 -78 q -97 -161 -134 -130 q 0 -191 -61 -191 q 97 -161 61 -191 q 135 -78 134 -130 l 262 -78 q 192 -236 262 -176 q 0 -296 121 -296 q -192 -236 -121 -296 q -262 -78 -262 -176 z "},"̰":{"ha":0,"x_min":-269,"x_max":269,"o":"m 99 -292 q 33 -276 64 -292 q -16 -241 2 -260 q -54 -207 -33 -222 q -91 -191 -74 -191 q -153 -290 -153 -191 l -269 -290 q -223 -137 -269 -194 q -99 -80 -177 -80 q -45 -90 -70 -80 q -2 -115 -20 -100 q 31 -145 16 -130 q 61 -170 45 -160 q 91 -180 77 -180 q 153 -82 153 -180 l 269 -82 q 223 -235 269 -178 q 99 -292 177 -292 z "},"̱":{"ha":0,"x_min":-244,"x_max":244,"o":"m 244 -148 l 244 -259 l -244 -259 l -244 -148 l 244 -148 z "},";":{"ha":457,"x_min":81,"x_max":337,"o":"m 229 494 q 151 525 181 494 q 120 601 120 555 q 151 678 120 648 q 229 708 181 708 q 307 678 277 708 q 337 601 337 648 q 307 525 337 555 q 229 494 277 494 m 201 -259 l 81 -259 l 146 151 l 317 151 l 201 -259 z "},"΄":{"ha":625,"x_min":182,"x_max":420,"o":"m 182 858 l 240 1105 l 420 1105 l 324 858 l 182 858 z "},"΅":{"ha":957,"x_min":140,"x_max":816,"o":"m 299 884 q 286 871 299 884 q 233 858 273 858 q 167 884 194 858 q 140 949 140 910 q 167 1014 140 988 q 233 1040 193 1040 q 299 1014 273 1040 q 326 949 326 988 q 299 884 326 910 m 789 884 q 776 871 789 884 q 724 858 763 858 q 657 884 684 858 q 631 949 631 910 q 657 1014 631 988 q 724 1040 684 1040 q 790 1014 764 1040 q 816 949 816 988 q 789 884 816 910 m 394 858 l 414 1105 l 581 1105 l 524 858 l 394 858 z "},"Ά":{"ha":1017,"x_min":52,"x_max":968,"o":"m 781 0 l 698 250 l 338 250 l 254 0 l 77 0 l 424 979 l 621 979 l 968 0 l 781 0 m 513 792 l 378 389 l 657 389 l 524 792 l 513 792 m 52 732 l 110 979 l 290 979 l 194 732 l 52 732 z "},"·":{"ha":457,"x_min":120,"x_max":337,"o":"m 229 264 q 151 294 181 264 q 120 371 120 325 q 151 448 120 418 q 229 478 181 478 q 307 448 277 478 q 337 371 337 418 q 307 294 337 325 q 229 264 277 264 z "},"Έ":{"ha":1138,"x_min":59,"x_max":1042,"o":"m 1042 151 l 1042 0 l 408 0 l 408 979 l 1042 979 l 1042 827 l 583 827 l 583 568 l 1017 568 l 1017 425 l 583 425 l 583 151 l 1042 151 m 59 732 l 117 979 l 296 979 l 201 732 l 59 732 z "},"Ή":{"ha":1355,"x_min":59,"x_max":1234,"o":"m 1234 0 l 1059 0 l 1059 422 l 583 422 l 583 0 l 408 0 l 408 979 l 583 979 l 583 574 l 1059 574 l 1059 979 l 1234 979 l 1234 0 m 59 732 l 117 979 l 296 979 l 201 732 l 59 732 z "},"Ί":{"ha":705,"x_min":59,"x_max":583,"o":"m 583 0 l 408 0 l 408 979 l 583 979 l 583 0 m 59 732 l 117 979 l 296 979 l 201 732 l 59 732 z "},"Ό":{"ha":1285,"x_min":59,"x_max":1206,"o":"m 744 1003 q 1081 865 957 1003 q 1206 490 1206 726 q 1082 114 1206 253 q 744 -24 958 -24 q 405 114 529 -24 q 280 490 280 252 q 405 865 280 726 q 744 1003 530 1003 m 744 848 q 536 751 613 848 q 459 490 459 654 q 535 228 459 325 q 744 131 612 131 q 950 228 874 131 q 1027 490 1027 326 q 950 751 1027 654 q 744 848 874 848 m 59 732 l 117 979 l 296 979 l 201 732 l 59 732 z "},"Ύ":{"ha":1257,"x_min":59,"x_max":1208,"o":"m 865 0 l 690 0 l 690 382 l 347 979 l 538 979 l 772 560 l 783 560 l 1016 979 l 1208 979 l 865 382 l 865 0 m 59 732 l 117 979 l 296 979 l 201 732 l 59 732 z "},"Ώ":{"ha":1301,"x_min":59,"x_max":1219,"o":"m 1042 535 q 965 764 1042 680 q 754 848 887 848 q 544 764 621 848 q 467 535 467 680 q 516 333 467 418 q 669 186 566 248 l 669 0 l 290 0 l 290 146 l 489 146 l 489 158 q 343 318 395 215 q 290 547 290 421 q 349 785 290 681 q 512 946 407 888 q 754 1003 618 1003 q 1090 877 961 1003 q 1219 547 1219 750 q 1166 318 1219 421 q 1020 158 1114 215 l 1020 146 l 1219 146 l 1219 0 l 840 0 l 840 186 q 993 333 943 248 q 1042 535 1042 418 m 59 732 l 117 979 l 296 979 l 201 732 l 59 732 z "},"ΐ":{"ha":455,"x_min":-138,"x_max":538,"o":"m 103 742 l 271 742 l 271 239 q 294 158 271 184 q 370 133 317 133 q 416 136 383 133 l 416 5 q 334 -3 380 -3 q 156 44 209 -3 q 103 199 103 92 l 103 742 m 21 884 q 8 871 21 884 q -45 858 -5 858 q -111 884 -84 858 q -138 949 -138 910 q -111 1014 -138 988 q -45 1040 -85 1040 q 21 1014 -5 1040 q 47 949 47 988 q 21 884 47 910 m 511 884 q 498 871 511 884 q 446 858 485 858 q 379 884 406 858 q 353 949 353 910 q 379 1014 353 988 q 446 1040 406 1040 q 512 1014 486 1040 q 538 949 538 988 q 511 884 538 910 m 116 858 l 136 1105 l 303 1105 l 245 858 l 116 858 z "},"Α":{"ha":987,"x_min":48,"x_max":940,"o":"m 752 0 l 669 250 l 309 250 l 225 0 l 48 0 l 395 979 l 592 979 l 940 0 l 752 0 m 484 792 l 350 389 l 629 389 l 496 792 l 484 792 z "},"Β":{"ha":945,"x_min":121,"x_max":876,"o":"m 539 0 l 121 0 l 121 979 l 530 979 q 748 913 669 979 q 827 734 827 848 q 777 597 827 657 q 653 525 727 536 l 653 513 q 814 438 752 503 q 876 278 876 374 q 786 75 876 149 q 539 0 696 0 m 296 840 l 296 567 l 465 567 q 606 602 557 567 q 654 703 654 637 q 610 804 654 768 q 487 840 566 840 l 296 840 m 296 139 l 499 139 q 646 178 596 139 q 696 292 696 217 q 645 403 696 365 q 492 441 593 441 l 296 441 l 296 139 z "},"Γ":{"ha":804,"x_min":121,"x_max":731,"o":"m 296 0 l 121 0 l 121 979 l 731 979 l 731 827 l 296 827 l 296 0 z "},"Δ":{"ha":994,"x_min":75,"x_max":920,"o":"m 920 0 l 75 0 l 75 108 l 398 979 l 595 979 l 920 108 l 920 0 m 261 163 l 261 151 l 723 151 l 723 163 l 499 799 l 487 799 l 261 163 z "},"Ε":{"ha":850,"x_min":121,"x_max":754,"o":"m 754 151 l 754 0 l 121 0 l 121 979 l 754 979 l 754 827 l 296 827 l 296 568 l 729 568 l 729 425 l 296 425 l 296 151 l 754 151 z "},"Ζ":{"ha":931,"x_min":94,"x_max":838,"o":"m 94 0 l 94 119 l 608 816 l 608 827 l 108 827 l 108 979 l 825 979 l 825 859 l 312 163 l 312 151 l 838 151 l 838 0 l 94 0 z "},"Η":{"ha":1067,"x_min":121,"x_max":946,"o":"m 946 0 l 772 0 l 772 422 l 296 422 l 296 0 l 121 0 l 121 979 l 296 979 l 296 574 l 772 574 l 772 979 l 946 979 l 946 0 z "},"Θ":{"ha":1115,"x_min":79,"x_max":1036,"o":"m 742 412 l 372 412 l 372 561 l 742 561 l 742 412 m 558 1003 q 909 868 782 1003 q 1036 490 1036 734 q 908 111 1036 247 q 558 -24 781 -24 q 207 111 334 -24 q 79 490 79 246 q 207 868 79 734 q 558 1003 335 1003 m 776 755 q 736 802 776 755 q 558 850 696 850 q 339 755 420 850 q 259 490 259 661 q 339 224 259 319 q 558 129 418 129 q 776 224 696 129 q 856 490 856 319 q 776 755 856 661 z "},"Ι":{"ha":416,"x_min":121,"x_max":296,"o":"m 296 0 l 121 0 l 121 979 l 296 979 l 296 0 z "},"Κ":{"ha":960,"x_min":121,"x_max":923,"o":"m 296 0 l 121 0 l 121 979 l 296 979 l 296 528 l 307 528 l 693 979 l 894 979 l 524 552 l 923 0 l 709 0 l 400 432 l 296 312 l 296 0 z "},"Λ":{"ha":973,"x_min":54,"x_max":919,"o":"m 730 0 l 490 783 l 478 783 l 234 0 l 54 0 l 388 979 l 585 979 l 919 0 l 730 0 z "},"Μ":{"ha":1253,"x_min":121,"x_max":1131,"o":"m 1131 0 l 968 0 l 968 688 l 959 688 l 688 38 l 564 38 l 293 688 l 283 688 l 283 0 l 121 0 l 121 979 l 326 979 l 620 266 l 632 266 l 926 979 l 1131 979 l 1131 0 z "},"Ν":{"ha":1054,"x_min":121,"x_max":932,"o":"m 290 0 l 121 0 l 121 979 l 273 979 l 753 313 l 764 313 l 764 979 l 932 979 l 932 0 l 781 0 l 301 666 l 290 666 l 290 0 z "},"Ξ":{"ha":924,"x_min":96,"x_max":827,"o":"m 96 979 l 827 979 l 827 823 l 96 823 l 96 979 m 768 422 l 155 422 l 155 569 l 768 569 l 768 422 m 96 156 l 827 156 l 827 0 l 96 0 l 96 156 z "},"Ο":{"ha":1084,"x_min":79,"x_max":1005,"o":"m 543 1003 q 881 865 756 1003 q 1005 490 1005 726 q 881 114 1005 253 q 543 -24 757 -24 q 204 114 328 -24 q 79 490 79 252 q 204 865 79 726 q 543 1003 330 1003 m 543 848 q 335 751 412 848 q 258 490 258 654 q 335 228 258 325 q 543 131 411 131 q 750 228 673 131 q 826 490 826 326 q 750 751 826 654 q 543 848 673 848 z "},"Π":{"ha":1053,"x_min":121,"x_max":932,"o":"m 932 0 l 758 0 l 758 827 l 296 827 l 296 0 l 121 0 l 121 979 l 932 979 l 932 0 z "},"Ρ":{"ha":916,"x_min":121,"x_max":844,"o":"m 121 979 l 515 979 q 753 887 662 979 q 844 648 844 795 q 750 412 844 503 q 508 321 656 321 l 296 321 l 296 0 l 121 0 l 121 979 m 296 832 l 296 466 l 469 466 q 615 513 563 466 q 667 648 667 561 q 615 785 667 737 q 469 832 564 832 l 296 832 z "},"Σ":{"ha":918,"x_min":94,"x_max":824,"o":"m 314 163 l 314 151 l 824 151 l 824 0 l 94 0 l 94 115 l 360 491 l 107 844 l 107 979 l 810 979 l 810 827 l 330 827 l 330 816 l 544 511 l 544 487 l 314 163 z "},"Τ":{"ha":903,"x_min":63,"x_max":841,"o":"m 539 0 l 364 0 l 364 827 l 63 827 l 63 979 l 841 979 l 841 827 l 539 827 l 539 0 z "},"Υ":{"ha":958,"x_min":48,"x_max":909,"o":"m 566 0 l 391 0 l 391 382 l 48 979 l 240 979 l 473 560 l 485 560 l 718 979 l 909 979 l 566 382 l 566 0 z "},"Φ":{"ha":1228,"x_min":73,"x_max":1156,"o":"m 905 271 q 944 310 905 271 q 982 485 982 349 q 905 699 982 621 q 696 785 828 777 l 696 185 q 905 271 828 193 m 323 699 q 285 660 323 699 q 246 485 246 621 q 323 271 246 349 q 532 185 400 193 l 532 785 q 323 699 400 777 m 696 -62 l 532 -62 l 532 39 q 199 170 326 48 q 73 485 73 291 q 199 800 73 679 q 532 931 326 922 l 532 1034 l 696 1034 l 696 931 q 1029 800 903 922 q 1156 485 1156 679 q 1029 170 1156 291 q 696 39 903 48 l 696 -62 z "},"Χ":{"ha":987,"x_min":60,"x_max":928,"o":"m 60 0 l 380 493 l 63 979 l 270 979 l 493 619 l 505 619 l 731 979 l 928 979 l 600 489 l 922 0 l 720 0 l 493 351 l 481 351 l 251 0 l 60 0 z "},"Ψ":{"ha":1181,"x_min":105,"x_max":1076,"o":"m 675 0 l 507 0 l 507 216 q 214 326 323 218 q 105 612 105 433 l 105 979 l 273 979 l 273 612 q 333 434 273 497 q 507 366 393 372 l 507 979 l 675 979 l 675 366 q 848 434 789 372 q 907 612 907 497 l 907 979 l 1076 979 l 1076 612 q 967 325 1076 432 q 675 216 858 218 l 675 0 z "},"Ω":{"ha":1094,"x_min":83,"x_max":1011,"o":"m 835 535 q 757 764 835 680 q 547 848 680 848 q 336 764 414 848 q 259 535 259 680 q 309 333 259 418 q 461 186 358 248 l 461 0 l 83 0 l 83 146 l 281 146 l 281 158 q 135 318 188 215 q 83 547 83 421 q 141 785 83 681 q 305 946 199 888 q 547 1003 410 1003 q 882 877 753 1003 q 1011 547 1011 750 q 959 318 1011 421 q 812 158 906 215 l 812 146 l 1011 146 l 1011 0 l 632 0 l 632 186 q 785 333 736 248 q 835 535 835 418 z "},"Ϊ":{"ha":416,"x_min":-40,"x_max":456,"o":"m 296 0 l 121 0 l 121 979 l 296 979 l 296 0 m 126 1097 q 112 1083 126 1097 q 57 1069 98 1069 q -12 1097 16 1069 q -40 1165 -40 1124 q -12 1233 -40 1206 q 57 1261 16 1261 q 126 1233 98 1261 q 154 1165 154 1206 q 126 1097 154 1124 m 428 1097 q 414 1083 428 1097 q 359 1069 400 1069 q 290 1097 317 1069 q 262 1165 262 1124 q 290 1233 262 1206 q 359 1261 317 1261 q 428 1233 400 1261 q 456 1165 456 1206 q 428 1097 456 1124 z "},"Ϋ":{"ha":958,"x_min":48,"x_max":909,"o":"m 566 0 l 391 0 l 391 382 l 48 979 l 240 979 l 473 560 l 485 560 l 718 979 l 909 979 l 566 382 l 566 0 m 397 1097 q 383 1083 397 1097 q 328 1069 369 1069 q 258 1097 286 1069 q 231 1165 231 1124 q 258 1233 231 1206 q 328 1261 286 1261 q 397 1233 369 1261 q 425 1165 425 1206 q 397 1097 425 1124 m 699 1097 q 685 1083 699 1097 q 629 1069 671 1069 q 560 1097 588 1069 q 532 1165 532 1124 q 560 1233 532 1206 q 629 1261 588 1261 q 699 1233 671 1261 q 726 1165 726 1206 q 699 1097 726 1124 z "},"ά":{"ha":901,"x_min":62,"x_max":854,"o":"m 403 131 q 541 196 489 131 q 592 371 592 262 q 543 545 592 479 q 414 611 494 611 q 283 547 332 611 q 235 371 235 482 q 280 196 235 261 q 403 131 326 131 m 368 -12 q 144 91 227 -12 q 62 372 62 193 q 144 651 62 548 q 366 754 227 754 q 583 606 527 754 l 595 606 l 595 742 l 758 742 l 758 214 q 773 148 758 167 q 819 130 787 130 q 854 134 836 130 l 854 3 q 771 -7 823 -7 q 604 115 628 -7 l 600 129 l 588 129 q 504 25 562 62 q 368 -12 446 -12 m 329 858 l 387 1105 l 566 1105 l 471 858 l 329 858 z "},"έ":{"ha":770,"x_min":68,"x_max":744,"o":"m 389 -16 q 154 43 240 -16 q 68 200 68 102 q 197 368 68 325 l 197 380 q 111 442 138 404 q 83 538 83 481 q 168 697 83 638 q 393 756 252 756 q 624 696 537 756 q 726 521 711 636 l 561 521 q 395 618 533 618 q 288 594 328 618 q 248 526 248 569 q 283 462 248 485 q 387 439 319 439 l 484 439 l 484 308 l 388 308 q 278 283 316 308 q 241 216 241 259 q 280 148 241 172 q 391 123 320 123 q 509 153 461 123 q 572 237 557 182 l 744 237 q 627 55 727 125 q 389 -16 528 -16 m 323 858 l 381 1105 l 561 1105 l 465 858 l 323 858 z "},"ή":{"ha":897,"x_min":59,"x_max":800,"o":"m 800 -247 l 632 -247 l 632 439 q 486 610 632 610 q 370 563 412 610 q 328 431 328 515 l 328 0 l 159 0 l 159 528 q 144 593 159 574 q 94 612 128 612 q 59 608 75 612 l 59 739 q 143 749 91 749 q 316 628 286 749 l 319 616 l 330 616 q 414 719 356 682 q 548 757 471 757 q 735 685 669 757 q 800 479 800 612 l 800 -247 m 332 858 l 390 1105 l 570 1105 l 474 858 l 332 858 z "},"ί":{"ha":455,"x_min":103,"x_max":416,"o":"m 103 742 l 271 742 l 271 239 q 294 158 271 184 q 370 133 317 133 q 416 136 383 133 l 416 5 q 334 -3 380 -3 q 156 44 209 -3 q 103 199 103 92 l 103 742 m 111 858 l 168 1105 l 348 1105 l 252 858 l 111 858 z "},"ΰ":{"ha":802,"x_min":56,"x_max":732,"o":"m 402 -15 q 172 64 253 -15 q 91 298 91 144 l 91 742 l 252 742 l 252 317 q 403 133 252 133 q 520 194 479 133 q 561 377 561 255 q 546 569 561 490 q 492 742 531 648 l 658 742 q 708 581 690 673 q 727 395 727 488 q 642 89 727 193 q 402 -15 557 -15 m 215 884 q 202 871 215 884 q 149 858 189 858 q 83 884 110 858 q 56 949 56 910 q 83 1014 56 988 q 149 1040 109 1040 q 215 1014 189 1040 q 241 949 241 988 q 215 884 241 910 m 705 884 q 692 871 705 884 q 640 858 679 858 q 573 884 600 858 q 547 949 547 910 q 573 1014 547 988 q 640 1040 600 1040 q 706 1014 680 1040 q 732 949 732 988 q 705 884 732 910 m 310 858 l 330 1105 l 497 1105 l 439 858 l 310 858 z "},"α":{"ha":901,"x_min":62,"x_max":854,"o":"m 403 131 q 541 196 489 131 q 592 371 592 262 q 543 545 592 479 q 414 611 494 611 q 283 547 332 611 q 235 371 235 482 q 280 196 235 261 q 403 131 326 131 m 368 -12 q 144 91 227 -12 q 62 372 62 193 q 144 651 62 548 q 366 754 227 754 q 583 606 527 754 l 595 606 l 595 742 l 758 742 l 758 214 q 773 148 758 167 q 819 130 787 130 q 854 134 836 130 l 854 3 q 771 -7 823 -7 q 604 115 628 -7 l 600 129 l 588 129 q 504 25 562 62 q 368 -12 446 -12 z "},"β":{"ha":872,"x_min":103,"x_max":806,"o":"m 366 482 l 366 616 l 417 616 q 535 653 493 616 q 576 758 576 690 q 536 864 576 825 q 429 903 496 903 q 271 699 271 903 l 271 357 q 323 190 271 250 q 467 131 376 131 q 587 179 540 131 q 633 302 633 227 q 578 436 633 390 q 418 482 523 482 l 366 482 m 103 685 q 186 951 103 859 q 426 1044 270 1044 q 650 972 566 1044 q 734 778 734 901 q 697 653 734 709 q 597 570 660 597 l 597 557 q 753 465 701 532 q 806 290 806 397 q 723 71 806 155 q 504 -12 640 -12 q 368 21 426 -12 q 283 113 309 55 l 271 113 l 271 -247 l 103 -247 l 103 685 z "},"γ":{"ha":790,"x_min":37,"x_max":715,"o":"m 451 -242 l 285 -242 l 285 -32 l 37 742 l 214 742 l 381 154 l 393 154 q 512 382 475 275 q 549 606 549 490 q 534 742 549 678 l 699 742 q 715 606 715 673 q 652 313 715 467 q 451 -23 589 160 l 451 -242 z "},"δ":{"ha":823,"x_min":56,"x_max":761,"o":"m 409 -15 q 152 81 247 -15 q 56 336 56 176 q 129 552 56 463 q 315 666 201 642 l 315 680 q 214 758 245 716 q 183 857 183 800 q 256 994 183 943 q 446 1044 329 1044 q 690 988 595 1044 l 690 856 q 460 911 575 911 q 384 894 411 911 q 357 846 357 877 q 381 795 357 817 q 475 739 406 772 q 693 566 626 659 q 761 341 761 473 q 664 84 761 182 q 409 -15 567 -15 m 409 117 q 539 177 490 117 q 589 342 589 238 q 537 507 589 444 q 406 570 486 570 q 278 509 329 570 q 227 342 227 447 q 277 177 227 238 q 409 117 327 117 z "},"ε":{"ha":770,"x_min":68,"x_max":744,"o":"m 389 -15 q 154 44 240 -15 q 68 201 68 103 q 197 369 68 326 l 197 380 q 111 443 138 404 q 83 539 83 481 q 168 698 83 639 q 393 757 252 757 q 624 697 537 757 q 726 522 711 637 l 561 522 q 395 619 533 619 q 288 594 328 619 q 248 526 248 570 q 283 463 248 486 q 387 440 319 440 l 484 440 l 484 309 l 388 309 q 278 284 316 309 q 241 217 241 260 q 280 148 241 173 q 391 123 320 123 q 509 153 461 123 q 572 237 557 183 l 744 237 q 627 56 727 126 q 389 -15 528 -15 z "},"ζ":{"ha":663,"x_min":58,"x_max":656,"o":"m 574 -248 l 446 -200 q 496 -72 496 -123 q 469 -7 496 -30 q 358 43 442 16 q 125 179 193 100 q 58 388 58 258 q 380 873 58 634 l 380 885 l 116 885 l 116 1029 l 636 1029 l 636 905 q 322 641 416 757 q 229 402 229 524 q 271 275 229 321 q 431 189 313 229 q 609 95 562 142 q 656 -38 656 47 q 574 -248 656 -134 z "},"η":{"ha":897,"x_min":59,"x_max":800,"o":"m 800 -247 l 632 -247 l 632 439 q 486 610 632 610 q 370 563 412 610 q 328 431 328 515 l 328 0 l 159 0 l 159 528 q 144 593 159 574 q 94 612 128 612 q 59 608 75 612 l 59 739 q 143 749 91 749 q 316 628 286 749 l 319 616 l 330 616 q 414 719 356 682 q 548 757 471 757 q 735 685 669 757 q 800 479 800 612 l 800 -247 z "},"θ":{"ha":840,"x_min":64,"x_max":776,"o":"m 420 -15 q 155 120 245 -15 q 64 516 64 255 q 155 909 64 775 q 420 1044 247 1044 q 685 910 593 1044 q 776 515 776 776 q 685 120 776 255 q 420 -15 594 -15 m 283 198 q 307 159 283 198 q 420 120 330 120 q 557 198 511 120 q 606 450 603 277 l 233 450 q 283 198 237 277 m 234 589 l 606 589 q 554 832 601 755 q 420 909 508 909 q 286 832 332 909 q 234 589 239 754 z "},"ι":{"ha":455,"x_min":103,"x_max":416,"o":"m 103 742 l 271 742 l 271 239 q 294 158 271 184 q 370 133 317 133 q 416 136 383 133 l 416 5 q 334 -3 380 -3 q 156 44 209 -3 q 103 199 103 92 l 103 742 z "},"κ":{"ha":838,"x_min":103,"x_max":776,"o":"m 103 0 l 103 742 l 264 742 l 264 407 l 277 407 l 465 625 q 571 722 526 696 q 676 749 616 749 q 750 739 718 749 l 750 608 q 708 612 730 612 q 647 596 673 612 q 580 534 621 581 l 492 433 l 776 0 l 595 0 l 385 323 l 264 195 l 264 0 l 103 0 z "},"λ":{"ha":808,"x_min":17,"x_max":770,"o":"m 17 0 l 313 699 l 290 760 q 227 881 255 854 q 137 907 199 907 q 99 903 126 907 l 99 1034 q 169 1044 136 1044 q 258 1032 221 1044 q 328 989 295 1021 q 387 907 360 958 q 443 773 414 856 l 644 207 q 680 146 659 163 q 737 130 701 130 q 770 134 745 130 l 770 3 q 694 -7 741 -7 q 572 25 613 -7 q 502 142 530 57 l 387 486 l 375 486 l 188 0 l 17 0 z "},"ν":{"ha":790,"x_min":37,"x_max":715,"o":"m 275 0 l 37 742 l 214 742 l 380 153 l 392 153 q 512 384 475 277 q 549 606 549 491 q 534 742 549 674 l 699 742 q 715 608 715 672 q 656 324 715 472 q 468 0 597 176 l 275 0 z "},"ξ":{"ha":687,"x_min":57,"x_max":655,"o":"m 573 -248 l 445 -200 q 484 -127 473 -155 q 495 -72 495 -100 q 468 -6 495 -29 q 347 48 441 16 q 122 163 187 102 q 57 313 57 224 q 104 446 57 392 q 241 523 151 499 l 241 534 q 134 607 168 564 q 100 713 100 649 q 138 817 100 774 q 243 874 176 860 l 243 885 l 102 885 l 102 1029 l 633 1029 l 633 905 l 555 895 q 328 838 395 876 q 262 734 262 800 q 311 649 262 676 q 471 621 359 621 l 583 621 l 583 483 l 460 483 q 287 447 346 483 q 227 347 227 410 q 242 289 227 312 q 303 241 258 265 q 436 186 348 216 q 609 94 564 142 q 655 -35 655 46 q 636 -136 655 -88 q 573 -248 618 -183 z "},"ο":{"ha":823,"x_min":62,"x_max":762,"o":"m 667 88 q 620 37 667 88 q 412 -15 573 -15 q 156 88 250 -15 q 62 371 62 191 q 157 653 62 550 q 412 757 252 757 q 667 654 572 757 q 762 371 762 551 q 667 88 762 191 m 412 126 q 541 191 494 126 q 589 371 589 256 q 541 551 589 486 q 412 616 493 616 q 282 551 330 616 q 235 371 235 486 q 282 191 235 256 q 412 126 329 126 z "},"π":{"ha":989,"x_min":53,"x_max":917,"o":"m 208 0 l 208 598 l 53 598 l 53 742 l 917 742 l 917 598 l 769 598 l 769 214 q 785 147 769 165 q 843 130 802 130 q 880 134 861 130 l 880 3 q 800 -7 848 -7 q 656 41 702 -7 q 610 192 610 90 l 610 598 l 366 598 l 366 0 l 208 0 z "},"ρ":{"ha":859,"x_min":94,"x_max":797,"o":"m 439 131 q 575 196 526 131 q 624 380 624 261 q 575 555 624 494 q 441 616 527 616 q 307 550 356 616 q 257 365 257 484 q 308 195 257 259 q 439 131 359 131 m 94 -247 l 94 366 q 188 653 94 549 q 442 757 281 757 q 703 654 610 757 q 797 378 797 551 q 713 92 797 196 q 488 -12 630 -12 q 359 21 416 -12 q 274 113 302 54 l 262 113 l 262 -247 l 94 -247 z "},"ς":{"ha":779,"x_min":62,"x_max":722,"o":"m 660 -38 q 578 -247 660 -134 l 450 -199 q 500 -72 500 -122 q 473 -8 500 -31 q 361 44 447 14 q 127 180 193 104 q 62 395 62 256 q 156 659 62 560 q 403 757 251 757 q 623 687 539 757 q 722 492 707 618 l 561 492 q 404 616 532 616 q 281 559 330 616 q 232 406 232 502 q 273 274 232 317 q 435 189 313 231 q 613 95 566 142 q 660 -38 660 47 z "},"σ":{"ha":918,"x_min":62,"x_max":856,"o":"m 408 -15 q 156 86 250 -15 q 62 360 62 188 q 165 638 62 534 q 442 742 269 742 l 856 742 l 856 598 l 667 598 l 667 587 q 731 490 708 551 q 755 359 755 429 q 660 87 755 189 q 408 -15 564 -15 m 411 124 q 543 188 494 124 q 591 363 591 252 q 541 533 591 469 q 416 597 490 597 q 284 533 334 597 q 235 363 235 469 q 283 187 235 250 q 411 124 331 124 z "},"τ":{"ha":743,"x_min":37,"x_max":677,"o":"m 503 -3 q 320 43 375 -3 q 264 198 264 90 l 264 598 l 37 598 l 37 742 l 677 742 l 677 598 l 432 598 l 432 239 q 456 158 432 184 q 534 133 481 133 q 591 136 562 133 l 591 5 q 503 -3 555 -3 z "},"υ":{"ha":802,"x_min":91,"x_max":727,"o":"m 402 -15 q 172 64 253 -15 q 91 298 91 144 l 91 742 l 252 742 l 252 317 q 403 133 252 133 q 520 194 479 133 q 561 377 561 255 q 546 569 561 490 q 492 742 531 648 l 658 742 q 708 581 690 673 q 727 395 727 488 q 642 89 727 193 q 402 -15 557 -15 z "},"φ":{"ha":1052,"x_min":60,"x_max":992,"o":"m 448 -247 l 448 -15 q 163 99 267 -5 q 60 371 60 202 q 90 532 60 460 q 172 652 119 604 q 295 726 224 699 q 448 758 365 753 l 448 924 l 604 924 l 604 758 q 756 726 686 753 q 880 652 827 699 q 962 532 932 604 q 992 371 992 460 q 888 99 992 202 q 604 -15 785 -5 l 604 -247 l 448 -247 m 602 120 q 771 198 713 133 q 829 371 829 263 q 768 547 829 483 q 602 622 708 610 l 602 120 m 450 120 l 450 622 q 283 547 344 610 q 223 371 223 483 q 281 198 223 263 q 450 120 338 132 z "},"χ":{"ha":796,"x_min":33,"x_max":766,"o":"m 44 -247 l 315 246 l 165 534 q 120 596 142 579 q 63 612 98 612 q 33 608 51 612 l 33 739 q 104 749 66 749 q 217 720 176 749 q 298 615 259 690 l 406 404 l 418 404 l 593 742 l 760 742 l 487 243 l 634 -41 q 678 -99 656 -82 q 736 -117 700 -117 q 766 -113 749 -117 l 766 -243 q 689 -254 734 -254 q 583 -227 624 -254 q 509 -135 542 -201 l 396 88 l 384 88 l 211 -247 l 44 -247 z "},"ψ":{"ha":1014,"x_min":91,"x_max":939,"o":"m 425 -247 l 425 -15 q 177 71 264 -12 q 91 298 91 154 l 91 742 l 252 742 l 252 330 q 295 181 252 229 q 425 133 338 134 l 425 924 l 585 924 l 585 134 q 724 199 675 136 q 773 379 773 262 q 704 742 773 582 l 869 742 q 920 585 901 680 q 939 395 939 490 q 845 96 939 202 q 585 -15 752 -11 l 585 -247 l 425 -247 z "},"ω":{"ha":1105,"x_min":75,"x_max":1029,"o":"m 764 -15 q 558 136 621 -15 l 547 136 q 341 -15 485 -15 q 145 79 215 -15 q 75 347 75 173 q 107 565 75 460 q 194 742 138 670 l 367 742 q 241 347 241 562 q 361 133 241 133 q 442 176 410 133 q 473 290 473 219 l 473 530 l 631 530 l 631 290 q 663 176 631 219 q 744 133 694 133 q 863 347 863 133 q 738 742 863 562 l 911 742 q 998 565 966 670 q 1029 347 1029 460 q 960 79 1029 174 q 764 -15 891 -15 z "},"ϊ":{"ha":455,"x_min":-66,"x_max":429,"o":"m 103 742 l 271 742 l 271 239 q 294 158 271 184 q 370 133 317 133 q 416 136 383 133 l 416 5 q 334 -3 380 -3 q 156 44 209 -3 q 103 199 103 92 l 103 742 m 100 870 q 86 856 100 870 q 31 842 72 842 q -39 870 -11 842 q -66 938 -66 897 q -39 1006 -66 979 q 31 1034 -11 1034 q 100 1006 72 1034 q 127 938 127 979 q 100 870 127 897 m 401 870 q 388 856 401 870 q 332 842 374 842 q 263 870 291 842 q 235 938 235 897 q 263 1006 235 979 q 332 1034 291 1034 q 401 1006 374 1034 q 429 938 429 979 q 401 870 429 897 z "},"ϋ":{"ha":802,"x_min":91,"x_max":727,"o":"m 402 -15 q 172 64 253 -15 q 91 298 91 144 l 91 742 l 252 742 l 252 317 q 403 133 252 133 q 520 194 479 133 q 561 377 561 255 q 546 569 561 490 q 492 742 531 648 l 658 742 q 708 581 690 673 q 727 395 727 488 q 642 89 727 193 q 402 -15 557 -15 m 305 870 q 291 856 305 870 q 236 842 277 842 q 167 870 195 842 q 139 938 139 897 q 167 1006 139 979 q 236 1034 195 1034 q 305 1006 277 1034 q 333 938 333 979 q 305 870 333 897 m 607 870 q 593 856 607 870 q 538 842 579 842 q 469 870 496 842 q 441 938 441 897 q 469 1006 441 979 q 538 1034 496 1034 q 607 1006 579 1034 q 635 938 635 979 q 607 870 635 897 z "},"ό":{"ha":823,"x_min":62,"x_max":762,"o":"m 667 88 q 620 37 667 88 q 412 -15 573 -15 q 156 88 250 -15 q 62 371 62 191 q 157 653 62 550 q 412 757 252 757 q 667 654 572 757 q 762 371 762 551 q 667 88 762 191 m 412 126 q 541 191 494 126 q 589 371 589 256 q 541 551 589 486 q 412 616 493 616 q 282 551 330 616 q 235 371 235 486 q 282 191 235 256 q 412 126 329 126 m 327 858 l 385 1105 l 564 1105 l 469 858 l 327 858 z "},"ύ":{"ha":802,"x_min":91,"x_max":727,"o":"m 402 -15 q 172 64 253 -15 q 91 298 91 144 l 91 742 l 252 742 l 252 317 q 403 133 252 133 q 520 194 479 133 q 561 377 561 255 q 546 569 561 490 q 492 742 531 648 l 658 742 q 708 581 690 673 q 727 395 727 488 q 642 89 727 193 q 402 -15 557 -15 m 302 858 l 360 1105 l 540 1105 l 444 858 l 302 858 z "},"ώ":{"ha":1105,"x_min":75,"x_max":1029,"o":"m 764 -15 q 558 136 621 -15 l 547 136 q 341 -15 485 -15 q 145 79 215 -15 q 75 347 75 173 q 107 565 75 460 q 194 742 138 670 l 367 742 q 241 347 241 562 q 361 133 241 133 q 442 176 410 133 q 473 290 473 219 l 473 530 l 631 530 l 631 290 q 663 176 631 219 q 744 133 694 133 q 863 347 863 133 q 738 742 863 562 l 911 742 q 998 565 966 670 q 1029 347 1029 460 q 960 79 1029 174 q 764 -15 891 -15 m 476 858 l 534 1105 l 713 1105 l 618 858 l 476 858 z "},"Ѐ":{"ha":864,"x_min":127,"x_max":761,"o":"m 761 151 l 761 0 l 127 0 l 127 979 l 761 979 l 761 827 l 302 827 l 302 568 l 736 568 l 736 425 l 302 425 l 302 151 l 761 151 m 363 1075 l 146 1285 l 338 1285 l 533 1075 l 363 1075 z "}}}
